#N struct 1004-scope float x float y float x1 float y1 float c1 float c2 float c3 float c4 array vector-min 1004-scope-element array vector-max 1004-scope-element float curx;
#N struct 1004-scope-element float y;
#N canvas 92 25 959 665 12;
#X obj 36 34 ys.granular_main 1;
#X text 42 624 yann seznec // 2023 // yannseznec.com;
#X obj 186 593 dac~;
#X obj 533 309 ys.comport;
#N canvas 120 94 940 778 mappings 1;
#X obj 200 167 r analog0;
#X obj 200 274 s 1-sample_offset_rcv;
#X floatatom 200 191 5 0 0 0 - - - 0;
#X obj 200 214 / 1023;
#X floatatom 398 171 5 0 0 0 - - - 0;
#X obj 398 194 / 1023;
#X obj 398 147 r analog1;
#X msg 617 209 \; \$1-grain_pitch_rcv 0.25 \; \$1-grain_size_rcv 0.5 \; \$1-sample_offset_rcv 0.5 \; \$1-offset_random_rcv 0.02 \; \$1-random_pitch_rcv 0 \; \$1-random_panning_rcv 0.6 \; \$1-global_pan_rcv 0.5 \; \$1-autoplay_speed_rcv 0.25 \; \$1-autoplay_reverse_rcv 0 \; \$1-freeze_rcv 0 \; \$1-autoplay_on_off_rcv 0 \; \$1-on_off_rcv 1 \; \$1-volume_rcv 1 \; \$1-num_channels_rcv 2 \; \$1-reverse_rcv 0 \; \$1-reverse_random_rcv 0 \; \$1-grain_density_rcv 0.1 \; \$1-grainplay_chance_rcv 1 \;;
#X obj 398 220 s 1-offset_random_rcv;
#X floatatom 201 331 5 0 0 0 - - - 0;
#X obj 201 354 / 1023;
#X obj 201 307 r analog2;
#X obj 201 380 s 1-grain_pitch_rcv;
#X floatatom 393 278 5 0 0 0 - - - 0;
#X obj 393 301 / 1023;
#X obj 393 254 r analog3;
#X obj 393 327 s 1-random_pitch_rcv;
#X floatatom 199 439 5 0 0 0 - - - 0;
#X obj 199 462 / 1023;
#X floatatom 391 373 5 0 0 0 - - - 0;
#X obj 199 488 s 1-grain_size_rcv;
#X obj 391 498 s 1-grain_density_rcv;
#X floatatom 89 523 5 0 0 0 - - - 0;
#X obj 89 546 / 1023;
#X obj 89 499 r analog6;
#X obj 178 613 s 1-grainplay_chance_rcv;
#X floatatom 389 545 5 0 0 0 - - - 0;
#X obj 389 568 / 1023;
#X obj 389 594 s 1-autoplay_speed_rcv;
#X floatatom 567 515 5 0 0 0 - - - 0;
#X obj 567 538 / 1023;
#X obj 232 685 change;
#X obj 45 104 change;
#X obj 120 681 change;
#X obj 109 805 s 1-on_off_rcv;
#X obj 251 758 s 1-play_one_grain_rcv;
#X obj 232 709 sel 1;
#X obj 383 693 change;
#X obj 424 818 s 1-autoplay_reverse_rcv;
#X obj 359 656 r digital2;
#X obj 45 132 s 1-autoplay_on_off_rcv;
#X obj 389 521 r analog4;
#X obj 199 415 r analog7;
#X obj 391 349 r analog8;
#X obj 567 491 r analog5;
#X obj 120 657 r digital5;
#X obj 233 661 r digital0;
#X obj 442 706 sel 0 1;
#X msg 434 747 1;
#X msg 467 749 0;
#X obj 45 80 r digital1;
#X obj 131 270 spigot;
#X obj 73 150 sel 0 1;
#X msg 65 191 1;
#X msg 98 193 0;
#X obj 776 754 change;
#X obj 776 783 s 1-freeze_rcv;
#X obj 776 730 r digital3;
#X obj 878 295 change;
#X obj 879 270 r digital4;
#X obj 877 408 sel 1;
#X msg 876 434 1;
#X obj 876 458 +;
#X floatatom 876 482 5 0 0 0 - - - 0;
#X obj 876 505 % 3;
#X obj 876 529 sel 0 1 2;
#X obj 780 652 s 1-reverse_rcv;
#X obj 783 629 tgl 19 0 empty empty empty 0 -10 0 12 #fcfcfc #000000 #000000 0 1;
#X obj 910 631 tgl 19 0 empty empty empty 0 -10 0 12 #fcfcfc #000000 #000000 0 1;
#X obj 907 654 s 1-reverse_random_rcv;
#X msg 829 601 0;
#X msg 863 601 1;
#X msg 904 606 1;
#X msg 787 604 0;
#X msg 935 607 0;
#X obj 123 213 loadbang;
#X msg 123 237 1;
#X obj 610 580 s sample_load;
#X obj 845 186 s 1-record_rcv;
#X obj 858 151 tgl 19 0 empty empty empty 0 -10 0 12 #fcfcfc #000000 #000000 0 1;
#X obj 853 126 change;
#X obj 854 101 r digital6;
#X obj 390 414 + 1;
#X obj 391 472 / 1024;
#X obj 977 156 tgl 19 0 empty empty empty 0 -10 0 12 #fcfcfc #000000 #000000 0 1;
#X obj 972 131 change;
#X obj 973 106 r digital7;
#X obj 964 191 s 1-recordLoop_rcv;
#X obj 562 603 s filterfreq;
#X obj 873 331 sel 1;
#X obj 873 355 s random_sound;
#X obj 160 735 print;
#X obj 231 781 s 1-reset_pitch_rcv;
#X obj 81 579 s 1-random_panning_rcv;
#X obj 109 383 print pitch;
#X obj 309 728 print resetpitch;
#X connect 0 0 2 0;
#X connect 2 0 3 0;
#X connect 3 0 51 0;
#X connect 4 0 5 0;
#X connect 5 0 8 0;
#X connect 6 0 4 0;
#X connect 9 0 10 0;
#X connect 10 0 12 0;
#X connect 10 0 94 0;
#X connect 11 0 9 0;
#X connect 13 0 14 0;
#X connect 14 0 16 0;
#X connect 15 0 13 0;
#X connect 17 0 18 0;
#X connect 18 0 20 0;
#X connect 19 0 82 0;
#X connect 22 0 23 0;
#X connect 23 0 93 0;
#X connect 24 0 22 0;
#X connect 26 0 27 0;
#X connect 27 0 28 0;
#X connect 29 0 30 0;
#X connect 30 0 88 0;
#X connect 31 0 36 0;
#X connect 32 0 40 0;
#X connect 32 0 52 0;
#X connect 33 0 34 0;
#X connect 33 0 91 0;
#X connect 36 0 92 0;
#X connect 36 0 95 0;
#X connect 37 0 47 0;
#X connect 39 0 37 0;
#X connect 41 0 26 0;
#X connect 42 0 17 0;
#X connect 43 0 19 0;
#X connect 44 0 29 0;
#X connect 45 0 33 0;
#X connect 46 0 31 0;
#X connect 47 0 48 0;
#X connect 47 1 49 0;
#X connect 48 0 38 0;
#X connect 49 0 38 0;
#X connect 50 0 32 0;
#X connect 51 0 1 0;
#X connect 52 0 53 0;
#X connect 52 1 54 0;
#X connect 53 0 51 1;
#X connect 54 0 51 1;
#X connect 55 0 56 0;
#X connect 57 0 55 0;
#X connect 58 0 89 0;
#X connect 59 0 58 0;
#X connect 60 0 61 0;
#X connect 61 0 62 0;
#X connect 62 0 63 0;
#X connect 63 0 62 1;
#X connect 63 0 64 0;
#X connect 64 0 65 0;
#X connect 65 0 70 0;
#X connect 65 1 71 0;
#X connect 65 1 74 0;
#X connect 65 2 72 0;
#X connect 65 2 73 0;
#X connect 67 0 66 0;
#X connect 68 0 69 0;
#X connect 70 0 67 0;
#X connect 70 0 68 0;
#X connect 71 0 67 0;
#X connect 72 0 68 0;
#X connect 73 0 67 0;
#X connect 74 0 68 0;
#X connect 75 0 76 0;
#X connect 76 0 51 1;
#X connect 79 0 60 0;
#X connect 80 0 79 0;
#X connect 81 0 80 0;
#X connect 82 0 83 0;
#X connect 83 0 21 0;
#X connect 84 0 87 0;
#X connect 85 0 84 0;
#X connect 86 0 85 0;
#X connect 89 0 90 0;
#X restore 508 396 pd mappings;
#X obj 432 242 print;
#N canvas 184 160 1219 712 soundloader 0;
#X obj 45 285 file glob;
#X msg 45 310 \$2 \$1;
#X obj 45 335 route 0 1;
#X obj 68 363 symbol;
#X obj 92 310 bng 15 250 50 0 empty empty empty 17 7 0 10 #fcfcfc #000000 #000000;
#X obj 173 432 list;
#X floatatom 670 342 5 0 0 0 - - - 0;
#X obj 366 283 file glob;
#X msg 366 307 \$2 \$1;
#X obj 366 332 route 0 1;
#X obj 395 361 symbol;
#X obj 413 307 bng 15 250 50 0 empty empty empty 17 7 0 10 #fcfcfc #000000 #000000;
#X obj 172 362 s \$0-totxt;
#X obj 171 387 r \$0-totxt;
#X obj 171 408 t b a;
#X obj 670 364 bng 15 250 50 0 empty empty empty 17 7 0 10 #fcfcfc #000000 #000000;
#X obj 59 224 t s s;
#X obj 79 438 del 200;
#X obj 173 457 text insert \$0-dirfiles 1e+07;
#X obj 388 456 text define \$0-dirfiles;
#X obj 670 293 r \$0-dn;
#X obj 79 461 s \$0-dn;
#X obj 670 320 text size \$0-dirfiles;
#X obj 641 395 s \$0-numsounds;
#X floatatom 220 108 5 0 0 0 number\ of\ sounds \$0-numsounds - 12;
#X obj 481 60 bng 19 250 50 0 \$0-randomsound empty random\ sound 0 -10 0 12 #fcfcfc #000000 #000000;
#X obj 45 522 r \$0-randomsound;
#X obj 47 623 text get \$0-dirfiles;
#X obj 47 570 random;
#X obj 81 546 r \$0-numsounds;
#X obj 47 651 s \$0-selected_sound;
#X obj 105 577 r \$0-select_sound;
#X obj 29 677 outlet;
#X floatatom 219 134 5 0 0 0 select\ sound - \$0-select_sound 0;
#X floatatom 972 120 5 0 0 0 patch\ ID \$0-patchid - 0;
#X obj 851 161 s \$0-patchid;
#X obj 850 121 i \$0;
#X obj 849 67 loadbang;
#X obj 855 91 bng 19 250 50 0 empty empty empty 0 -10 0 12 #fcfcfc #000000 #000000;
#X obj 313 19 inlet;
#X obj 482 22 inlet;
#X obj 329 133 bng 19 250 50 0 \$0-reload empty reload 0 -10 0 12 #fcfcfc #000000 #000000;
#X obj 772 359 outlet;
#X obj 256 148 bng 15 250 50 0 empty empty empty 17 7 0 10 #fcfcfc #000000 #000000;
#X obj 256 168 t b b;
#X msg 256 189 dir;
#X obj 256 210 pdcontrol;
#X msg 45 258 symbol \$1/sounds/*.wav \, symbol \$1/sounds/*/;
#X msg 373 257 symbol \$1/sounds/*.aiff \, symbol \$1/sounds/*/;
#X obj 263 115 loadbang;
#X connect 0 0 1 0;
#X connect 0 1 4 0;
#X connect 1 0 2 0;
#X connect 2 0 12 0;
#X connect 2 1 3 0;
#X connect 3 0 47 0;
#X connect 5 0 18 0;
#X connect 6 0 15 0;
#X connect 6 0 23 0;
#X connect 6 0 42 0;
#X connect 7 0 8 0;
#X connect 7 1 11 0;
#X connect 8 0 9 0;
#X connect 9 0 12 0;
#X connect 9 1 10 0;
#X connect 10 0 48 0;
#X connect 13 0 14 0;
#X connect 14 0 17 0;
#X connect 14 1 5 0;
#X connect 16 0 47 0;
#X connect 16 1 48 0;
#X connect 17 0 21 0;
#X connect 20 0 22 0;
#X connect 22 0 6 0;
#X connect 26 0 28 0;
#X connect 27 0 30 0;
#X connect 27 0 32 0;
#X connect 28 0 27 0;
#X connect 29 0 28 1;
#X connect 31 0 27 0;
#X connect 36 0 35 0;
#X connect 37 0 38 0;
#X connect 38 0 36 0;
#X connect 39 0 33 0;
#X connect 40 0 25 0;
#X connect 43 0 44 0;
#X connect 44 0 45 0;
#X connect 45 0 46 0;
#X connect 46 0 16 0;
#X connect 47 0 0 0;
#X connect 48 0 7 0;
#X connect 49 0 43 0;
#X coords 0 -1 1 1 180 60 2 100 100;
#X restore 588 186 pd soundloader;
#X obj 585 155 r select_sound;
#X obj 701 83 r random_sound;
#X obj 701 107 bng 19 250 50 0 empty empty empty 0 -10 0 12 #fcfcfc #000000 #000000;
#X obj 581 265 print;
#X obj 644 276 s 1-sample_load;
#X obj 535 35 r sample_load;
#X obj 535 59 *;
#X obj 535 83 i;
#X floatatom 639 29 5 0 0 0 - - - 0;
#X obj 541 115 change;
#X obj 767 277 print numSounds;
#X obj 125 566 bob~;
#X obj 193 563 bob~;
#X msg 272 561 1;
#X floatatom 457 537 5 0 0 0 - - - 0;
#X obj 457 560 mtof;
#X obj 455 466 r filterfreq;
#X obj 456 491 hsl 162 19 0 1 0 0 empty empty empty -2 -10 0 12 #fcfcfc #000000 #000000 0 1;
#X obj 457 516 * 124;
#X connect 0 0 18 0;
#X connect 0 1 19 0;
#X connect 6 0 10 0;
#X connect 6 0 11 0;
#X connect 6 1 13 1;
#X connect 6 1 17 0;
#X connect 7 0 6 0;
#X connect 8 0 9 0;
#X connect 9 0 6 1;
#X connect 12 0 13 0;
#X connect 13 0 14 0;
#X connect 14 0 16 0;
#X connect 15 0 13 0;
#X connect 16 0 6 0;
#X connect 18 0 2 0;
#X connect 19 0 2 1;
#X connect 20 0 19 2;
#X connect 20 0 18 2;
#X connect 21 0 22 0;
#X connect 22 0 19 1;
#X connect 22 0 18 1;
#X connect 23 0 24 0;
#X connect 24 0 25 0;
#X connect 25 0 21 0;
