#N canvas 407 324 450 300 12;
#X obj 214 140 dac~;
#X obj 206 77 osc~ 400;
#X obj 206 101 *~ 0.4;
#X msg 339 106 \; pd dsp 1;
#X obj 342 68 loadbang;
#X connect 1 0 2 0;
#X connect 2 0 0 0;
#X connect 2 0 0 1;
#X connect 4 0 3 0;
