#N canvas 819 167 585 569 10;
#X obj 75 157 inlet;
#X msg 119 255 seed \$1;
#X obj 288 223 s \$0-urn;
#X msg 288 202 resize \$1;
#X obj 182 42 loadbang;
#X obj 184 106 sel 0;
#X msg 135 138 100;
#X obj 100 398 random;
#X obj 128 227 route seed clear;
#X obj 75 178 route bang;
#X obj 187 252 b;
#X obj 182 320 until;
#X obj 182 278 f;
#X obj 182 392 tabwrite \$0-urn;
#X obj 182 345 f;
#X obj 220 346 + 1;
#X msg 221 319 0;
#X obj 182 298 t f b;
#X obj 182 370 t f f;
#N canvas 812 547 450 300 nuttin 0;
#X obj 62 43 inlet;
#X obj 66 92 outlet;
#X connect 0 0 1 0;
#X restore 206 203 pd nuttin;
#X obj 182 181 t b f;
#X obj 90 303 f;
#X obj 75 327 f;
#X obj 75 377 - 1;
#X obj 100 422 tabread \$0-urn;
#X obj 75 444 tabread \$0-urn;
#X obj 75 467 tabwrite \$0-urn;
#X obj 100 489 outlet;
#X obj 174 488 outlet;
#X obj 75 348 t f b f b;
#X obj 174 443 f;
#X obj 25 241 sel 0;
#X msg 25 383 1;
#X msg 198 422 0;
#X obj 174 465 sel 1;
#X obj 297 362 table \$0-urn;
#X obj 182 64 f;
#X obj 316 76 inlet;
#X obj 175 140 f;
#X connect 0 0 9 0;
#X connect 1 0 7 0;
#X connect 3 0 2 0;
#X connect 4 0 36 0;
#X connect 5 0 6 0;
#X connect 5 0 38 0;
#X connect 5 1 20 0;
#X connect 7 0 24 0;
#X connect 7 0 26 1;
#X connect 8 0 1 0;
#X connect 8 1 10 0;
#X connect 9 0 22 0;
#X connect 9 1 8 0;
#X connect 10 0 12 0;
#X connect 10 0 21 0;
#X connect 10 0 33 0;
#X connect 11 0 14 0;
#X connect 12 0 17 0;
#X connect 14 0 18 0;
#X connect 15 0 14 1;
#X connect 16 0 14 1;
#X connect 17 0 11 0;
#X connect 17 1 16 0;
#X connect 18 0 13 0;
#X connect 18 1 15 0;
#X connect 18 1 13 1;
#X connect 19 0 12 1;
#X connect 19 0 21 0;
#X connect 20 0 12 0;
#X connect 20 0 33 0;
#X connect 20 1 3 0;
#X connect 20 1 19 0;
#X connect 21 0 22 1;
#X connect 22 0 29 0;
#X connect 23 0 25 0;
#X connect 23 0 31 0;
#X connect 24 0 27 0;
#X connect 25 0 26 0;
#X connect 29 0 23 0;
#X connect 29 1 7 0;
#X connect 29 2 7 1;
#X connect 29 3 30 0;
#X connect 30 0 34 0;
#X connect 31 0 32 0;
#X connect 31 0 12 0;
#X connect 31 0 21 0;
#X connect 31 1 22 1;
#X connect 32 0 30 1;
#X connect 33 0 30 1;
#X connect 34 0 28 0;
#X connect 34 0 33 0;
#X connect 36 0 5 0;
#X connect 37 0 36 1;
#X connect 37 0 38 1;
#X connect 37 0 20 0;
#X connect 38 0 20 0;
