#N struct 1004-scope float x float y float x1 float y1 float c1 float
c2 float c3 float c4 array vector-min 1004-scope-element array vector-max
1004-scope-element float curx;
#N struct 1004-scope-element float y;
#N canvas 350 141 972 691 10;
#X obj 28 179 hsl 175 15 0 1 0 0 \$1-sample_offset \$1-sample_offset_rcv
sample\\\ offset -2 -4 1 10 #fffba5 #404040 #000000 0 1;
#X obj 225 10 tgl 30 1 \$1-on_off \$1-on_off_rcv on/off 32 26 0 10
#9bc99d #000000 #000000 0 1;
#X obj 225 44 tgl 30 1 \$1-record \$1-record_rcv record 32 26 1 10
#ffc7c6 #000000 #000000 0 1;
#X obj 12 526 bng 15 250 50 0 midi-properties midi-properties_rcv midi-properties
17 7 0 10 #fcfcfc #000000 #000000;
#X obj 12 508 bng 15 250 50 0 audio-properties audio-properties_rcv
audio-properties 17 7 0 10 #fcfcfc #000000 #000000;
#X obj 258 10 bng 15 250 50 0 \$1-play_one_grain \$1-play_one_grain_rcv
play\\\ one 17 7 1 10 #9bc99d #000000 #000000;
#X text 31 760 by yann seznec // yannseznec.com;
#X obj 226 212 cnv 15 95 100 empty empty autoplay 5 12 1 14 #e0e0e0
#404040 0;
#X obj 232 287 hsl 80 15 0 1 0 1 \$1-autoplay_speed \$1-autoplay_speed_rcv
speed -2 -4 1 10 #fcfcfc #000000 #000000 1000 1;
#X obj 230 261 tgl 12 1 \$1-freeze \$1-freeze_rcv freeze 17 7 1 10
#fcfcfc #000000 #000000 0 1;
#X obj 293 216 tgl 20 1 \$1-autoplay_on_off \$1-autoplay_on_off_rcv
on/off -2 25 1 10 #9bc99d #000000 #000000 0 1;
#X obj 230 242 tgl 12 1 \$1-autoplay_reverse \$1-autoplay_reverse_rcv
reverse 17 7 1 10 #fcfcfc #000000 #000000 0 1;
#X obj 226 108 cnv 15 95 100 empty empty input 5 12 1 14 #e0e0e0 #404040
0;
#X obj 230 184 tgl 15 0 \$1-input_monitor \$1-input_monitor_rcv monitor
17 7 1 10 #fcfcfc #000000 #000000 0 1;
#X obj 230 133 vradio 15 1 1 3 \$1-stereoms \$1-stereoms_rcv empty
0 -8 0 10 #fcfcfc #000000 #000000 2;
#X obj 248 140 cnv 15 20 10 empty empty stereo 0 0 1 10 #dfdfdf #404040
0;
#X obj 247 156 cnv 15 20 10 empty empty mid/side 0 0 1 10 #dfdfdf #404040
0;
#X obj 247 170 cnv 15 20 10 empty empty mono 0 0 1 10 #dfdfdf #404040
0;
#X obj 226 316 cnv 15 95 130 empty empty output 5 12 1 14 #e0e0e0 #404040
0;
#X obj 235 402 hsl 30 10 0 1 0 1 \$1-global_pan \$1-global_pan_rcv
empty -2 -8 1 10 #fcfcfc #000000 #000000 1500 1;
#X obj 232 339 vsl 35 60 0.01 1.4 1 1 \$1-volume \$1-volume_rcv empty
-6 -9 1 10 #fcfcfc #000000 #000000 5000 1;
#X obj 287 327 vu 8 80 \$1-vu-L empty 20 10 1 24 #404040 #000000 0
0;
#X obj 299 327 vu 8 80 \$1-vu-R empty 20 10 1 24 #404040 #000000 0
0;
#X obj 25 216 cnv 15 180 250 empty empty empty 20 12 0 14 #194b19 #404040
0;
#X obj 234 425 hsl 75 15 0 1 0 1 \$1-random_panning \$1-random_panning_rcv
panning\\\ random -2 -4 1 10 #ffffff #000000 #000000 5400 1;
#X obj 42 240 hsl 128 15 0 1 0 1 \$1-offset_random \$1-offset_random_rcv
offset\\\ random -2 -4 1 10 #fffba5 #000000 #ffffff 400 1;
#X obj 42 305 hsl 128 15 0 1 0 1 \$1-grain_pitch \$1-grain_pitch_rcv
pitch -2 -4 1 10 #9bc9dd #ffffff #ffffff 1675 1;
#X obj 40 273 tgl 15 1 \$1-reverse \$1-reverse_rcv reverse 17 7 1 10
#9bc9dd #000000 #ffffff 0 1;
#X obj 94 273 tgl 15 1 \$1-reverse_random \$1-reverse_random_rcv reverse\\\ random
17 7 1 10 #9bc9dd #000000 #ffffff 0 1;
#X obj 173 305 bng 15 250 50 0 \$1-reset_pitch \$1-reset_pitch_rcv
empty 17 7 1 10 #9bc9dd #000000 #000000;
#X obj 43 336 hsl 128 15 0 1 0 1 \$1-random_pitch \$1-random_pitch_rcv
pitch\\\ random -2 -4 1 10 #9bc9dd #ffffff #ffffff 11400 1;
#X obj 43 371 hsl 128 15 0.001 1 0 1 \$1-grain_size \$1-grain_size_rcv
grain\\\ size -2 -4 1 10 #eab8fe #ffffff #ffffff 10900 1;
#X obj 43 400 hsl 128 15 0.002 1 0 1 \$1-grain_density \$1-grain_density_rcv
grain\\\ density -2 -4 1 10 #eab8fe #ffffff #ffffff 1100 1;
#X obj 43 429 hsl 128 15 0 1 0 1 \$1-grainplay_chance \$1-grainplay_chance_rcv
grainplay\\\ chance -2 -4 1 10 #eab8fe #ffffff #ffffff 12700 1;
#X obj 292 121 vu 8 80 \$1-input_vu-L empty 20 10 1 24 #404040 #000000
0 0;
#X obj 304 121 vu 8 80 \$1-input_vu-R empty 20 10 1 24 #404040 #000000
0 0;
#X obj 12 545 ys.granular_brain \$1;
#X msg 368 476 vis 1;
#N canvas 441 25 447 847 \$1-help 0;
#X obj 20 24 cnv 15 400 800 empty empty ys.granular 20 12 1 25 #f1f4f4
#404040 0;
#X text 35 222 most parameters can be accessed through send/receive
objects. to control a parameter the best option is to use the "receive"
setting for the GUI slider (or toggle or bang).;
#X obj 216 306 loadbang;
#X obj 216 327 i \$1;
#X floatatom 216 348 5 0 0 1 this\ is\ the\ identifier - - 0;
#X obj 39 347 send \$1-sample_offset_rcv;
#X obj 42 323 hsl 128 15 0 1 0 0 empty empty empty -2 -8 0 10 #fcfcfc
#000000 #000000 0 1;
#X text 33 305 try me!;
#X text 33 405 nearly all of the parameters are float values between
0-1.;
#X text 33 427 for "pitch" \, the pitch is unchanged at a value of
0.25.;
#X msg 34 564 \; \$1-grain_pitch_rcv 0.25 \; \$1-grain_size_rcv 0.5
\; \$1-sample_offset_rcv 0.5 \; \$1-offset_random_rcv 0.02 \; \$1-random_pitch_rcv
0 \; \$1-random_panning_rcv 0.6 \; \$1-global_pan_rcv 0.5 \; \$1-autoplay_speed_rcv
0.25 \; \$1-autoplay_reverse_rcv 0 \; \$1-freeze_rcv 0 \; \$1-autoplay_on_off_rcv
0 \; \$1-on_off_rcv 1 \; \$1-volume_rcv 1 \; \$1-num_channels_rcv 2
\; \$1-reverse_rcv 0 \; \$1-reverse_random_rcv 0 \; \$1-grain_density_rcv
0.1 \; \$1-grainplay_chance_rcv 1 \;;
#X obj 34 510 i \$1;
#X floatatom 34 531 5 0 0 1 this\ is\ the\ identifier - - 0;
#X obj 34 482 bng 15 250 50 0 empty empty load\\\ a\\\ set\\\ of\\\ values
17 7 0 10 #fcfcfc #000000 #000000;
#X text 33 449 you can change a bunch of values at once using a message
box like this...like a really clunky preset manager:;
#X text 209 609 a few that aren't listed there:;
#X msg 220 751 \; pd dsp 1;
#X obj 220 726 loadbang;
#X text 210 635 \$1-choose_sound_rcv;
#X text 34 785 the send names for all of the GUI objects are the same
as above \, without the "_rcv" suffix.;
#X text 210 651 \$1-reset_pitch_rcv;
#X text 334 636 (bang);
#X text 333 652 (bang);
#X text 209 669 \$1-record_rcv (toggle);
#X text 208 686 \$1-play_one_grain_rcv;
#X text 341 687 (bang);
#X text 40 548 see this list for the accessible parameter names.;
#X obj 40 65 cnv 15 1 1 empty empty a\\\ pretty\\\ standard\\\ granular\\\ audio\\\ exploration\\\ system
0 0 0 12 #f1f3f3 #404040 0;
#X obj 39 88 cnv 15 1 1 empty empty yannseznec.com\\\ yann@yannseznec.com
0 0 0 12 #f1f3f3 #404040 0;
#X text 35 106 to use \, create a top-level patch and add the ys.granular_main.pd
patch as an object \, with an integer argument that acts as an identifier.
;
#X text 35 181 you can have multiple instances of ys.granular_main.pd
running \, so long as they each have different identifier numbers.
;
#X text 34 271 these are accessed with the identifier number followed
by the name. from within the patch (like right now) \, use \$1.;
#X text 34 372 from outside the patch \, the equivalent send argument
would be "1-sample_offset_rcv".;
#X text 35 157 thanks to Balwyn on the Pd forums for the nice waveform!
;
#X connect 2 0 3 0;
#X connect 3 0 4 0;
#X connect 6 0 5 0;
#X connect 11 0 12 0;
#X connect 12 0 10 0;
#X connect 13 0 11 0;
#X connect 17 0 16 0;
#X coords 0 847 1 846 85 10 0;
#X restore 13 566 pd \$1-help;
#X f 15;
#X obj 368 497 s pd-\$1-help;
#X obj 230 451 bng 15 250 50 0 \$1-help empty help 17 7 0 10 #fcfcfc
#000000 #000000;
#X obj 370 457 r \$1-help;
#X obj 309 81 bng 10 250 50 0 \$1-choose_sound \$1-choose_sound_rcv
choose\\\ sound -66 5 1 10 #c7c6ff #000000 #000000;
#X obj 309 95 bng 10 250 50 0 \$1-clear \$1-clear_rcv clear\\\ array
-53 5 1 10 #c7c6ff #000000 #2f004d;
#N canvas 878 406 772 493 \$0-graph-subpatch 0;
#N canvas 910 69 450 707 \$0-graph 0;
#X scalar 1004-scope 0 0.5 1024 -1.5 999 999 900 990 452 \; -1.50035
\; -1.50059 \; -1.50108 \; -1.49883 \; -1.50179 \; -1.5015 \; -1.50209
\; -1.50276 \; -1.51373 \; -1.5175 \; -1.51881 \; -1.50236 \; -1.48982
\; -1.49011 \; -1.49654 \; -1.50622 \; -1.50236 \; -1.49799 \; -1.50308
\; -1.512 \; -1.5183 \; -1.51792 \; -1.51506 \; -1.51334 \; -1.4985
\; -1.49997 \; -1.50714 \; -1.4998 \; -1.49579 \; -1.5042 \; -1.51589
\; -1.51419 \; -1.50431 \; -1.49398 \; -1.5058 \; -1.50777 \; -1.49775
\; -1.49792 \; -1.50684 \; -1.50842 \; -1.51705 \; -1.51863 \; -1.50817
\; -1.50092 \; -1.49181 \; -1.50307 \; -1.51153 \; -1.53173 \; -1.56979
\; -1.50708 \; -1.50058 \; -1.50097 \; -1.54133 \; -1.53298 \; -1.54101
\; -1.51409 \; -1.50528 \; -1.50381 \; -1.49717 \; -1.50789 \; -1.51174
\; -1.51221 \; -1.52263 \; -1.51872 \; -1.50469 \; -1.4812 \; -1.48267
\; -1.49612 \; -1.50824 \; -1.52135 \; -1.52216 \; -1.51668 \; -1.5157
\; -1.51294 \; -1.52633 \; -1.50944 \; -1.49981 \; -1.50105 \; -1.50335
\; -1.51328 \; -1.50777 \; -1.51673 \; -1.51238 \; -1.50978 \; -1.53174
\; -1.53683 \; -1.53228 \; -1.5276 \; -1.53359 \; -1.54133 \; -1.55603
\; -1.5014 \; -1.53491 \; -1.5331 \; -1.53032 \; -1.537 \; -1.54322
\; -1.5512 \; -1.56805 \; -1.59885 \; -1.62254 \; -1.59851 \; -1.57661
\; -1.56963 \; -1.58961 \; -1.59616 \; -1.64284 \; -1.65911 \; -1.69979
\; -1.67961 \; -1.63079 \; -1.67074 \; -1.6859 \; -1.67048 \; -1.66847
\; -1.71512 \; -1.74823 \; -1.75714 \; -1.75583 \; -1.77289 \; -1.7492
\; -1.7448 \; -1.76076 \; -1.77717 \; -1.7411 \; -1.81785 \; -1.80924
\; -1.82363 \; -1.83902 \; -1.85666 \; -1.80494 \; -1.83199 \; -1.88067
\; -1.90341 \; -1.85222 \; -1.85154 \; -1.85548 \; -1.85196 \; -1.87224
\; -1.85009 \; -1.85862 \; -1.85089 \; -1.89168 \; -1.94266 \; -1.99051
\; -2.00889 \; -2.0253 \; -2.04355 \; -2.07478 \; -2.05918 \; -2.0693
\; -2.02963 \; -2.05803 \; -2.03497 \; -2.07456 \; -2.10953 \; -2.13835
\; -2.10554 \; -2.08394 \; -2.20076 \; -2.20658 \; -2.2186 \; -2.14082
\; -2.20453 \; -2.28633 \; -2.29726 \; -2.28447 \; -2.24901 \; -2.2809
\; -2.3513 \; -2.37624 \; -2.40383 \; -2.40354 \; -2.41046 \; -2.45334
\; -2.46994 \; -2.5 \; -2.48262 \; -2.45114 \; -2.41735 \; -2.40639
\; -2.43076 \; -2.4171 \; -2.42189 \; -2.42282 \; -2.39324 \; -2.37904
\; -2.34901 \; -2.32301 \; -2.27546 \; -2.30806 \; -2.31493 \; -2.29788
\; -2.28987 \; -2.28564 \; -2.3099 \; -2.35178 \; -2.36428 \; -2.3212
\; -2.25807 \; -2.28565 \; -2.26598 \; -2.27849 \; -2.31324 \; -2.3687
\; -2.35034 \; -2.35308 \; -2.33407 \; -2.26496 \; -2.25854 \; -2.28322
\; -2.28325 \; -2.30243 \; -2.28647 \; -2.26545 \; -2.24653 \; -2.1628
\; -2.21089 \; -2.30204 \; -2.32773 \; -2.31418 \; -2.22769 \; -2.15531
\; -2.1514 \; -2.13927 \; -2.10288 \; -2.24229 \; -2.38558 \; -2.39422
\; -2.33135 \; -2.12138 \; -2.07285 \; -2.05376 \; -2.08089 \; -2.20122
\; -2.27179 \; -2.22911 \; -2.05182 \; -1.99873 \; -2.06837 \; -2.12828
\; -2.1941 \; -2.19353 \; -2.0915 \; -2.0235 \; -2.06978 \; -2.09867
\; -2.09405 \; -2.03885 \; -2.0164 \; -1.98058 \; -1.93986 \; -1.8783
\; -1.83404 \; -1.84358 \; -1.90119 \; -1.93143 \; -1.91283 \; -1.91932
\; -1.99059 \; -2.04086 \; -1.99958 \; -1.82666 \; -1.92448 \; -2.00145
\; -1.94625 \; -2.04498 \; -2.14718 \; -2.10995 \; -2.04181 \; -2.19118
\; -2.19147 \; -2.19809 \; -2.19415 \; -2.16791 \; -2.21838 \; -2.14495
\; -2.09493 \; -2.12777 \; -2.12343 \; -2.05088 \; -2.07067 \; -1.99616
\; -2.0264 \; -2.03168 \; -2.07298 \; -2.09106 \; -2.09771 \; -2.08246
\; -2.05249 \; -2.06245 \; -1.99905 \; -2.03963 \; -2.00074 \; -2.04375
\; -2.04298 \; -2.01691 \; -1.91764 \; -1.92841 \; -1.93772 \; -1.95228
\; -2.00269 \; -1.96969 \; -1.94795 \; -1.92446 \; -1.91869 \; -1.82106
\; -1.85296 \; -1.72664 \; -1.6668 \; -1.61308 \; -1.58321 \; -1.5707
\; -1.52981 \; -1.55767 \; -1.57852 \; -1.58238 \; -1.59374 \; -1.59774
\; -1.58962 \; -1.60524 \; -1.55461 \; -1.55858 \; -1.537 \; -1.53872
\; -1.53156 \; -1.52761 \; -1.54618 \; -1.54061 \; -1.58483 \; -1.57845
\; -1.54053 \; -1.51981 \; -1.56479 \; -1.55674 \; -1.53525 \; -1.53055
\; -1.5391 \; -1.52481 \; -1.50544 \; -1.52385 \; -1.51915 \; -1.52124
\; -1.53787 \; -1.54508 \; -1.53493 \; -1.53045 \; -1.53146 \; -1.53213
\; -1.53748 \; -1.56319 \; -1.63447 \; -1.676 \; -1.70467 \; -1.68279
\; -1.67562 \; -1.73508 \; -1.79857 \; -1.78801 \; -1.79605 \; -1.7996
\; -1.83446 \; -1.80267 \; -1.73674 \; -1.7711 \; -1.81454 \; -1.81027
\; -1.74622 \; -1.79301 \; -1.79688 \; -1.75148 \; -1.75069 \; -1.78617
\; -1.7716 \; -1.70535 \; -1.7853 \; -1.78146 \; -1.64639 \; -1.72639
\; -1.71569 \; -1.66496 \; -1.74411 \; -1.73557 \; -1.65091 \; -1.73151
\; -1.67613 \; -1.66828 \; -1.71049 \; -1.65985 \; -1.65995 \; -1.66393
\; -1.63551 \; -1.61314 \; -1.67249 \; -1.66097 \; -1.63 \; -1.61802
\; -1.59737 \; -1.56079 \; -1.56291 \; -1.5518 \; -1.51557 \; -1.48999
\; -1.55585 \; -1.56665 \; -1.56281 \; -1.56103 \; -1.53117 \; -1.57226
\; -1.57152 \; -1.5433 \; -1.53439 \; -1.55779 \; -1.54788 \; -1.58696
\; -1.59896 \; -1.58639 \; -1.56598 \; -1.58919 \; -1.63871 \; -1.6305
\; -1.66525 \; -1.74223 \; -1.7527 \; -1.69848 \; -1.73436 \; -1.75586
\; -1.71506 \; -1.72977 \; -1.75094 \; -1.74741 \; -1.74195 \; -1.75688
\; -1.75104 \; -1.71761 \; -1.74704 \; -1.74797 \; -1.72417 \; -1.71094
\; -1.73323 \; -1.76565 \; -1.78796 \; -1.79806 \; -1.79942 \; -1.83127
\; -1.82577 \; -1.80033 \; -1.77423 \; -1.76107 \; -1.76347 \; -1.77566
\; -1.78403 \; -1.77555 \; -1.80954 \; -1.81897 \; -1.84656 \; -1.81063
\; -1.83096 \; -1.78708 \; -1.78791 \; -1.75071 \; -1.74721 \; -1.75386
\; -1.76195 \; -1.77863 \; -1.87327 \; -1.93792 \; -1.97868 \; -2.0265
\; -1.99964 \; -1.98202 \; -2.00713 \; -2.01856 \; -2.07231 \; -2.10435
\; -2.03754 \; -1.9601 \; -1.9981 \; -2.04259 \; -1.96952 \; -1.81364
\; -1.91243 \; -1.84629 \; -1.81566 \; -1.80993 \; -1.88757 \; -1.89619
\; -1.92968 \; -1.99599 \; -1.97337 \; -2.00513 \; -1.99824 \; -1.96328
\; -2.08115 \; -1.89843 \; -2.05687 \; -2.01294 \; -1.94185 \; -1.94119
\; -1.86941 \; -1.79699 \; -1.93883 \; -1.95726 \; -1.90351 \; -1.82457
\; -1.90696 \; -1.97185 \; -1.89081 \; -1.77755 \; -1.73937 \; -1.82728
\; -1.85859 \; -1.84129 \; -1.74074 \; -1.74791 \; -1.7423 \; -1.76481
\; -1.79592 \; -1.80021 \; -1.79733 \; -1.80928 \; -1.8208 \; -1.7924
\; -1.85292 \; -1.80054 \; -1.69635 \; -1.7747 \; -1.84196 \; -1.82323
\; -1.85758 \; -1.91732 \; -1.88292 \; -1.84579 \; -1.86945 \; -1.7764
\; -1.87411 \; -1.82053 \; -1.86225 \; -1.81885 \; -1.88523 \; -1.8628
\; -1.87123 \; -1.86689 \; -1.78967 \; -1.71143 \; -1.88288 \; -1.81239
\; -1.75343 \; -1.78461 \; -1.81021 \; -1.71286 \; -1.80454 \; -1.83764
\; -1.86011 \; -1.86129 \; -1.81853 \; -1.7705 \; -1.76026 \; -1.78752
\; -1.84283 \; -1.82208 \; -1.74737 \; -1.76391 \; -1.74653 \; -1.71302
\; -1.7405 \; -1.84108 \; -1.74825 \; -1.78369 \; -1.73103 \; -1.72956
\; -1.7556 \; -1.76477 \; -1.69009 \; -1.67515 \; -1.74949 \; -1.77771
\; -1.72338 \; -1.78377 \; -1.75146 \; -1.75542 \; -1.75279 \; -1.79491
\; -1.7362 \; -1.70464 \; -1.70276 \; -1.71976 \; -1.67977 \; -1.70458
\; -1.70225 \; -1.68126 \; -1.62134 \; -1.6419 \; -1.64794 \; -1.62898
\; -1.62764 \; -1.60826 \; -1.62845 \; -1.6335 \; -1.64275 \; -1.64429
\; -1.62633 \; -1.60551 \; -1.59987 \; -1.61859 \; -1.60965 \; -1.60178
\; -1.59549 \; -1.58385 \; -1.58039 \; -1.6165 \; -1.62328 \; -1.62752
\; -1.6728 \; -1.66811 \; -1.62001 \; -1.60041 \; -1.66216 \; -1.68041
\; -1.68819 \; -1.67994 \; -1.72156 \; -1.67261 \; -1.66124 \; -1.64505
\; -1.68018 \; -1.66516 \; -1.68088 \; -1.66541 \; -1.66318 \; -1.6392
\; -1.64087 \; -1.66487 \; -1.68624 \; -1.71622 \; -1.7322 \; -1.69908
\; -1.6739 \; -1.66027 \; -1.62923 \; -1.62817 \; -1.62006 \; -1.65261
\; -1.6857 \; -1.69449 \; -1.67447 \; -1.70409 \; -1.68965 \; -1.73096
\; -1.72802 \; -1.6788 \; -1.67518 \; -1.66898 \; -1.63373 \; -1.68506
\; -1.69995 \; -1.71357 \; -1.65791 \; -1.66647 \; -1.68 \; -1.64133
\; -1.63187 \; -1.63469 \; -1.57593 \; -1.59519 \; -1.58091 \; -1.60879
\; -1.61006 \; -1.58435 \; -1.5677 \; -1.59626 \; -1.64847 \; -1.60818
\; -1.61749 \; -1.59344 \; -1.62777 \; -1.63314 \; -1.63374 \; -1.63947
\; -1.65617 \; -1.64921 \; -1.6398 \; -1.64103 \; -1.67722 \; -1.67789
\; -1.64064 \; -1.64765 \; -1.62603 \; -1.66175 \; -1.69837 \; -1.67387
\; -1.65799 \; -1.64294 \; -1.66359 \; -1.64549 \; -1.67657 \; -1.67799
\; -1.69681 \; -1.73618 \; -1.71393 \; -1.66393 \; -1.62808 \; -1.62726
\; -1.61945 \; -1.62265 \; -1.65866 \; -1.65676 \; -1.64475 \; -1.63944
\; -1.63295 \; -1.67029 \; -1.69666 \; -1.66272 \; -1.64538 \; -1.65192
\; -1.67377 \; -1.69343 \; -1.70313 \; -1.6663 \; -1.66296 \; -1.68746
\; -1.67521 \; -1.67308 \; -1.67269 \; -1.70314 \; -1.77301 \; -1.776
\; -1.75859 \; -1.7509 \; -1.73122 \; -1.71498 \; -1.70835 \; -1.69386
\; -1.66665 \; -1.65369 \; -1.67441 \; -1.69681 \; -1.71484 \; -1.70488
\; -1.6953 \; -1.69744 \; -1.68897 \; -1.66954 \; -1.65464 \; -1.6673
\; -1.67826 \; -1.64452 \; -1.66801 \; -1.62812 \; -1.61952 \; -1.62609
\; -1.60511 \; -1.58306 \; -1.61113 \; -1.61397 \; -1.67067 \; -1.6295
\; -1.61107 \; -1.62006 \; -1.58704 \; -1.61568 \; -1.62835 \; -1.68362
\; -1.71568 \; -1.67758 \; -1.64524 \; -1.66331 \; -1.65899 \; -1.60352
\; -1.66693 \; -1.62831 \; -1.61224 \; -1.66279 \; -1.66373 \; -1.69934
\; -1.65695 \; -1.62404 \; -1.61607 \; -1.60874 \; -1.58784 \; -1.57575
\; -1.5829 \; -1.59135 \; -1.58498 \; -1.6193 \; -1.61831 \; -1.64678
\; -1.6393 \; -1.62092 \; -1.62659 \; -1.60932 \; -1.62935 \; -1.63832
\; -1.63345 \; -1.61881 \; -1.62048 \; -1.60374 \; -1.58531 \; -1.57786
\; -1.63811 \; -1.67702 \; -1.68292 \; -1.65042 \; -1.63468 \; -1.62579
\; -1.61847 \; -1.5776 \; -1.61833 \; -1.6155 \; -1.64095 \; -1.64453
\; -1.64427 \; -1.62082 \; -1.60665 \; -1.61447 \; -1.62548 \; -1.61573
\; -1.58994 \; -1.60151 \; -1.5841 \; -1.59339 \; -1.61314 \; -1.63106
\; -1.58812 \; -1.59116 \; -1.63081 \; -1.6214 \; -1.60734 \; -1.64113
\; -1.63363 \; -1.62107 \; -1.66106 \; -1.64041 \; -1.64103 \; -1.66793
\; -1.63689 \; -1.63126 \; -1.68217 \; -1.66166 \; -1.68943 \; -1.67762
\; -1.68101 \; -1.68612 \; -1.69059 \; -1.68453 \; -1.68656 \; -1.72176
\; -1.70638 \; -1.69158 \; -1.69289 \; -1.69238 \; -1.65312 \; -1.64844
\; -1.61492 \; -1.61889 \; -1.62389 \; -1.59421 \; -1.58574 \; -1.59358
\; -1.59994 \; -1.62277 \; -1.61432 \; -1.633 \; -1.62741 \; -1.61548
\; -1.63691 \; -1.60125 \; -1.58221 \; -1.61321 \; -1.63773 \; -1.63384
\; -1.64108 \; -1.63327 \; -1.64454 \; -1.60203 \; -1.63123 \; -1.61343
\; -1.67827 \; -1.63621 \; -1.67415 \; -1.6473 \; -1.67103 \; -1.66136
\; -1.61875 \; -1.66192 \; -1.6482 \; -1.64281 \; -1.6371 \; -1.63038
\; -1.61834 \; -1.61851 \; -1.58322 \; -1.58926 \; -1.5966 \; -1.55437
\; -1.55615 \; -1.57262 \; -1.59874 \; -1.60685 \; -1.61763 \; -1.61306
\; -1.59751 \; -1.59411 \; -1.58931 \; -1.57862 \; -1.57266 \; -1.5865
\; -1.61609 \; -1.64065 \; -1.62891 \; -1.62867 \; -1.60764 \; -1.59736
\; -1.609 \; -1.58604 \; -1.59855 \; -1.63524 \; -1.64136 \; -1.65915
\; -1.63762 \; -1.62304 \; -1.64163 \; -1.64104 \; -1.65722 \; -1.64587
\; -1.59081 \; -1.65294 \; -1.61129 \; -1.56393 \; -1.58063 \; -1.56584
\; -1.59154 \; -1.60578 \; -1.58336 \; -1.60088 \; -1.60817 \; -1.63368
\; -1.58272 \; -1.59091 \; -1.56722 \; -1.60213 \; -1.56578 \; -1.60688
\; -1.61375 \; -1.58207 \; -1.60595 \; -1.5819 \; -1.60394 \; -1.63488
\; -1.59019 \; -1.61933 \; -1.63329 \; -1.62303 \; -1.65544 \; -1.63954
\; -1.63776 \; -1.59909 \; -1.63712 \; -1.66878 \; -1.69412 \; -1.70593
\; -1.70634 \; -1.69084 \; -1.65467 \; -1.64037 \; -1.6296 \; -1.62841
\; -1.62398 \; -1.60593 \; -1.58617 \; -1.59156 \; -1.57877 \; -1.5705
\; -1.54091 \; -1.5429 \; -1.55451 \; -1.5716 \; -1.55862 \; -1.54565
\; -1.55961 \; -1.58562 \; -1.56546 \; -1.57761 \; -1.57456 \; -1.59961
\; -1.59627 \; -1.5908 \; -1.61047 \; -1.62867 \; -1.62074 \; -1.61945
\; -1.62718 \; -1.65514 \; -1.6386 \; -1.64869 \; -1.68393 \; -1.6343
\; -1.63529 \; -1.65517 \; -1.68051 \; -1.65108 \; -1.63344 \; -1.62534
\; -1.6359 \; -1.62075 \; -1.63629 \; -1.59374 \; -1.63383 \; -1.61842
\; -1.5 \; -1.5 \; -1.5 \; -1.5 \; -1.5 \; -1.5 \; -1.5 \; -1.5 \;
-1.5 \; -1.5 \; -1.5 \; -1.5 \; -1.5 \; -1.5 \; -1.5 \; \; -1.49985
\; -1.49836 \; -1.49772 \; -1.49672 \; -1.49753 \; -1.49634 \; -1.49561
\; -1.49602 \; -1.50295 \; -1.51255 \; -1.50168 \; -1.48833 \; -1.48271
\; -1.48327 \; -1.48444 \; -1.49585 \; -1.48931 \; -1.49097 \; -1.49327
\; -1.50238 \; -1.50866 \; -1.50721 \; -1.5082 \; -1.49772 \; -1.4876
\; -1.48454 \; -1.49943 \; -1.48937 \; -1.48973 \; -1.49635 \; -1.50559
\; -1.50388 \; -1.48936 \; -1.48478 \; -1.48686 \; -1.49447 \; -1.49181
\; -1.48325 \; -1.483 \; -1.50032 \; -1.50403 \; -1.5072 \; -1.50216
\; -1.48058 \; -1.47258 \; -1.4908 \; -1.49476 \; -1.51183 \; -1.42355
\; -1.46773 \; -1.46504 \; -1.47524 \; -1.45929 \; -1.51381 \; -1.50667
\; -1.4965 \; -1.49342 \; -1.49041 \; -1.49089 \; -1.49194 \; -1.50238
\; -1.49795 \; -1.50471 \; -1.50411 \; -1.47579 \; -1.46675 \; -1.46659
\; -1.47883 \; -1.49034 \; -1.50334 \; -1.50851 \; -1.49848 \; -1.50383
\; -1.4977 \; -1.49222 \; -1.48429 \; -1.47539 \; -1.47829 \; -1.47379
\; -1.46926 \; -1.47859 \; -1.48434 \; -1.47023 \; -1.47702 \; -1.4911
\; -1.51295 \; -1.49964 \; -1.49473 \; -1.48065 \; -1.45283 \; -1.44055
\; -1.47602 \; -1.46895 \; -1.46508 \; -1.48003 \; -1.45129 \; -1.45457
\; -1.43542 \; -1.44211 \; -1.43144 \; -1.41166 \; -1.42848 \; -1.40015
\; -1.35902 \; -1.36976 \; -1.37699 \; -1.39455 \; -1.39878 \; -1.35365
\; -1.36508 \; -1.36325 \; -1.30129 \; -1.2891 \; -1.2902 \; -1.29176
\; -1.28038 \; -1.27943 \; -1.29561 \; -1.28526 \; -1.228 \; -1.23701
\; -1.24923 \; -1.23842 \; -1.23137 \; -1.23818 \; -1.1612 \; -1.16028
\; -1.15047 \; -1.14583 \; -1.15215 \; -1.1769 \; -1.16988 \; -1.16728
\; -1.15569 \; -1.15645 \; -1.18583 \; -1.1823 \; -1.15869 \; -1.12026
\; -1.10397 \; -1.08793 \; -1.06615 \; -1.06042 \; -1.05707 \; -1.03617
\; -1.03755 \; -1.02071 \; -0.991395 \; -0.972137 \; -0.950141 \; -0.93199
\; -0.915552 \; -0.890833 \; -0.926837 \; -0.926024 \; -0.889645 \;
-0.868959 \; -0.875029 \; -0.891396 \; -0.80842 \; -0.802139 \; -0.827058
\; -0.85527 \; -0.783377 \; -0.732912 \; -0.712436 \; -0.710548 \;
-0.718511 \; -0.689388 \; -0.644873 \; -0.622604 \; -0.600565 \; -0.596696
\; -0.605628 \; -0.583747 \; -0.538803 \; -0.542091 \; -0.514003 \;
-0.502787 \; -0.51508 \; -0.540914 \; -0.591421 \; -0.624483 \; -0.615708
\; -0.606795 \; -0.629582 \; -0.655155 \; -0.642662 \; -0.653958 \;
-0.659385 \; -0.677701 \; -0.701374 \; -0.750435 \; -0.759623 \; -0.751063
\; -0.731462 \; -0.707704 \; -0.673487 \; -0.71885 \; -0.785944 \;
-0.757907 \; -0.736844 \; -0.706519 \; -0.664944 \; -0.618835 \; -0.626476
\; -0.62409 \; -0.715981 \; -0.782034 \; -0.783598 \; -0.782812 \;
-0.770175 \; -0.765135 \; -0.77082 \; -0.764962 \; -0.765691 \; -0.819451
\; -0.800224 \; -0.725014 \; -0.694009 \; -0.735242 \; -0.812255 \;
-0.85067 \; -0.934154 \; -0.885577 \; -0.881212 \; -0.742561 \; -0.62364
\; -0.599513 \; -0.703655 \; -0.893504 \; -0.959557 \; -0.982294 \;
-0.960088 \; -0.79564 \; -0.748385 \; -0.816963 \; -0.945046 \; -1.03
\; -0.951616 \; -0.866897 \; -0.785035 \; -0.787863 \; -0.855752 \;
-1.01124 \; -0.997988 \; -0.95058 \; -0.914416 \; -0.98039 \; -1.00932
\; -1.01959 \; -1.03159 \; -1.10157 \; -1.12922 \; -1.14423 \; -1.07372
\; -1.07128 \; -1.06696 \; -1.11794 \; -1.06171 \; -1.02341 \; -1.06512
\; -1.16299 \; -1.01936 \; -0.968457 \; -1.04654 \; -0.960344 \; -0.810182
\; -0.844644 \; -0.9005 \; -0.800962 \; -0.846215 \; -0.82629 \; -0.860999
\; -0.88291 \; -0.81471 \; -0.870722 \; -0.904765 \; -0.821263 \; -0.833422
\; -0.908723 \; -0.914245 \; -1.00282 \; -0.969615 \; -0.949996 \;
-0.925273 \; -0.927789 \; -0.909042 \; -0.958429 \; -1.00052 \; -0.952353
\; -0.978264 \; -0.960434 \; -0.946777 \; -0.918484 \; -0.915364 \;
-0.924781 \; -1.11389 \; -1.121 \; -1.08965 \; -1.01401 \; -0.97797
\; -1.02425 \; -1.04251 \; -1.07945 \; -1.08165 \; -1.17661 \; -1.16385
\; -1.32603 \; -1.31836 \; -1.35347 \; -1.35588 \; -1.39644 \; -1.48819
\; -1.4629 \; -1.44029 \; -1.46002 \; -1.4162 \; -1.40894 \; -1.43547
\; -1.41194 \; -1.44987 \; -1.42487 \; -1.44267 \; -1.44947 \; -1.45603
\; -1.44989 \; -1.4373 \; -1.4473 \; -1.42738 \; -1.44009 \; -1.42657
\; -1.45047 \; -1.45553 \; -1.47236 \; -1.48733 \; -1.50111 \; -1.49614
\; -1.47932 \; -1.47545 \; -1.44477 \; -1.43421 \; -1.48569 \; -1.47304
\; -1.47337 \; -1.49068 \; -1.48658 \; -1.47867 \; -1.46997 \; -1.46086
\; -1.42519 \; -1.37931 \; -1.35506 \; -1.33632 \; -1.29591 \; -1.27568
\; -1.21216 \; -1.17679 \; -1.17939 \; -1.21063 \; -1.21359 \; -1.18296
\; -1.24 \; -1.25956 \; -1.22416 \; -1.19899 \; -1.2195 \; -1.30119
\; -1.2021 \; -1.19081 \; -1.22182 \; -1.23595 \; -1.18803 \; -1.19962
\; -1.29839 \; -1.21337 \; -1.21238 \; -1.33319 \; -1.28734 \; -1.29638
\; -1.36307 \; -1.26508 \; -1.29453 \; -1.34202 \; -1.26255 \; -1.3014
\; -1.32584 \; -1.25072 \; -1.34395 \; -1.33735 \; -1.33857 \; -1.36298
\; -1.40116 \; -1.35164 \; -1.35432 \; -1.39573 \; -1.40938 \; -1.4283
\; -1.45676 \; -1.43035 \; -1.4353 \; -1.46126 \; -1.42992 \; -1.43108
\; -1.45765 \; -1.46788 \; -1.46417 \; -1.47212 \; -1.4513 \; -1.43081
\; -1.44197 \; -1.43778 \; -1.4256 \; -1.42669 \; -1.47085 \; -1.449
\; -1.42379 \; -1.41366 \; -1.38414 \; -1.34683 \; -1.36648 \; -1.32977
\; -1.27739 \; -1.26697 \; -1.27923 \; -1.27677 \; -1.23106 \; -1.27158
\; -1.26437 \; -1.24 \; -1.27911 \; -1.25665 \; -1.20671 \; -1.24972
\; -1.25691 \; -1.27871 \; -1.2339 \; -1.25642 \; -1.25357 \; -1.22953
\; -1.23626 \; -1.24571 \; -1.25745 \; -1.2432 \; -1.21761 \; -1.21867
\; -1.19834 \; -1.20031 \; -1.19639 \; -1.17287 \; -1.17161 \; -1.19206
\; -1.20816 \; -1.21156 \; -1.2089 \; -1.21437 \; -1.23421 \; -1.20791
\; -1.19379 \; -1.19135 \; -1.20068 \; -1.21921 \; -1.20327 \; -1.2282
\; -1.206 \; -1.15917 \; -1.05639 \; -1.05882 \; -0.9732 \; -0.991338
\; -0.982381 \; -1.00324 \; -0.953433 \; -0.927753 \; -0.903605 \;
-0.937556 \; -1.0326 \; -1.00695 \; -0.952831 \; -1.00342 \; -1.14623
\; -1.06018 \; -1.1273 \; -1.23732 \; -1.19041 \; -1.07967 \; -1.06731
\; -1.02234 \; -1.0056 \; -1.02627 \; -1.01801 \; -1.03142 \; -1.03471
\; -0.954212 \; -1.09977 \; -0.968398 \; -0.950024 \; -1.01654 \; -0.984796
\; -1.09141 \; -1.22099 \; -1.09424 \; -1.08156 \; -1.13138 \; -1.21224
\; -1.12354 \; -1.04268 \; -1.18029 \; -1.20082 \; -1.19474 \; -1.14592
\; -1.12607 \; -1.13998 \; -1.25641 \; -1.27006 \; -1.25412 \; -1.21624
\; -1.20274 \; -1.20003 \; -1.2143 \; -1.19722 \; -1.21437 \; -1.21131
\; -1.14244 \; -1.16254 \; -1.27137 \; -1.19649 \; -1.11992 \; -1.18628
\; -1.18051 \; -1.14699 \; -1.16317 \; -1.1972 \; -1.1718 \; -1.18375
\; -1.06 \; -1.06987 \; -1.07965 \; -1.11364 \; -1.12769 \; -1.14546
\; -1.16435 \; -1.19752 \; -1.20744 \; -1.21695 \; -1.10194 \; -1.23009
\; -1.22288 \; -1.16621 \; -1.19047 \; -1.27243 \; -1.22819 \; -1.19034
\; -1.20132 \; -1.1742 \; -1.17855 \; -1.21022 \; -1.2139 \; -1.17997
\; -1.1818 \; -1.242 \; -1.22971 \; -1.23747 \; -1.18158 \; -1.25515
\; -1.22045 \; -1.16764 \; -1.21556 \; -1.29149 \; -1.30678 \; -1.29211
\; -1.27532 \; -1.1865 \; -1.23863 \; -1.26494 \; -1.257 \; -1.23693
\; -1.24755 \; -1.23212 \; -1.26174 \; -1.2675 \; -1.31146 \; -1.22427
\; -1.22592 \; -1.23615 \; -1.28326 \; -1.25488 \; -1.32021 \; -1.33012
\; -1.31328 \; -1.35944 \; -1.41171 \; -1.37066 \; -1.35058 \; -1.33163
\; -1.33294 \; -1.36568 \; -1.41161 \; -1.39198 \; -1.38306 \; -1.39046
\; -1.37549 \; -1.37074 \; -1.35221 \; -1.36965 \; -1.38187 \; -1.4252
\; -1.4385 \; -1.44671 \; -1.43253 \; -1.37777 \; -1.3821 \; -1.36574
\; -1.32265 \; -1.33444 \; -1.34101 \; -1.35769 \; -1.3441 \; -1.3102
\; -1.31287 \; -1.33599 \; -1.33342 \; -1.34659 \; -1.34739 \; -1.35228
\; -1.31087 \; -1.27666 \; -1.3164 \; -1.33405 \; -1.33363 \; -1.33744
\; -1.34028 \; -1.31892 \; -1.30367 \; -1.29918 \; -1.31833 \; -1.33699
\; -1.34011 \; -1.36005 \; -1.38349 \; -1.39012 \; -1.32686 \; -1.29189
\; -1.2578 \; -1.32506 \; -1.33024 \; -1.31124 \; -1.30123 \; -1.31588
\; -1.29661 \; -1.34185 \; -1.38819 \; -1.32311 \; -1.297 \; -1.28815
\; -1.26448 \; -1.29084 \; -1.34527 \; -1.34111 \; -1.29952 \; -1.38448
\; -1.39794 \; -1.37914 \; -1.39189 \; -1.40878 \; -1.44826 \; -1.4313
\; -1.37749 \; -1.40277 \; -1.41098 \; -1.3902 \; -1.33152 \; -1.36952
\; -1.37922 \; -1.40846 \; -1.36871 \; -1.35999 \; -1.40437 \; -1.383
\; -1.37313 \; -1.35367 \; -1.31728 \; -1.3059 \; -1.30108 \; -1.3616
\; -1.37879 \; -1.39353 \; -1.37427 \; -1.35098 \; -1.33172 \; -1.30028
\; -1.24567 \; -1.29358 \; -1.35217 \; -1.32736 \; -1.32491 \; -1.32801
\; -1.31241 \; -1.33732 \; -1.35867 \; -1.33562 \; -1.35639 \; -1.35161
\; -1.36363 \; -1.34185 \; -1.35336 \; -1.35507 \; -1.32947 \; -1.35106
\; -1.38166 \; -1.33791 \; -1.36886 \; -1.32667 \; -1.34993 \; -1.34885
\; -1.3445 \; -1.34892 \; -1.33173 \; -1.30245 \; -1.26712 \; -1.29362
\; -1.29936 \; -1.27045 \; -1.2613 \; -1.27895 \; -1.27665 \; -1.30391
\; -1.30939 \; -1.30637 \; -1.30255 \; -1.27982 \; -1.27417 \; -1.27704
\; -1.26143 \; -1.31436 \; -1.35066 \; -1.32644 \; -1.33473 \; -1.30473
\; -1.31816 \; -1.29921 \; -1.30067 \; -1.31983 \; -1.33712 \; -1.31409
\; -1.31389 \; -1.36535 \; -1.34361 \; -1.38056 \; -1.37377 \; -1.37869
\; -1.40864 \; -1.40269 \; -1.40739 \; -1.40244 \; -1.34241 \; -1.35113
\; -1.38297 \; -1.35134 \; -1.37255 \; -1.36027 \; -1.37882 \; -1.36834
\; -1.34045 \; -1.37086 \; -1.35723 \; -1.30487 \; -1.28843 \; -1.32181
\; -1.30107 \; -1.34093 \; -1.36083 \; -1.37496 \; -1.37911 \; -1.36755
\; -1.37315 \; -1.38179 \; -1.38655 \; -1.3839 \; -1.41903 \; -1.38503
\; -1.38856 \; -1.40052 \; -1.41773 \; -1.38634 \; -1.36612 \; -1.34711
\; -1.35351 \; -1.35912 \; -1.38853 \; -1.36496 \; -1.35837 \; -1.35581
\; -1.4037 \; -1.39489 \; -1.37854 \; -1.36231 \; -1.37628 \; -1.35609
\; -1.34847 \; -1.35966 \; -1.38895 \; -1.40055 \; -1.41092 \; -1.36354
\; -1.34847 \; -1.39315 \; -1.37231 \; -1.35904 \; -1.34785 \; -1.34948
\; -1.37747 \; -1.36382 \; -1.39686 \; -1.38615 \; -1.38355 \; -1.41196
\; -1.38832 \; -1.37813 \; -1.37161 \; -1.39372 \; -1.39477 \; -1.40223
\; -1.41762 \; -1.4321 \; -1.3783 \; -1.37773 \; -1.33474 \; -1.35524
\; -1.34933 \; -1.34488 \; -1.3819 \; -1.37214 \; -1.34332 \; -1.36819
\; -1.35733 \; -1.3266 \; -1.32466 \; -1.32265 \; -1.32327 \; -1.3324
\; -1.31941 \; -1.32304 \; -1.26741 \; -1.24552 \; -1.2979 \; -1.29351
\; -1.34392 \; -1.32891 \; -1.31545 \; -1.33772 \; -1.33509 \; -1.36783
\; -1.3646 \; -1.3963 \; -1.37737 \; -1.37951 \; -1.35652 \; -1.38571
\; -1.39843 \; -1.38285 \; -1.40012 \; -1.41984 \; -1.39162 \; -1.36248
\; -1.35944 \; -1.34063 \; -1.34148 \; -1.35823 \; -1.39844 \; -1.38818
\; -1.34907 \; -1.36823 \; -1.36787 \; -1.33093 \; -1.36066 \; -1.34687
\; -1.34406 \; -1.34832 \; -1.36598 \; -1.35481 \; -1.36483 \; -1.34083
\; -1.3313 \; -1.32882 \; -1.31503 \; -1.35123 \; -1.36962 \; -1.37613
\; -1.38641 \; -1.40841 \; -1.38796 \; -1.41622 \; -1.39916 \; -1.40216
\; -1.38922 \; -1.40871 \; -1.41644 \; -1.42227 \; -1.42349 \; -1.42826
\; -1.41131 \; -1.40058 \; -1.39497 \; -1.38376 \; -1.37632 \; -1.38922
\; -1.41348 \; -1.42095 \; -1.39344 \; -1.36361 \; -1.39949 \; -1.40947
\; -1.39498 \; -1.39588 \; -1.38463 \; -1.3768 \; -1.34591 \; -1.33752
\; -1.34379 \; -1.37133 \; -1.36908 \; -1.3489 \; -1.34899 \; -1.37866
\; -1.40814 \; -1.3839 \; -1.40739 \; -1.41668 \; -1.40613 \; -1.42945
\; -1.43178 \; -1.40978 \; -1.42965 \; -1.38984 \; -1.38299 \; -1.37868
\; -1.42318 \; -1.39231 \; -1.43102 \; -1.40394 \; -1.41611 \; -1.3927
\; -1.39818 \; -1.41688 \; -1.40439 \; -1.37619 \; -1.36098 \; -1.36682
\; -1.3854 \; -1.37929 \; -1.35999 \; -1.38283 \; -1.38926 \; -1.38354
\; -1.39189 \; -1.36917 \; -1.33154 \; -1.32361 \; -1.34081 \; -1.32304
\; -1.30353 \; -1.29102 \; -1.31671 \; -1.34814 \; -1.36211 \; -1.37647
\; -1.38541 \; -1.41374 \; -1.43468 \; -1.44943 \; -1.43435 \; -1.4414
\; -1.43196 \; -1.43418 \; -1.43023 \; -1.44082 \; -1.40943 \; -1.45619
\; -1.43132 \; -1.46688 \; -1.44832 \; -1.43191 \; -1.39171 \; -1.39395
\; -1.37092 \; -1.38557 \; -1.40506 \; -1.38754 \; -1.37675 \; -1.3613
\; -1.39285 \; -1.37233 \; -1.3802 \; -1.3664 \; -1.34759 \; -1.33184
\; -1.32971 \; -1.35416 \; -1.37473 \; -1.34501 \; -1.33976 \; -1.33979
\; -1.33313 \; -1.34286 \; -1.35788 \; -1.40564 \; -1.4239 \; -1.42212
\; -1.5 \; -1.5 \; -1.5 \; -1.5 \; -1.5 \; -1.5 \; -1.5 \; -1.5 \;
-1.5 \; -1.5 \; -1.5 \; -1.5 \; -1.5 \; -1.5 \; -1.5 \; \;;
#X coords 0 -1 1024 1 180 82 1;
#X restore 1 1 pd \$0-graph;
#X coords 0 -1 1024 1 180 82 1;
#X restore 24 45 pd \$0-graph-subpatch;
#N canvas 148 124 1226 748 nice_waveform 0;
#X obj 505 170 f \$0;
#X msg 505 118 bang;
#X obj 505 141 t b b;
#X obj 519 24 loadbang;
#X msg 664 219 \; pd-\$1-graph clear;
#X msg 638 257 traverse pd-\$1-graph \, bang;
#X obj 638 282 pointer;
#N canvas 722 164 680 479 \$0-scope-template 0;
#X obj 41 167 outlet;
#X obj 104 92 filledpolygon c1 c2 2 x y x1 y x1 y1 x y1 x y;
#X obj 40 23 struct \$0-scope float x float y float x1 float y1 float
c1 float c2 float c3 float c4 array vector-min \$0-scope-element array
vector-max \$0-scope-element float curx, f 100;
#X obj 171 247 plot -e 0 vector-min c3 1 y;
#X obj 169 271 plot -e 0 vector-max c3 1 y;
#X connect 2 0 0 0;
#X restore 107 340 pd \$0-scope-template;
#N canvas 478 253 450 300 \$0-scope-element 0;
#X obj 61 57 struct \$0-scope-element float y;
#X restore 107 361 pd \$0-scope-element;
#X obj 280 590 set \$0-scope-element y;
#X obj 280 565 - 1.5;
#X obj 505 191 t b f f;
#X text 131 424 number of plot elements = array size;
#X text 432 316 frame size and colours;
#X obj 91 712 s pd-\$0-graph;
#X msg 91 692 coords 0 -1 \$1 1 \$2 \$3 2;
#X msg 360 423 1024;
#X obj 840 335 float;
#X msg 859 237 0;
#X obj 840 303 until;
#X obj 931 336 / 1024;
#X obj 885 335 + 1;
#X obj 765 461 *;
#X msg 840 262 1024;
#X obj 318 657 set \$0-scope-element y;
#X obj 318 632 - 1.5;
#X obj 792 405 s \$0-index;
#X obj 792 381 int;
#X obj 409 539 r \$0-index;
#X obj 447 606 r \$0-index;
#X msg 361 473 1024;
#X obj 844 445 t f f f;
#X obj 447 631 element \$0-scope vector-min;
#X obj 409 562 element \$0-scope vector-max;
#X obj 361 501 setsize \$0-scope vector-min;
#X obj 360 451 setsize \$0-scope vector-max;
#X obj 765 351 t f f;
#X text 977 337 file size divided by array size;
#X obj 314 705 vsl 10 100 0 200 0 0 graph-height empty empty 0 -9 0
10 #feffc6 #ff0400 #000000 0 0;
#X obj 356 735 hsl 128 10 0 1000 0 0 graph-width empty scale-x 4 4
0 10 #feffc6 #ff0400 #000000 0 0;
#X msg 91 671 1024 \$1 \$2;
#X obj 91 652 pack;
#X obj 91 568 r graph-width;
#X obj 178 567 r graph-height;
#X obj 178 636 t b f;
#X obj 178 616 -;
#X msg 178 593 200 \$1;
#X text 314 714 scale-y, f 1;
#X obj 1291 270 samplerate~;
#X obj 1254 301 /;
#X obj 1231 254 t f b;
#X floatatom 1254 325 0 0 0 0 seconds - - 0;
#X floatatom 1254 398 0 0 0 0 display_width/seconds - - 0;
#X obj 1254 371 /;
#X obj 1254 423 / 20;
#X floatatom 1230 226 15 0 0 1 <=_wave_file_size - - 0;
#X obj 1372 340 s \$0-seconds;
#X msg 1254 349 1024 \$1;
#X obj 1257 595 f;
#X obj 1257 646 s \$0-cursor;
#X obj 1199 559 metro 50;
#X obj 1199 470 r \$0-play;
#X floatatom 1272 561 0 0 0 0 - - - 0;
#X obj 1272 531 bng 15 250 50 0 empty \$0-eof empty 17 7 0 10 #fcfcfc
#000000 #000000;
#X obj 840 209 t f b f b f;
#X obj 435 394 t b b p p p p p;
#X obj 435 334 append \$0-scope x y x1 y1 c1 c2 c3 c4 curx;
#X obj 1272 505 r \$0-repeat;
#X obj 1199 534 tgl 15 0 empty empty empty 17 7 0 10 #fcfcfc #000000
#000000 0 1;
#X obj 1199 503 t f b;
#X obj 1297 594 + 1;
#X obj 1257 620 * 1;
#X text 1235 145 Get the duration of the wave file;
#X text 1287 419 divide by 20 for a metro speed of 50ms (1000/50=20)
, f 27;
#X text 217 502 set plot elements < 0;
#X text 216 451 set plot elements > 0;
#X obj 91 731 s pd-\$0-graph-subpatch;
#X obj 1208 179 r \$1-samplelength;
#X obj 765 499 array max \$1-poly_grain-L;
#X obj 765 521 array min \$1-poly_grain-R;
#X obj 838 127 r \$1-samplelength;
#X obj 820 163 f;
#X obj 803 106 r \$1-visual;
#X obj 767 101 bng 15 250 50 0 empty empty empty 17 7 0 10 #fcfcfc
#000000 #000000;
#X msg 435 298 0 0.5 1024 -1.5 999 999 900 990 452;
#X msg 67 594 180;
#X text 92 83 this was not made by Yann! made by Balwyn on the Pure
Data forums.;
#X connect 0 0 11 0;
#X connect 1 0 2 0;
#X connect 2 0 0 0;
#X connect 3 0 1 0;
#X connect 3 0 23 0;
#X connect 5 0 6 0;
#X connect 6 0 66 9;
#X connect 10 0 9 0;
#X connect 11 0 84 0;
#X connect 11 1 5 0;
#X connect 11 2 4 0;
#X connect 15 0 14 0;
#X connect 15 0 76 0;
#X connect 16 0 35 0;
#X connect 17 0 21 0;
#X connect 17 0 36 0;
#X connect 18 0 17 1;
#X connect 19 0 17 0;
#X connect 20 0 31 0;
#X connect 21 0 17 1;
#X connect 22 0 78 0;
#X connect 22 0 79 0;
#X connect 23 0 19 0;
#X connect 25 0 24 0;
#X connect 27 0 26 0;
#X connect 28 0 33 0;
#X connect 29 0 32 0;
#X connect 30 0 34 0;
#X connect 31 0 22 1;
#X connect 31 1 78 1;
#X connect 31 2 79 1;
#X connect 32 0 24 1;
#X connect 33 0 9 1;
#X connect 36 0 22 0;
#X connect 36 1 27 0;
#X connect 40 0 15 0;
#X connect 41 0 40 0;
#X connect 42 0 41 0;
#X connect 43 0 46 0;
#X connect 44 0 41 0;
#X connect 44 1 41 1;
#X connect 45 0 44 0;
#X connect 46 0 45 0;
#X connect 48 0 49 1;
#X connect 49 0 51 0;
#X connect 50 0 49 0;
#X connect 50 1 48 0;
#X connect 51 0 57 0;
#X connect 51 0 56 0;
#X connect 52 0 54 0;
#X connect 53 0 52 0;
#X connect 54 0 71 1;
#X connect 55 0 50 0;
#X connect 57 0 53 0;
#X connect 58 0 70 0;
#X connect 58 0 71 0;
#X connect 60 0 58 0;
#X connect 61 0 69 0;
#X connect 62 0 58 1;
#X connect 63 0 62 0;
#X connect 64 0 23 0;
#X connect 64 1 18 0;
#X connect 64 2 20 0;
#X connect 64 3 1 0;
#X connect 65 0 16 0;
#X connect 65 1 30 0;
#X connect 65 2 35 1;
#X connect 65 3 34 1;
#X connect 65 4 33 1;
#X connect 65 5 32 1;
#X connect 66 0 65 0;
#X connect 67 0 63 0;
#X connect 68 0 60 0;
#X connect 69 0 68 0;
#X connect 69 1 63 0;
#X connect 70 0 58 1;
#X connect 71 0 59 0;
#X connect 77 0 55 0;
#X connect 78 0 10 0;
#X connect 79 0 25 0;
#X connect 80 0 81 1;
#X connect 81 0 64 0;
#X connect 82 0 81 0;
#X connect 83 0 81 0;
#X connect 84 0 66 0;
#X connect 85 0 41 0;
#X restore 405 373 pd nice_waveform;
#X obj 201 560 cnv 15 185 155 empty empty empty 20 12 0 14 #000000
#404040 0;
#N canvas 0 22 450 278 (subpatch) 0;
#X array \$1-poly_grain-R 86954 float 2;
#X coords 0 1 86954 -1 180 70 2 0 0;
#X restore 203 641 graph;
#N canvas 878 361 450 278 (subpatch) 0;
#X array \$1-poly_grain-L 86954 float 2;
#X coords 0 1 86954 -1 180 70 2 0 0;
#X restore 203 571 graph;
#X obj 258 44 tgl 15 1 \$1-recordLoop \$1-recordLoop_rcv liveGrains
16 8 1 10 #ffc7c6 #000000 #000000 0 1;
#X connect 37 0 39 0;
#X connect 41 0 37 0;
#X coords 0 -1 1 1 350 500 1 0 0;
