#N struct 1004-scope float x float y float x1 float y1 float c1 float
c2 float c3 float c4 array vector-min 1004-scope-element array vector-max
1004-scope-element float curx;
#N struct 1004-scope-element float y;
#N canvas 350 141 972 691 10;
#X obj 28 179 hsl 175 15 0 1 0 0 \$1-sample_offset \$1-sample_offset_rcv
sample\\\ offset -2 -4 1 10 #fffba5 #404040 #000000 0 1;
#X obj 225 10 tgl 30 1 \$1-on_off \$1-on_off_rcv on/off 32 26 0 10
#9bc99d #000000 #000000 1 1;
#X obj 225 44 tgl 30 1 \$1-record \$1-record_rcv record 32 26 1 10
#ffc7c6 #000000 #000000 0 1;
#X obj 12 526 bng 15 250 50 0 midi-properties midi-properties_rcv midi-properties
17 7 0 10 #fcfcfc #000000 #000000;
#X obj 12 508 bng 15 250 50 0 audio-properties audio-properties_rcv
audio-properties 17 7 0 10 #fcfcfc #000000 #000000;
#X obj 258 10 bng 15 250 50 0 \$1-play_one_grain \$1-play_one_grain_rcv
play\\\ one 17 7 1 10 #9bc99d #000000 #000000;
#X text 31 760 by yann seznec // yannseznec.com;
#X obj 226 212 cnv 15 95 100 empty empty autoplay 5 12 1 14 #e0e0e0
#404040 0;
#X obj 232 287 hsl 80 15 0 1 0 1 \$1-autoplay_speed \$1-autoplay_speed_rcv
speed -2 -4 1 10 #fcfcfc #000000 #000000 1000 1;
#X obj 230 261 tgl 12 1 \$1-freeze \$1-freeze_rcv freeze 17 7 1 10
#fcfcfc #000000 #000000 0 1;
#X obj 293 216 tgl 20 1 \$1-autoplay_on_off \$1-autoplay_on_off_rcv
on/off -2 25 1 10 #9bc99d #000000 #000000 0 1;
#X obj 230 242 tgl 12 1 \$1-autoplay_reverse \$1-autoplay_reverse_rcv
reverse 17 7 1 10 #fcfcfc #000000 #000000 0 1;
#X obj 226 108 cnv 15 95 100 empty empty input 5 12 1 14 #e0e0e0 #404040
0;
#X obj 230 184 tgl 15 0 \$1-input_monitor \$1-input_monitor_rcv monitor
17 7 1 10 #fcfcfc #000000 #000000 0 1;
#X obj 230 133 vradio 15 1 1 3 \$1-stereoms \$1-stereoms_rcv empty
0 -8 0 10 #fcfcfc #000000 #000000 2;
#X obj 248 140 cnv 15 20 10 empty empty stereo 0 0 1 10 #dfdfdf #404040
0;
#X obj 247 156 cnv 15 20 10 empty empty mid/side 0 0 1 10 #dfdfdf #404040
0;
#X obj 247 170 cnv 15 20 10 empty empty mono 0 0 1 10 #dfdfdf #404040
0;
#X obj 226 316 cnv 15 95 130 empty empty output 5 12 1 14 #e0e0e0 #404040
0;
#X obj 235 402 hsl 30 10 0 1 0 1 \$1-global_pan \$1-global_pan_rcv
empty -2 -8 1 10 #fcfcfc #000000 #000000 1500 1;
#X obj 232 339 vsl 35 60 0.01 1.4 1 1 \$1-volume \$1-volume_rcv empty
-6 -9 1 10 #fcfcfc #000000 #000000 5000 1;
#X obj 287 327 vu 8 80 \$1-vu-L empty 20 10 1 24 #404040 #000000 0
0;
#X obj 299 327 vu 8 80 \$1-vu-R empty 20 10 1 24 #404040 #000000 0
0;
#X obj 25 216 cnv 15 180 250 empty empty empty 20 12 0 14 #194b19 #404040
0;
#X obj 234 425 hsl 75 15 0 1 0 1 \$1-random_panning \$1-random_panning_rcv
panning\\\ random -2 -4 1 10 #ffffff #000000 #000000 5400 1;
#X obj 42 240 hsl 128 15 0 1 0 1 \$1-offset_random \$1-offset_random_rcv
offset\\\ random -2 -4 1 10 #fffba5 #000000 #ffffff 200 1;
#X obj 42 305 hsl 128 15 0 1 0 1 \$1-grain_pitch \$1-grain_pitch_rcv
pitch -2 -4 1 10 #9bc9dd #ffffff #ffffff 3175 1;
#X obj 40 273 tgl 15 1 \$1-reverse \$1-reverse_rcv reverse 17 7 1 10
#9bc9dd #000000 #ffffff 0 1;
#X obj 94 273 tgl 15 1 \$1-reverse_random \$1-reverse_random_rcv reverse\\\ random
17 7 1 10 #9bc9dd #000000 #ffffff 0 1;
#X obj 173 305 bng 15 250 50 0 \$1-reset_pitch \$1-reset_pitch_rcv
empty 17 7 1 10 #9bc9dd #000000 #000000;
#X obj 43 336 hsl 128 15 0 1 0 1 \$1-random_pitch \$1-random_pitch_rcv
pitch\\\ random -2 -4 1 10 #9bc9dd #ffffff #ffffff 0 1;
#X obj 43 371 hsl 128 15 0.001 1 0 1 \$1-grain_size \$1-grain_size_rcv
grain\\\ size -2 -4 1 10 #eab8fe #ffffff #ffffff 2500 1;
#X obj 43 400 hsl 128 15 0.002 1 0 1 \$1-grain_density \$1-grain_density_rcv
grain\\\ density -2 -4 1 10 #eab8fe #ffffff #ffffff 900 1;
#X obj 43 429 hsl 128 15 0 1 0 1 \$1-grainplay_chance \$1-grainplay_chance_rcv
grainplay\\\ chance -2 -4 1 10 #eab8fe #ffffff #ffffff 12700 1;
#X obj 292 121 vu 8 80 \$1-input_vu-L empty 20 10 1 24 #404040 #000000
0 0;
#X obj 304 121 vu 8 80 \$1-input_vu-R empty 20 10 1 24 #404040 #000000
0 0;
#X obj 12 545 ys.granular_brain \$1;
#X msg 368 476 vis 1;
#N canvas 441 25 447 847 \$1-help 0;
#X obj 20 24 cnv 15 400 800 empty empty ys.granular 20 12 1 25 #f1f4f4
#404040 0;
#X text 35 222 most parameters can be accessed through send/receive
objects. to control a parameter the best option is to use the "receive"
setting for the GUI slider (or toggle or bang).;
#X obj 216 306 loadbang;
#X obj 216 327 i \$1;
#X floatatom 216 348 5 0 0 1 this\ is\ the\ identifier - - 0;
#X obj 39 347 send \$1-sample_offset_rcv;
#X obj 42 323 hsl 128 15 0 1 0 0 empty empty empty -2 -8 0 10 #fcfcfc
#000000 #000000 0 1;
#X text 33 305 try me!;
#X text 33 405 nearly all of the parameters are float values between
0-1.;
#X text 33 427 for "pitch" \, the pitch is unchanged at a value of
0.25.;
#X msg 34 564 \; \$1-grain_pitch_rcv 0.25 \; \$1-grain_size_rcv 0.5
\; \$1-sample_offset_rcv 0.5 \; \$1-offset_random_rcv 0.02 \; \$1-random_pitch_rcv
0 \; \$1-random_panning_rcv 0.6 \; \$1-global_pan_rcv 0.5 \; \$1-autoplay_speed_rcv
0.25 \; \$1-autoplay_reverse_rcv 0 \; \$1-freeze_rcv 0 \; \$1-autoplay_on_off_rcv
0 \; \$1-on_off_rcv 1 \; \$1-volume_rcv 1 \; \$1-num_channels_rcv 2
\; \$1-reverse_rcv 0 \; \$1-reverse_random_rcv 0 \; \$1-grain_density_rcv
0.1 \; \$1-grainplay_chance_rcv 1 \;;
#X obj 34 510 i \$1;
#X floatatom 34 531 5 0 0 1 this\ is\ the\ identifier - - 0;
#X obj 34 482 bng 15 250 50 0 empty empty load\\\ a\\\ set\\\ of\\\ values
17 7 0 10 #fcfcfc #000000 #000000;
#X text 33 449 you can change a bunch of values at once using a message
box like this...like a really clunky preset manager:;
#X text 209 609 a few that aren't listed there:;
#X msg 220 751 \; pd dsp 1;
#X obj 220 726 loadbang;
#X text 210 635 \$1-choose_sound_rcv;
#X text 34 785 the send names for all of the GUI objects are the same
as above \, without the "_rcv" suffix.;
#X text 210 651 \$1-reset_pitch_rcv;
#X text 334 636 (bang);
#X text 333 652 (bang);
#X text 209 669 \$1-record_rcv (toggle);
#X text 208 686 \$1-play_one_grain_rcv;
#X text 341 687 (bang);
#X text 40 548 see this list for the accessible parameter names.;
#X obj 40 65 cnv 15 1 1 empty empty a\\\ pretty\\\ standard\\\ granular\\\ audio\\\ exploration\\\ system
0 0 0 12 #f1f3f3 #404040 0;
#X obj 39 88 cnv 15 1 1 empty empty yannseznec.com\\\ yann@yannseznec.com
0 0 0 12 #f1f3f3 #404040 0;
#X text 35 106 to use \, create a top-level patch and add the ys.granular_main.pd
patch as an object \, with an integer argument that acts as an identifier.
;
#X text 35 181 you can have multiple instances of ys.granular_main.pd
running \, so long as they each have different identifier numbers.
;
#X text 34 271 these are accessed with the identifier number followed
by the name. from within the patch (like right now) \, use \$1.;
#X text 34 372 from outside the patch \, the equivalent send argument
would be "1-sample_offset_rcv".;
#X text 35 157 thanks to Balwyn on the Pd forums for the nice waveform!
;
#X connect 2 0 3 0;
#X connect 3 0 4 0;
#X connect 6 0 5 0;
#X connect 11 0 12 0;
#X connect 12 0 10 0;
#X connect 13 0 11 0;
#X connect 17 0 16 0;
#X coords 0 847 1 846 85 10 0;
#X restore 13 566 pd \$1-help;
#X f 15;
#X obj 368 497 s pd-\$1-help;
#X obj 230 451 bng 15 250 50 0 \$1-help empty help 17 7 0 10 #fcfcfc
#000000 #000000;
#X obj 370 457 r \$1-help;
#X obj 309 81 bng 10 250 50 0 \$1-choose_sound \$1-choose_sound_rcv
choose\\\ sound -66 5 1 10 #c7c6ff #000000 #000000;
#X obj 309 95 bng 10 250 50 0 \$1-clear \$1-clear_rcv clear\\\ array
-53 5 1 10 #c7c6ff #000000 #2f004d;
#N canvas 878 406 772 493 \$0-graph-subpatch 0;
#N canvas 910 69 450 707 \$0-graph 0;
#X scalar 1004-scope 0 0.5 1024 -1.5 999 999 900 990 452 \; -1.5 \;
-1.5066 \; -1.50706 \; -1.50695 \; -1.50745 \; -1.51446 \; -1.53048
\; -1.52277 \; -1.51565 \; -1.51935 \; -1.5353 \; -1.5623 \; -1.54647
\; -1.51696 \; -1.52516 \; -1.56727 \; -1.60404 \; -1.56282 \; -1.52774
\; -1.5366 \; -1.57815 \; -1.61693 \; -1.56322 \; -1.54707 \; -1.55006
\; -1.59298 \; -1.63505 \; -1.53916 \; -1.564 \; -1.56296 \; -1.60344
\; -1.63593 \; -1.47633 \; -1.58108 \; -1.56058 \; -1.62231 \; -1.64636
\; -1.4398 \; -1.57034 \; -1.52923 \; -1.63623 \; -1.63553 \; -1.5034
\; -1.57259 \; -1.50339 \; -1.62934 \; -1.62178 \; -1.54619 \; -1.56673
\; -1.54324 \; -1.61488 \; -1.56918 \; -1.55284 \; -1.55477 \; -1.58095
\; -1.61675 \; -1.47341 \; -1.55867 \; -1.54583 \; -1.60757 \; -1.61523
\; -1.4646 \; -1.5513 \; -1.52445 \; -1.61044 \; -1.5928 \; -1.52262
\; -1.55642 \; -1.5665 \; -1.60416 \; -1.50514 \; -1.54321 \; -1.54693
\; -1.60034 \; -1.60129 \; -1.44279 \; -1.54802 \; -1.54545 \; -1.59406
\; -1.56542 \; -1.49973 \; -1.55228 \; -1.57141 \; -1.58426 \; -1.44452
\; -1.52616 \; -1.58033 \; -1.60155 \; -1.57952 \; -1.45936 \; -1.53699
\; -1.60775 \; -1.6173 \; -1.44686 \; -1.51173 \; -1.58711 \; -1.64144
\; -1.60922 \; -1.44668 \; -1.52791 \; -1.6511 \; -1.67558 \; -1.43418
\; -1.48148 \; -1.60631 \; -1.68295 \; -1.58743 \; -1.44493 \; -1.54335
\; -1.70563 \; -1.68851 \; -1.41461 \; -1.47512 \; -1.66696 \; -1.70616
\; -1.50014 \; -1.44047 \; -1.59213 \; -1.69531 \; -1.6052 \; -1.40896
\; -1.5497 \; -1.66986 \; -1.65102 \; -1.47032 \; -1.48162 \; -1.64872
\; -1.65206 \; -1.51293 \; -1.44984 \; -1.61213 \; -1.60715 \; -1.55291
\; -1.46288 \; -1.55256 \; -1.55868 \; -1.55939 \; -1.51325 \; -1.47765
\; -1.56875 \; -1.57842 \; -1.56672 \; -1.43308 \; -1.62004 \; -1.65212
\; -1.51862 \; -1.54071 \; -1.55406 \; -1.5329 \; -1.58916 \; -1.58509
\; -1.54767 \; -1.6168 \; -1.50372 \; -1.61453 \; -1.6085 \; -1.53958
\; -1.63338 \; -1.51459 \; -1.62296 \; -1.60134 \; -1.57511 \; -1.65991
\; -1.49804 \; -1.67047 \; -1.59818 \; -1.67414 \; -1.68192 \; -1.5327
\; -1.64404 \; -1.47938 \; -1.7057 \; -1.64608 \; -1.61405 \; -1.6026
\; -1.58727 \; -1.61974 \; -1.56612 \; -1.55229 \; -1.64853 \; -1.62055
\; -1.69548 \; -1.65847 \; -1.71521 \; -1.70445 \; -1.73033 \; -1.60333
\; -1.79024 \; -1.83692 \; -2.02565 \; -2.075 \; -1.9203 \; -2.18995
\; -2.14751 \; -2.3512 \; -2.35211 \; -1.88704 \; -2.47869 \; -2.5
\; -1.94427 \; -2.42335 \; -2.41494 \; -1.84709 \; -2.37 \; -2.24741
\; -1.91541 \; -2.15106 \; -1.94584 \; -1.92103 \; -1.60499 \; -1.68424
\; -1.84722 \; -1.8199 \; -1.77659 \; -1.77626 \; -1.78298 \; -1.67969
\; -1.5504 \; -1.55954 \; -1.6054 \; -1.58579 \; -1.5696 \; -1.58904
\; -1.50561 \; -1.59181 \; -1.51517 \; -1.57416 \; -1.61003 \; -1.60982
\; -1.57369 \; -1.57325 \; -1.5757 \; -1.54873 \; -1.58531 \; -1.53819
\; -1.54154 \; -1.54581 \; -1.52164 \; -1.5216 \; -1.51799 \; -1.52524
\; -1.53758 \; -1.52969 \; -1.49925 \; -1.5632 \; -1.54292 \; -1.69513
\; -1.70467 \; -1.77986 \; -1.89813 \; -1.78675 \; -1.93085 \; -1.67005
\; -1.79079 \; -1.49186 \; -1.58605 \; -1.56096 \; -1.56291 \; -1.51943
\; -1.54292 \; -1.54658 \; -1.55213 \; -1.51501 \; -1.55734 \; -1.53719
\; -1.61004 \; -1.57737 \; -1.60753 \; -1.53948 \; -1.53947 \; -1.52162
\; -1.53221 \; -1.54371 \; -1.52451 \; -1.55428 \; -1.51918 \; -1.59516
\; -1.50114 \; -1.60538 \; -1.50612 \; -1.69829 \; -1.56747 \; -1.7902
\; -1.67403 \; -1.86781 \; -1.83492 \; -1.90918 \; -1.99387 \; -1.92511
\; -2.04566 \; -1.83602 \; -2.09466 \; -1.86883 \; -2.10799 \; -2.12249
\; -2.08108 \; -2.09051 \; -1.71571 \; -2.05484 \; -1.72293 \; -1.96561
\; -1.7623 \; -1.80754 \; -1.61063 \; -1.61358 \; -1.48737 \; -1.59613
\; -1.6146 \; -1.64149 \; -1.71833 \; -1.58973 \; -1.63031 \; -1.51338
\; -1.57184 \; -1.64026 \; -1.65349 \; -1.73434 \; -1.60532 \; -1.70303
\; -1.48792 \; -1.53064 \; -1.58522 \; -1.54162 \; -1.68722 \; -1.4794
\; -1.68303 \; -1.51372 \; -1.551 \; -1.55157 \; -1.64108 \; -1.6621
\; -1.70737 \; -1.7044 \; -1.74631 \; -1.78101 \; -1.83406 \; -1.80183
\; -1.83491 \; -1.81191 \; -1.66295 \; -1.62068 \; -1.50918 \; -1.66093
\; -1.63771 \; -1.69304 \; -1.69313 \; -1.61981 \; -1.70093 \; -1.46467
\; -1.66296 \; -1.59093 \; -1.62656 \; -1.66313 \; -1.4654 \; -1.66928
\; -1.58717 \; -1.67178 \; -1.70823 \; -1.62995 \; -1.89654 \; -1.6148
\; -1.8304 \; -1.72292 \; -1.73659 \; -1.54384 \; -1.70965 \; -1.64243
\; -1.70147 \; -1.63818 \; -1.7023 \; -1.75899 \; -1.66929 \; -1.74497
\; -1.67402 \; -1.8037 \; -1.59672 \; -1.69976 \; -1.57834 \; -1.6004
\; -1.63267 \; -1.44863 \; -1.62894 \; -1.61445 \; -1.57813 \; -1.73112
\; -1.44604 \; -1.66937 \; -1.63467 \; -1.56498 \; -1.62754 \; -1.53638
\; -1.63776 \; -1.6392 \; -1.49586 \; -1.62316 \; -1.57017 \; -1.54683
\; -1.60525 \; -1.46699 \; -1.57309 \; -1.57311 \; -1.49702 \; -1.5256
\; -1.54225 \; -1.51316 \; -1.70796 \; -1.56772 \; -1.66445 \; -1.81847
\; -1.73943 \; -1.85528 \; -1.87028 \; -1.80043 \; -1.67006 \; -1.82146
\; -1.75305 \; -1.82496 \; -1.87408 \; -1.88643 \; -1.88712 \; -1.93531
\; -1.79889 \; -1.91667 \; -1.80754 \; -1.83772 \; -1.78418 \; -1.69754
\; -1.76265 \; -1.65834 \; -1.78179 \; -1.98741 \; -1.69748 \; -1.84108
\; -1.78822 \; -1.89337 \; -1.75579 \; -1.63429 \; -1.87107 \; -1.7467
\; -1.65519 \; -1.82451 \; -1.83079 \; -1.67185 \; -1.67442 \; -1.91422
\; -1.93136 \; -1.71982 \; -1.90174 \; -1.93035 \; -1.9628 \; -1.7753
\; -1.94045 \; -1.98727 \; -1.96585 \; -1.75545 \; -1.93592 \; -2.06508
\; -2.01057 \; -1.6435 \; -1.90518 \; -1.90709 \; -1.85296 \; -1.69804
\; -2.02138 \; -2.14708 \; -1.88076 \; -1.84964 \; -1.95191 \; -2.15642
\; -1.78501 \; -1.82552 \; -1.76559 \; -1.6221 \; -1.58125 \; -1.58193
\; -1.65294 \; -1.59881 \; -1.59917 \; -1.58738 \; -1.58296 \; -1.61926
\; -1.61822 \; -1.59832 \; -1.6275 \; -1.63832 \; -1.62614 \; -1.54312
\; -1.59505 \; -1.60183 \; -1.63378 \; -1.55601 \; -1.51958 \; -1.57897
\; -1.56573 \; -1.54522 \; -1.54815 \; -1.55565 \; -1.60221 \; -1.55165
\; -1.52003 \; -1.56119 \; -1.55283 \; -1.55893 \; -1.52379 \; -1.54099
\; -1.53318 \; -1.53544 \; -1.56795 \; -1.59007 \; -1.61839 \; -1.68739
\; -1.56919 \; -1.60897 \; -1.72379 \; -1.72615 \; -1.62976 \; -1.61191
\; -1.7365 \; -1.82069 \; -1.83065 \; -1.61035 \; -1.70907 \; -1.70953
\; -1.54055 \; -1.52161 \; -1.52537 \; -1.64602 \; -1.64321 \; -1.46228
\; -1.57599 \; -1.53568 \; -1.66848 \; -1.67467 \; -1.5056 \; -1.55269
\; -1.51136 \; -1.67939 \; -1.63453 \; -1.50722 \; -1.64524 \; -1.55108
\; -1.65342 \; -1.63164 \; -1.57253 \; -1.59009 \; -1.51614 \; -1.61005
\; -1.57789 \; -1.54218 \; -1.56844 \; -1.48902 \; -1.59072 \; -1.56711
\; -1.53066 \; -1.49837 \; -1.50661 \; -1.54483 \; -1.55104 \; -1.57231
\; -1.49142 \; -1.50019 \; -1.55353 \; -1.53968 \; -1.54528 \; -1.54509
\; -1.47153 \; -1.54994 \; -1.54479 \; -1.53335 \; -1.5285 \; -1.50989
\; -1.54597 \; -1.59323 \; -1.51267 \; -1.57284 \; -1.59444 \; -1.54305
\; -1.66305 \; -1.49778 \; -1.59066 \; -1.57299 \; -1.57333 \; -1.58072
\; -1.55226 \; -1.53378 \; -1.53438 \; -1.53991 \; -1.54689 \; -1.50335
\; -1.57498 \; -1.54458 \; -1.56878 \; -1.5737 \; -1.53778 \; -1.51306
\; -1.53138 \; -1.50647 \; -1.56098 \; -1.53741 \; -1.52866 \; -1.45621
\; -1.5629 \; -1.56249 \; -1.53303 \; -1.55381 \; -1.51794 \; -1.4981
\; -1.52291 \; -1.51782 \; -1.51939 \; -1.53782 \; -1.53921 \; -1.52706
\; -1.49607 \; -1.54206 \; -1.52684 \; -1.56259 \; -1.56282 \; -1.4981
\; -1.49388 \; -1.54117 \; -1.52067 \; -1.56239 \; -1.55548 \; -1.55416
\; -1.54642 \; -1.5532 \; -1.51648 \; -1.55632 \; -1.54924 \; -1.53733
\; -1.4733 \; -1.54143 \; -1.53237 \; -1.51988 \; -1.54135 \; -1.54753
\; -1.52744 \; -1.52279 \; -1.52581 \; -1.49943 \; -1.58536 \; -1.59821
\; -1.56617 \; -1.58307 \; -1.58452 \; -1.52378 \; -1.59451 \; -1.56899
\; -1.56382 \; -1.62492 \; -1.62125 \; -1.54777 \; -1.60098 \; -1.61233
\; -1.5419 \; -1.67837 \; -1.56474 \; -1.53005 \; -1.61719 \; -1.62181
\; -1.46575 \; -1.69569 \; -1.58453 \; -1.58869 \; -1.68249 \; -1.61408
\; -1.66198 \; -1.726 \; -1.62493 \; -1.6612 \; -1.74935 \; -1.60955
\; -1.75491 \; -1.7029 \; -1.65035 \; -1.74051 \; -1.73668 \; -1.65825
\; -1.78001 \; -1.6464 \; -1.71306 \; -1.78227 \; -1.72403 \; -1.67426
\; -1.78028 \; -1.63418 \; -1.72835 \; -1.76107 \; -1.69255 \; -1.69017
\; -1.77765 \; -1.69741 \; -1.7061 \; -1.76525 \; -1.70921 \; -1.56788
\; -1.75046 \; -1.65513 \; -1.6434 \; -1.71943 \; -1.59263 \; -1.51548
\; -1.54905 \; -1.57361 \; -1.68285 \; -1.70856 \; -1.59802 \; -1.72412
\; -1.66353 \; -1.571 \; -1.72868 \; -1.64201 \; -1.67975 \; -1.65082
\; -1.53391 \; -1.7768 \; -1.64763 \; -1.74021 \; -1.72473 \; -1.5684
\; -1.78456 \; -1.76892 \; -1.69487 \; -1.50835 \; -1.73651 \; -1.81807
\; -1.59604 \; -1.67619 \; -1.54817 \; -1.84133 \; -1.84234 \; -1.4538
\; -1.59062 \; -1.60217 \; -1.70325 \; -1.51096 \; -1.51736 \; -1.64046
\; -1.68715 \; -1.61323 \; -1.48407 \; -1.69964 \; -1.69532 \; -1.58068
\; -1.56399 \; -1.58166 \; -1.65654 \; -1.79178 \; -1.56135 \; -1.56959
\; -1.78278 \; -1.79677 \; -1.67845 \; -1.60588 \; -1.76173 \; -1.7904
\; -1.79408 \; -1.69752 \; -1.61069 \; -1.73649 \; -1.73168 \; -1.82114
\; -1.72164 \; -1.71448 \; -1.7545 \; -1.63405 \; -1.74203 \; -1.58434
\; -1.71683 \; -1.74477 \; -1.68985 \; -1.65232 \; -1.60735 \; -1.69549
\; -1.62067 \; -1.6492 \; -1.65255 \; -1.59347 \; -1.55062 \; -1.56086
\; -1.57255 \; -1.53283 \; -1.66804 \; -1.73177 \; -1.54828 \; -1.56131
\; -1.70169 \; -1.62745 \; -1.71471 \; -1.78606 \; -1.7888 \; -1.74467
\; -1.67921 \; -1.74243 \; -1.64964 \; -1.68569 \; -1.72303 \; -1.67797
\; -1.69161 \; -1.69789 \; -1.63688 \; -1.62987 \; -1.67656 \; -1.69507
\; -1.73215 \; -1.75628 \; -1.54802 \; -1.72543 \; -1.73273 \; -1.61945
\; -1.63393 \; -1.62701 \; -1.60252 \; -1.61132 \; -1.60921 \; -1.59155
\; -1.57242 \; -1.58506 \; -1.60645 \; -1.5665 \; -1.52739 \; -1.74999
\; -1.57806 \; -1.64792 \; -1.6985 \; -1.51115 \; -1.66012 \; -1.63235
\; -1.65933 \; -1.66464 \; -1.54754 \; -1.66262 \; -1.61456 \; -1.69244
\; -1.70024 \; -1.5982 \; -1.70806 \; -1.58334 \; -1.66703 \; -1.71588
\; -1.75624 \; -1.7571 \; -1.52808 \; -1.73271 \; -1.50158 \; -1.6243
\; -1.54129 \; -1.61148 \; -1.6585 \; -1.67095 \; -1.59403 \; -1.67272
\; -1.5195 \; -1.73853 \; -1.58665 \; -1.68252 \; -1.54473 \; -1.63367
\; -1.60503 \; -1.64091 \; -1.73134 \; -1.75704 \; -1.57888 \; -1.58555
\; -1.54869 \; -1.64317 \; -1.76614 \; -1.76275 \; -1.86202 \; -1.74933
\; -1.91022 \; -1.84896 \; -1.80101 \; -1.72999 \; -1.66102 \; -1.73095
\; -1.73865 \; -1.74389 \; -1.74001 \; -1.61874 \; -1.76972 \; -1.73121
\; -1.7317 \; -1.75045 \; -1.61207 \; -1.70228 \; -1.60484 \; -1.64495
\; -1.68998 \; -1.65458 \; -1.67463 \; -1.70952 \; -1.75075 \; -1.76392
\; -1.7088 \; -1.71786 \; -1.59323 \; -1.72517 \; -1.62728 \; -1.62943
\; -1.55096 \; -1.55148 \; -1.6495 \; -1.64269 \; -1.83429 \; -1.92484
\; -1.82701 \; -1.88336 \; -1.7962 \; -1.73398 \; -1.69563 \; -1.64164
\; -1.66504 \; -1.68878 \; -1.64278 \; -1.67443 \; -1.6713 \; -1.67207
\; -1.72907 \; -1.6305 \; -1.74045 \; -1.75547 \; -1.75497 \; -1.7424
\; -1.65303 \; -1.72328 \; -1.70831 \; -1.62873 \; -1.73036 \; -1.74315
\; -1.74935 \; -1.78313 \; -1.64937 \; -1.80509 \; -1.81416 \; -1.76276
\; -1.78703 \; -1.74595 \; -1.78584 \; -1.79695 \; -1.62383 \; -1.79586
\; -1.77344 \; -1.77275 \; -1.73189 \; -1.58978 \; -1.68098 \; -1.74333
\; -1.77748 \; -1.90064 \; -1.832 \; -1.93995 \; -1.95768 \; -1.86456
\; -1.87122 \; -1.74502 \; -1.69296 \; -1.67217 \; -1.64344 \; -1.61177
\; -1.66085 \; -1.67272 \; -1.61619 \; -1.63456 \; -1.63915 \; -1.60422
\; -1.65856 \; -1.63618 \; -1.66217 \; -1.7039 \; -1.5825 \; -1.71536
\; -1.71549 \; -1.58429 \; -1.73256 \; -1.70968 \; -1.64389 \; -1.71574
\; -1.73497 \; -1.71196 \; -1.72216 \; -1.70587 \; -1.7201 \; -1.71734
\; -1.59094 \; -1.69444 \; -1.60986 \; -1.63376 \; -1.63648 \; -1.71007
\; -1.73286 \; -1.85337 \; -1.91074 \; -1.90142 \; -1.84752 \; -1.79792
\; -1.70401 \; -1.73466 \; -1.74012 \; -1.66091 \; -1.7525 \; -1.74075
\; -1.66266 \; -1.79243 \; -1.81337 \; -1.74884 \; -1.80079 \; -1.5
\; -1.5 \; -1.5 \; -1.5 \; -1.5 \; -1.5 \; -1.5 \; -1.5 \; -1.5 \;
-1.5 \; -1.5 \; -1.5 \; -1.5 \; -1.5 \; -1.5 \; -1.5 \; \; -1.49843
\; -1.49916 \; -1.48739 \; -1.48893 \; -1.48729 \; -1.48705 \; -1.51375
\; -1.45446 \; -1.45786 \; -1.47179 \; -1.46875 \; -1.53427 \; -1.41816
\; -1.41895 \; -1.45627 \; -1.45597 \; -1.56515 \; -1.38137 \; -1.38583
\; -1.46201 \; -1.46142 \; -1.56584 \; -1.35882 \; -1.36849 \; -1.45425
\; -1.45155 \; -1.54496 \; -1.35199 \; -1.36891 \; -1.44939 \; -1.45253
\; -1.48223 \; -1.34621 \; -1.40364 \; -1.44872 \; -1.45637 \; -1.4259
\; -1.3435 \; -1.44398 \; -1.45315 \; -1.4694 \; -1.37452 \; -1.35331
\; -1.50039 \; -1.45508 \; -1.50473 \; -1.37677 \; -1.36087 \; -1.47177
\; -1.46079 \; -1.54506 \; -1.3662 \; -1.37138 \; -1.46724 \; -1.46775
\; -1.48111 \; -1.36667 \; -1.41372 \; -1.46642 \; -1.47601 \; -1.39855
\; -1.3646 \; -1.46453 \; -1.48166 \; -1.51563 \; -1.3655 \; -1.3655
\; -1.50305 \; -1.4921 \; -1.5068 \; -1.36352 \; -1.39934 \; -1.49971
\; -1.50394 \; -1.40878 \; -1.36735 \; -1.44806 \; -1.52178 \; -1.54058
\; -1.37582 \; -1.37777 \; -1.49676 \; -1.52982 \; -1.44736 \; -1.38034
\; -1.41262 \; -1.51829 \; -1.56321 \; -1.38926 \; -1.38853 \; -1.46111
\; -1.53324 \; -1.45547 \; -1.36957 \; -1.39417 \; -1.49709 \; -1.57692
\; -1.36588 \; -1.36193 \; -1.44857 \; -1.51714 \; -1.43973 \; -1.35742
\; -1.39218 \; -1.47478 \; -1.60285 \; -1.37169 \; -1.37289 \; -1.4313
\; -1.5321 \; -1.40494 \; -1.36613 \; -1.40521 \; -1.46123 \; -1.50738
\; -1.36946 \; -1.37158 \; -1.42309 \; -1.58957 \; -1.40816 \; -1.37017
\; -1.37945 \; -1.53031 \; -1.4655 \; -1.37824 \; -1.37674 \; -1.47476
\; -1.51919 \; -1.37942 \; -1.35384 \; -1.45107 \; -1.5538 \; -1.43386
\; -1.38982 \; -1.41071 \; -1.52924 \; -1.48909 \; -1.43466 \; -1.42397
\; -1.4675 \; -1.53433 \; -1.43535 \; -1.3699 \; -1.39938 \; -1.52071
\; -1.42387 \; -1.42806 \; -1.48987 \; -1.4557 \; -1.48423 \; -1.39953
\; -1.39496 \; -1.48767 \; -1.42431 \; -1.4459 \; -1.3984 \; -1.38843
\; -1.50516 \; -1.409 \; -1.43199 \; -1.39293 \; -1.39073 \; -1.48541
\; -1.37188 \; -1.40894 \; -1.35358 \; -1.35493 \; -1.41133 \; -1.36295
\; -1.48832 \; -1.31932 \; -1.39139 \; -1.32644 \; -1.33403 \; -1.3978
\; -1.38471 \; -1.46255 \; -1.43074 \; -1.40647 \; -1.41321 \; -1.37241
\; -1.3915 \; -1.28394 \; -1.28631 \; -1.31924 \; -1.34432 \; -1.23642
\; -1.3303 \; -1.1534 \; -1.06641 \; -1.01794 \; -0.891575 \; -1.21438
\; -0.851246 \; -0.720862 \; -0.742658 \; -0.669503 \; -0.696183 \;
-0.687061 \; -0.650688 \; -0.680616 \; -0.729903 \; -0.707266 \; -0.706748
\; -0.719064 \; -0.875024 \; -1.0215 \; -1.01492 \; -1.21534 \; -1.33631
\; -1.32786 \; -1.25067 \; -1.13793 \; -1.30987 \; -1.23272 \; -1.30928
\; -1.36668 \; -1.35147 \; -1.44058 \; -1.4377 \; -1.43298 \; -1.36856
\; -1.43783 \; -1.4174 \; -1.51547 \; -1.39 \; -1.41421 \; -1.40175
\; -1.41156 \; -1.41103 \; -1.41511 \; -1.43496 \; -1.44887 \; -1.46949
\; -1.44158 \; -1.43128 \; -1.45673 \; -1.49371 \; -1.47292 \; -1.47935
\; -1.45794 \; -1.48114 \; -1.49512 \; -1.44583 \; -1.48654 \; -1.39126
\; -1.42171 \; -1.29211 \; -1.17511 \; -1.21629 \; -1.08263 \; -1.33478
\; -1.07694 \; -1.33733 \; -1.34377 \; -1.48555 \; -1.41639 \; -1.44049
\; -1.46363 \; -1.45165 \; -1.44565 \; -1.44164 \; -1.44071 \; -1.45957
\; -1.41226 \; -1.42507 \; -1.37984 \; -1.39827 \; -1.4403 \; -1.47193
\; -1.47802 \; -1.43594 \; -1.48969 \; -1.45055 \; -1.51982 \; -1.39531
\; -1.49807 \; -1.39031 \; -1.50295 \; -1.35588 \; -1.36854 \; -1.31959
\; -1.39444 \; -1.20244 \; -1.27875 \; -1.11075 \; -1.03719 \; -1.13028
\; -0.915923 \; -1.12636 \; -0.857684 \; -1.25187 \; -0.850457 \; -0.940747
\; -0.891155 \; -0.906113 \; -1.19369 \; -0.906696 \; -1.41021 \; -0.965099
\; -1.22114 \; -1.09842 \; -1.30037 \; -1.27063 \; -1.49138 \; -1.4408
\; -1.39902 \; -1.36093 \; -1.29699 \; -1.37977 \; -1.31983 \; -1.45366
\; -1.45214 \; -1.43056 \; -1.3732 \; -1.28661 \; -1.37743 \; -1.28831
\; -1.42496 \; -1.39047 \; -1.49044 \; -1.48584 \; -1.3351 \; -1.47574
\; -1.29551 \; -1.49003 \; -1.38406 \; -1.4486 \; -1.44344 \; -1.43236
\; -1.34092 \; -1.35562 \; -1.30026 \; -1.30495 \; -1.14881 \; -1.27145
\; -1.09137 \; -1.19815 \; -1.12097 \; -1.27074 \; -1.37359 \; -1.39512
\; -1.45776 \; -1.31611 \; -1.33195 \; -1.35988 \; -1.2947 \; -1.47065
\; -1.3287 \; -1.45422 \; -1.37798 \; -1.3564 \; -1.47008 \; -1.31668
\; -1.47038 \; -1.34891 \; -1.34937 \; -1.38691 \; -1.1928 \; -1.36534
\; -1.12468 \; -1.31507 \; -1.09256 \; -1.43056 \; -1.3173 \; -1.50756
\; -1.22057 \; -1.47216 \; -1.22054 \; -1.39683 \; -1.12318 \; -1.26138
\; -1.18801 \; -1.19776 \; -1.37769 \; -1.19747 \; -1.57829 \; -1.31366
\; -1.38773 \; -1.44195 \; -1.39028 \; -1.45859 \; -1.3718 \; -1.35361
\; -1.44975 \; -1.34446 \; -1.41792 \; -1.39207 \; -1.3483 \; -1.54955
\; -1.35598 \; -1.41894 \; -1.42218 \; -1.37037 \; -1.49995 \; -1.37374
\; -1.40372 \; -1.47053 \; -1.4411 \; -1.44996 \; -1.46363 \; -1.44711
\; -1.49923 \; -1.51089 \; -1.36459 \; -1.46864 \; -1.27315 \; -1.50681
\; -1.10895 \; -1.25045 \; -1.28427 \; -0.973937 \; -1.15052 \; -1.15597
\; -1.25204 \; -1.36571 \; -0.98887 \; -1.00219 \; -1.01038 \; -0.755902
\; -1.26466 \; -0.91762 \; -1.09922 \; -1.31815 \; -1.0355 \; -1.11515
\; -1.28066 \; -1.1541 \; -1.13977 \; -1.33944 \; -0.955048 \; -1.09514
\; -1.35443 \; -0.831361 \; -1.12166 \; -1.21988 \; -1.10611 \; -1.28636
\; -1.20555 \; -1.23974 \; -0.979965 \; -1.08021 \; -1.15021 \; -1.4227
\; -0.907134 \; -1.07853 \; -1.26954 \; -1.47482 \; -0.845293 \; -1.03084
\; -1.22087 \; -0.817268 \; -0.71342 \; -1.07494 \; -1.16102 \; -0.65671
\; -0.896303 \; -1.13153 \; -1.20919 \; -0.792291 \; -1.1054 \; -1.12952
\; -1.19247 \; -0.634296 \; -0.927537 \; -1.01717 \; -1.34778 \; -0.563559
\; -0.975521 \; -1.20508 \; -1.39072 \; -0.962568 \; -1.36398 \; -1.37412
\; -1.36255 \; -1.37371 \; -1.41833 \; -1.42955 \; -1.35627 \; -1.34768
\; -1.48441 \; -1.35115 \; -1.34286 \; -1.40354 \; -1.43989 \; -1.40558
\; -1.35247 \; -1.40804 \; -1.42463 \; -1.38579 \; -1.45585 \; -1.4486
\; -1.41838 \; -1.47085 \; -1.43588 \; -1.45262 \; -1.37913 \; -1.48442
\; -1.47255 \; -1.4518 \; -1.39121 \; -1.44231 \; -1.49416 \; -1.44601
\; -1.39456 \; -1.48314 \; -1.46014 \; -1.45118 \; -1.42005 \; -1.25087
\; -1.21062 \; -1.40018 \; -1.40679 \; -1.20759 \; -1.20236 \; -1.28074
\; -1.33508 \; -1.40123 \; -1.08814 \; -1.19295 \; -1.37395 \; -1.33878
\; -1.40373 \; -1.32568 \; -1.42739 \; -1.39771 \; -1.47902 \; -1.41708
\; -1.31191 \; -1.45161 \; -1.42717 \; -1.53432 \; -1.28772 \; -1.28552
\; -1.49572 \; -1.45418 \; -1.50998 \; -1.33058 \; -1.29901 \; -1.51175
\; -1.43443 \; -1.54137 \; -1.30374 \; -1.31245 \; -1.52599 \; -1.42086
\; -1.45637 \; -1.39767 \; -1.36464 \; -1.48708 \; -1.43395 \; -1.46045
\; -1.49381 \; -1.44874 \; -1.46453 \; -1.466 \; -1.50317 \; -1.51972
\; -1.49623 \; -1.41456 \; -1.45178 \; -1.50733 \; -1.48372 \; -1.53281
\; -1.40678 \; -1.3946 \; -1.47418 \; -1.48657 \; -1.48991 \; -1.49884
\; -1.4052 \; -1.42265 \; -1.47168 \; -1.42817 \; -1.47746 \; -1.46235
\; -1.30382 \; -1.47585 \; -1.35438 \; -1.50259 \; -1.52353 \; -1.3518
\; -1.36715 \; -1.43365 \; -1.45001 \; -1.52286 \; -1.49973 \; -1.41645
\; -1.4143 \; -1.5051 \; -1.42029 \; -1.42346 \; -1.5234 \; -1.41591
\; -1.42508 \; -1.4678 \; -1.44352 \; -1.50716 \; -1.51169 \; -1.4577
\; -1.43097 \; -1.44693 \; -1.46077 \; -1.45068 \; -1.50383 \; -1.49352
\; -1.45835 \; -1.47208 \; -1.47525 \; -1.46508 \; -1.51965 \; -1.5267
\; -1.4316 \; -1.4267 \; -1.49706 \; -1.45969 \; -1.46503 \; -1.48884
\; -1.46171 \; -1.44912 \; -1.49169 \; -1.42764 \; -1.46025 \; -1.52799
\; -1.40934 \; -1.37302 \; -1.44153 \; -1.43773 \; -1.50747 \; -1.50228
\; -1.47813 \; -1.41314 \; -1.47675 \; -1.47324 \; -1.46192 \; -1.52293
\; -1.51978 \; -1.41511 \; -1.44743 \; -1.49577 \; -1.45483 \; -1.47905
\; -1.53205 \; -1.35803 \; -1.3619 \; -1.44502 \; -1.41215 \; -1.52772
\; -1.51044 \; -1.31176 \; -1.33629 \; -1.40034 \; -1.39235 \; -1.54971
\; -1.54843 \; -1.22939 \; -1.35878 \; -1.37095 \; -1.46677 \; -1.52017
\; -1.43572 \; -1.14699 \; -1.43933 \; -1.32389 \; -1.44239 \; -1.51858
\; -1.32013 \; -1.11483 \; -1.33644 \; -1.31619 \; -1.3666 \; -1.51822
\; -1.20727 \; -1.11522 \; -1.30162 \; -1.38334 \; -1.3211 \; -1.54034
\; -1.08061 \; -1.12086 \; -1.25256 \; -1.31044 \; -1.28502 \; -1.527
\; -1.07377 \; -1.20016 \; -1.23678 \; -1.26507 \; -1.28201 \; -1.51986
\; -1.07441 \; -1.36 \; -1.24156 \; -1.25956 \; -1.43327 \; -1.51414
\; -1.10457 \; -1.29005 \; -1.26909 \; -1.36288 \; -1.47877 \; -1.40535
\; -1.27963 \; -1.4529 \; -1.46168 \; -1.36035 \; -1.51834 \; -1.21883
\; -1.21102 \; -1.27144 \; -1.46462 \; -1.52495 \; -1.20719 \; -1.22047
\; -1.32809 \; -1.36924 \; -1.54438 \; -1.13848 \; -1.09306 \; -1.28507
\; -1.33891 \; -1.5709 \; -1.07897 \; -1.1359 \; -1.29173 \; -1.49172
\; -1.36375 \; -1.05804 \; -1.32277 \; -1.31273 \; -1.54974 \; -1.2053
\; -1.22798 \; -1.37625 \; -1.50478 \; -1.51454 \; -1.34389 \; -1.26455
\; -1.52451 \; -1.54279 \; -1.3226 \; -1.34668 \; -1.34696 \; -1.40713
\; -1.34814 \; -1.29194 \; -1.3986 \; -1.36641 \; -1.42514 \; -1.25535
\; -1.42511 \; -1.24167 \; -1.35174 \; -1.45696 \; -1.09957 \; -1.2457
\; -1.27108 \; -1.19945 \; -1.14236 \; -1.23718 \; -1.54945 \; -1.24123
\; -1.18804 \; -1.12897 \; -1.24017 \; -1.23383 \; -1.26014 \; -1.58499
\; -1.1924 \; -1.267 \; -1.27709 \; -1.24699 \; -1.23723 \; -1.29833
\; -1.50304 \; -1.31629 \; -1.32419 \; -1.41266 \; -1.38218 \; -1.3619
\; -1.46034 \; -1.52239 \; -1.39218 \; -1.37762 \; -1.558 \; -1.26925
\; -1.39192 \; -1.4401 \; -1.2737 \; -1.34884 \; -1.20865 \; -1.18503
\; -1.27714 \; -1.27872 \; -1.18398 \; -1.17808 \; -1.3442 \; -1.29647
\; -1.2037 \; -1.29195 \; -1.36916 \; -1.26157 \; -1.37048 \; -1.22333
\; -1.13595 \; -1.4028 \; -1.27835 \; -1.2157 \; -1.50722 \; -1.22167
\; -1.25485 \; -1.51604 \; -1.29199 \; -1.31068 \; -1.54473 \; -1.29489
\; -1.29941 \; -1.43967 \; -1.37787 \; -1.33286 \; -1.52162 \; -1.25743
\; -1.45117 \; -1.34736 \; -1.27188 \; -1.50997 \; -1.2482 \; -1.4914
\; -1.27113 \; -1.2157 \; -1.55198 \; -1.26873 \; -1.54347 \; -1.2152
\; -1.22055 \; -1.38071 \; -1.27998 \; -1.58976 \; -1.25028 \; -1.45392
\; -1.19352 \; -1.19254 \; -1.28489 \; -1.29943 \; -1.41265 \; -1.36436
\; -1.44277 \; -1.37513 \; -1.48977 \; -1.30723 \; -1.47252 \; -1.2601
\; -1.53504 \; -1.29171 \; -1.52383 \; -1.24472 \; -1.47928 \; -1.34928
\; -1.48122 \; -1.35516 \; -1.33298 \; -1.2606 \; -1.35838 \; -1.35917
\; -1.44315 \; -1.41761 \; -1.33909 \; -1.31358 \; -1.16997 \; -1.28452
\; -1.11759 \; -1.08547 \; -1.07423 \; -1.17703 \; -1.42702 \; -1.22789
\; -1.25915 \; -1.24219 \; -1.22201 \; -1.3134 \; -1.21853 \; -1.30385
\; -1.20568 \; -1.23682 \; -1.30504 \; -1.23728 \; -1.44101 \; -1.30476
\; -1.30846 \; -1.31535 \; -1.29382 \; -1.39471 \; -1.26293 \; -1.21466
\; -1.22262 \; -1.25517 \; -1.39956 \; -1.27327 \; -1.37084 \; -1.32428
\; -1.44009 \; -1.42608 \; -1.43664 \; -1.44603 \; -1.28318 \; -1.12178
\; -1.11432 \; -1.08499 \; -1.11906 \; -1.09328 \; -1.21313 \; -1.39199
\; -1.29399 \; -1.28661 \; -1.33255 \; -1.29891 \; -1.40548 \; -1.32034
\; -1.28723 \; -1.32628 \; -1.26818 \; -1.27106 \; -1.24036 \; -1.22857
\; -1.40843 \; -1.26626 \; -1.27178 \; -1.29868 \; -1.2704 \; -1.30373
\; -1.25412 \; -1.22988 \; -1.36881 \; -1.20223 \; -1.18539 \; -1.18971
\; -1.19885 \; -1.35818 \; -1.23435 \; -1.21554 \; -1.28105 \; -1.22022
\; -1.24601 \; -1.22619 \; -1.25268 \; -1.29659 \; -1.30462 \; -1.46758
\; -1.29449 \; -1.16903 \; -1.19084 \; -1.11695 \; -1.08899 \; -1.1656
\; -1.05057 \; -1.13072 \; -1.34152 \; -1.23234 \; -1.28127 \; -1.41134
\; -1.29866 \; -1.28804 \; -1.3017 \; -1.30658 \; -1.31289 \; -1.32063
\; -1.31604 \; -1.39853 \; -1.32013 \; -1.31507 \; -1.43176 \; -1.28962
\; -1.28803 \; -1.33481 \; -1.27001 \; -1.24838 \; -1.25496 \; -1.25434
\; -1.25067 \; -1.24489 \; -1.25566 \; -1.35291 \; -1.28669 \; -1.31622
\; -1.37175 \; -1.30806 \; -1.43086 \; -1.32389 \; -1.32871 \; -1.33542
\; -1.30353 \; -1.2204 \; -1.25811 \; -1.15353 \; -1.11577 \; -1.07818
\; -1.09833 \; -1.14956 \; -1.22374 \; -1.23 \; -1.2685 \; -1.15908
\; -1.16824 \; -1.16027 \; -1.19867 \; -1.24033 \; -1.21476 \; -1.5
\; -1.5 \; -1.5 \; -1.5 \; -1.5 \; -1.5 \; -1.5 \; -1.5 \; -1.5 \;
-1.5 \; -1.5 \; -1.5 \; -1.5 \; -1.5 \; -1.5 \; -1.5 \; -1.5 \; \;
;
#X coords 0 -1 1024 1 180 82 1;
#X restore 1 1 pd \$0-graph;
#X coords 0 -1 1024 1 180 82 1;
#X restore 24 45 pd \$0-graph-subpatch;
#N canvas 148 124 1226 748 nice_waveform 0;
#X obj 505 170 f \$0;
#X msg 505 118 bang;
#X obj 505 141 t b b;
#X obj 519 24 loadbang;
#X msg 664 219 \; pd-\$1-graph clear;
#X msg 638 257 traverse pd-\$1-graph \, bang;
#X obj 638 282 pointer;
#N canvas 722 164 680 479 \$0-scope-template 0;
#X obj 41 167 outlet;
#X obj 104 92 filledpolygon c1 c2 2 x y x1 y x1 y1 x y1 x y;
#X obj 40 23 struct \$0-scope float x float y float x1 float y1 float
c1 float c2 float c3 float c4 array vector-min \$0-scope-element array
vector-max \$0-scope-element float curx, f 100;
#X obj 171 247 plot -e 0 vector-min c3 1 y;
#X obj 169 271 plot -e 0 vector-max c3 1 y;
#X connect 2 0 0 0;
#X restore 107 340 pd \$0-scope-template;
#N canvas 478 253 450 300 \$0-scope-element 0;
#X obj 61 57 struct \$0-scope-element float y;
#X restore 107 361 pd \$0-scope-element;
#X obj 280 590 set \$0-scope-element y;
#X obj 280 565 - 1.5;
#X obj 505 191 t b f f;
#X text 131 424 number of plot elements = array size;
#X text 432 316 frame size and colours;
#X obj 91 712 s pd-\$0-graph;
#X msg 91 692 coords 0 -1 \$1 1 \$2 \$3 2;
#X msg 360 423 1024;
#X obj 840 335 float;
#X msg 859 237 0;
#X obj 840 303 until;
#X obj 931 336 / 1024;
#X obj 885 335 + 1;
#X obj 765 461 *;
#X msg 840 262 1024;
#X obj 318 657 set \$0-scope-element y;
#X obj 318 632 - 1.5;
#X obj 792 405 s \$0-index;
#X obj 792 381 int;
#X obj 409 539 r \$0-index;
#X obj 447 606 r \$0-index;
#X msg 361 473 1024;
#X obj 844 445 t f f f;
#X obj 447 631 element \$0-scope vector-min;
#X obj 409 562 element \$0-scope vector-max;
#X obj 361 501 setsize \$0-scope vector-min;
#X obj 360 451 setsize \$0-scope vector-max;
#X obj 765 351 t f f;
#X text 977 337 file size divided by array size;
#X obj 314 705 vsl 10 100 0 200 0 0 graph-height empty empty 0 -9 0
10 #feffc6 #ff0400 #000000 0 0;
#X obj 356 735 hsl 128 10 0 1000 0 0 graph-width empty scale-x 4 4
0 10 #feffc6 #ff0400 #000000 0 0;
#X msg 91 671 1024 \$1 \$2;
#X obj 91 652 pack;
#X obj 91 568 r graph-width;
#X obj 178 567 r graph-height;
#X obj 178 636 t b f;
#X obj 178 616 -;
#X msg 178 593 200 \$1;
#X text 314 714 scale-y, f 1;
#X obj 1291 270 samplerate~;
#X obj 1254 301 /;
#X obj 1231 254 t f b;
#X floatatom 1254 325 0 0 0 0 seconds - - 0;
#X floatatom 1254 398 0 0 0 0 display_width/seconds - - 0;
#X obj 1254 371 /;
#X obj 1254 423 / 20;
#X floatatom 1230 226 15 0 0 1 <=_wave_file_size - - 0;
#X obj 1372 340 s \$0-seconds;
#X msg 1254 349 1024 \$1;
#X obj 1257 595 f;
#X obj 1257 646 s \$0-cursor;
#X obj 1199 559 metro 50;
#X obj 1199 470 r \$0-play;
#X floatatom 1272 561 0 0 0 0 - - - 0;
#X obj 1272 531 bng 15 250 50 0 empty \$0-eof empty 17 7 0 10 #fcfcfc
#000000 #000000;
#X obj 840 209 t f b f b f;
#X obj 435 394 t b b p p p p p;
#X obj 435 334 append \$0-scope x y x1 y1 c1 c2 c3 c4 curx;
#X obj 1272 505 r \$0-repeat;
#X obj 1199 534 tgl 15 0 empty empty empty 17 7 0 10 #fcfcfc #000000
#000000 0 1;
#X obj 1199 503 t f b;
#X obj 1297 594 + 1;
#X obj 1257 620 * 1;
#X text 1235 145 Get the duration of the wave file;
#X text 1287 419 divide by 20 for a metro speed of 50ms (1000/50=20)
, f 27;
#X text 217 502 set plot elements < 0;
#X text 216 451 set plot elements > 0;
#X obj 91 731 s pd-\$0-graph-subpatch;
#X obj 1208 179 r \$1-samplelength;
#X obj 765 499 array max \$1-poly_grain-L;
#X obj 765 521 array min \$1-poly_grain-R;
#X obj 838 127 r \$1-samplelength;
#X obj 820 163 f;
#X obj 803 106 r \$1-visual;
#X obj 767 101 bng 15 250 50 0 empty empty empty 17 7 0 10 #fcfcfc
#000000 #000000;
#X msg 435 298 0 0.5 1024 -1.5 999 999 900 990 452;
#X msg 67 594 180;
#X text 92 83 this was not made by Yann! made by Balwyn on the Pure
Data forums.;
#X connect 0 0 11 0;
#X connect 1 0 2 0;
#X connect 2 0 0 0;
#X connect 3 0 1 0;
#X connect 3 0 23 0;
#X connect 5 0 6 0;
#X connect 6 0 66 9;
#X connect 10 0 9 0;
#X connect 11 0 84 0;
#X connect 11 1 5 0;
#X connect 11 2 4 0;
#X connect 15 0 14 0;
#X connect 15 0 76 0;
#X connect 16 0 35 0;
#X connect 17 0 21 0;
#X connect 17 0 36 0;
#X connect 18 0 17 1;
#X connect 19 0 17 0;
#X connect 20 0 31 0;
#X connect 21 0 17 1;
#X connect 22 0 78 0;
#X connect 22 0 79 0;
#X connect 23 0 19 0;
#X connect 25 0 24 0;
#X connect 27 0 26 0;
#X connect 28 0 33 0;
#X connect 29 0 32 0;
#X connect 30 0 34 0;
#X connect 31 0 22 1;
#X connect 31 1 78 1;
#X connect 31 2 79 1;
#X connect 32 0 24 1;
#X connect 33 0 9 1;
#X connect 36 0 22 0;
#X connect 36 1 27 0;
#X connect 40 0 15 0;
#X connect 41 0 40 0;
#X connect 42 0 41 0;
#X connect 43 0 46 0;
#X connect 44 0 41 0;
#X connect 44 1 41 1;
#X connect 45 0 44 0;
#X connect 46 0 45 0;
#X connect 48 0 49 1;
#X connect 49 0 51 0;
#X connect 50 0 49 0;
#X connect 50 1 48 0;
#X connect 51 0 57 0;
#X connect 51 0 56 0;
#X connect 52 0 54 0;
#X connect 53 0 52 0;
#X connect 54 0 71 1;
#X connect 55 0 50 0;
#X connect 57 0 53 0;
#X connect 58 0 70 0;
#X connect 58 0 71 0;
#X connect 60 0 58 0;
#X connect 61 0 69 0;
#X connect 62 0 58 1;
#X connect 63 0 62 0;
#X connect 64 0 23 0;
#X connect 64 1 18 0;
#X connect 64 2 20 0;
#X connect 64 3 1 0;
#X connect 65 0 16 0;
#X connect 65 1 30 0;
#X connect 65 2 35 1;
#X connect 65 3 34 1;
#X connect 65 4 33 1;
#X connect 65 5 32 1;
#X connect 66 0 65 0;
#X connect 67 0 63 0;
#X connect 68 0 60 0;
#X connect 69 0 68 0;
#X connect 69 1 63 0;
#X connect 70 0 58 1;
#X connect 71 0 59 0;
#X connect 77 0 55 0;
#X connect 78 0 10 0;
#X connect 79 0 25 0;
#X connect 80 0 81 1;
#X connect 81 0 64 0;
#X connect 82 0 81 0;
#X connect 83 0 81 0;
#X connect 84 0 66 0;
#X connect 85 0 41 0;
#X restore 405 373 pd nice_waveform;
#X obj 201 560 cnv 15 185 155 empty empty empty 20 12 0 14 #000000
#404040 0;
#N canvas 0 22 450 278 (subpatch) 0;
#X array \$1-poly_grain-R 81450 float 2;
#X coords 0 1 81450 -1 180 70 2 0 0;
#X restore 203 641 graph;
#N canvas 878 361 450 278 (subpatch) 0;
#X array \$1-poly_grain-L 81450 float 2;
#X coords 0 1 81450 -1 180 70 2 0 0;
#X restore 203 571 graph;
#X obj 258 44 tgl 15 1 \$1-recordLoop \$1-recordLoop_rcv liveGrains
16 8 1 10 #ffc7c6 #000000 #000000 0 1;
#X connect 37 0 39 0;
#X connect 41 0 37 0;
#X coords 0 -1 1 1 350 500 1 0 0;
