#N struct 1004-scope float x float y float x1 float y1 float c1 float
c2 float c3 float c4 array vector-min 1004-scope-element array vector-max
1004-scope-element float curx;
#N struct 1004-scope-element float y;
#N canvas 350 141 972 691 10;
#X obj 28 179 hsl 175 15 0 1 0 0 \$1-sample_offset \$1-sample_offset_rcv
sample\\\ offset -2 -4 1 10 #fffba5 #404040 #000000 0 1;
#X obj 225 10 tgl 30 1 \$1-on_off \$1-on_off_rcv on/off 32 26 0 10
#9bc99d #000000 #000000 1 1;
#X obj 225 44 tgl 30 1 \$1-record \$1-record_rcv record 32 26 1 10
#ffc7c6 #000000 #000000 0 1;
#X obj 12 526 bng 15 250 50 0 midi-properties midi-properties_rcv midi-properties
17 7 0 10 #fcfcfc #000000 #000000;
#X obj 12 508 bng 15 250 50 0 audio-properties audio-properties_rcv
audio-properties 17 7 0 10 #fcfcfc #000000 #000000;
#X obj 258 10 bng 15 250 50 0 \$1-play_one_grain \$1-play_one_grain_rcv
play\\\ one 17 7 1 10 #9bc99d #000000 #000000;
#X text 31 760 by yann seznec // yannseznec.com;
#X obj 226 212 cnv 15 95 100 empty empty autoplay 5 12 1 14 #e0e0e0
#404040 0;
#X obj 232 287 hsl 80 15 0 1 0 1 \$1-autoplay_speed \$1-autoplay_speed_rcv
speed -2 -4 1 10 #fcfcfc #000000 #000000 1000 1;
#X obj 230 261 tgl 12 1 \$1-freeze \$1-freeze_rcv freeze 17 7 1 10
#fcfcfc #000000 #000000 0 1;
#X obj 293 216 tgl 20 1 \$1-autoplay_on_off \$1-autoplay_on_off_rcv
on/off -2 25 1 10 #9bc99d #000000 #000000 0 1;
#X obj 230 242 tgl 12 1 \$1-autoplay_reverse \$1-autoplay_reverse_rcv
reverse 17 7 1 10 #fcfcfc #000000 #000000 0 1;
#X obj 226 108 cnv 15 95 100 empty empty input 5 12 1 14 #e0e0e0 #404040
0;
#X obj 230 184 tgl 15 0 \$1-input_monitor \$1-input_monitor_rcv monitor
17 7 1 10 #fcfcfc #000000 #000000 0 1;
#X obj 230 133 vradio 15 1 1 3 \$1-stereoms \$1-stereoms_rcv empty
0 -8 0 10 #fcfcfc #000000 #000000 2;
#X obj 248 140 cnv 15 20 10 empty empty stereo 0 0 1 10 #dfdfdf #404040
0;
#X obj 247 156 cnv 15 20 10 empty empty mid/side 0 0 1 10 #dfdfdf #404040
0;
#X obj 247 170 cnv 15 20 10 empty empty mono 0 0 1 10 #dfdfdf #404040
0;
#X obj 226 316 cnv 15 95 130 empty empty output 5 12 1 14 #e0e0e0 #404040
0;
#X obj 235 402 hsl 30 10 0 1 0 1 \$1-global_pan \$1-global_pan_rcv
empty -2 -8 1 10 #fcfcfc #000000 #000000 1500 1;
#X obj 232 339 vsl 35 60 0.01 1.4 1 1 \$1-volume \$1-volume_rcv empty
-6 -9 1 10 #fcfcfc #000000 #000000 4943 1;
#X obj 287 327 vu 8 80 \$1-vu-L empty 20 10 1 24 #404040 #000000 0
0;
#X obj 299 327 vu 8 80 \$1-vu-R empty 20 10 1 24 #404040 #000000 0
0;
#X obj 25 216 cnv 15 180 250 empty empty empty 20 12 0 14 #194b19 #404040
0;
#X obj 234 425 hsl 75 15 0 1 0 1 \$1-random_panning \$1-random_panning_rcv
panning\\\ random -2 -4 1 10 #ffffff #000000 #000000 5400 1;
#X obj 42 240 hsl 128 15 0 1 0 1 \$1-offset_random \$1-offset_random_rcv
offset\\\ random -2 -4 1 10 #fffba5 #000000 #ffffff 600 1;
#X obj 42 305 hsl 128 15 0 1 0 1 \$1-grain_pitch \$1-grain_pitch_rcv
pitch -2 -4 1 10 #9bc9dd #ffffff #ffffff 3175 1;
#X obj 40 273 tgl 15 1 \$1-reverse \$1-reverse_rcv reverse 17 7 1 10
#9bc9dd #000000 #ffffff 0 1;
#X obj 94 273 tgl 15 1 \$1-reverse_random \$1-reverse_random_rcv reverse\\\ random
17 7 1 10 #9bc9dd #000000 #ffffff 0 1;
#X obj 173 305 bng 15 250 50 0 \$1-reset_pitch \$1-reset_pitch_rcv
empty 17 7 1 10 #9bc9dd #000000 #000000;
#X obj 43 336 hsl 128 15 0 1 0 1 \$1-random_pitch \$1-random_pitch_rcv
pitch\\\ random -2 -4 1 10 #9bc9dd #ffffff #ffffff 0 1;
#X obj 43 371 hsl 128 15 0.001 1 0 1 \$1-grain_size \$1-grain_size_rcv
grain\\\ size -2 -4 1 10 #eab8fe #ffffff #ffffff 1357 1;
#X obj 43 400 hsl 128 15 0.002 1 0 1 \$1-grain_density \$1-grain_density_rcv
grain\\\ density -2 -4 1 10 #eab8fe #ffffff #ffffff 399 1;
#X obj 43 429 hsl 128 15 0 1 0 1 \$1-grainplay_chance \$1-grainplay_chance_rcv
grainplay\\\ chance -2 -4 1 10 #eab8fe #ffffff #ffffff 12700 1;
#X obj 292 121 vu 8 80 \$1-input_vu-L empty 20 10 1 24 #404040 #000000
0 0;
#X obj 304 121 vu 8 80 \$1-input_vu-R empty 20 10 1 24 #404040 #000000
0 0;
#X msg 368 476 vis 1;
#N canvas 441 25 447 847 \$1-help 1;
#X obj 20 24 cnv 15 400 800 empty empty ys.granular 20 12 1 25 #f1f4f4
#404040 0;
#X text 35 222 most parameters can be accessed through send/receive
objects. to control a parameter the best option is to use the "receive"
setting for the GUI slider (or toggle or bang).;
#X obj 216 306 loadbang;
#X obj 216 327 i \$1;
#X floatatom 216 348 5 0 0 1 this\ is\ the\ identifier - - 0;
#X obj 39 347 send \$1-sample_offset_rcv;
#X obj 42 323 hsl 128 15 0 1 0 0 empty empty empty -2 -8 0 10 #fcfcfc
#000000 #000000 0 1;
#X text 33 305 try me!;
#X text 33 405 nearly all of the parameters are float values between
0-1.;
#X text 33 427 for "pitch" \, the pitch is unchanged at a value of
0.25.;
#X msg 34 564 \; \$1-grain_pitch_rcv 0.25 \; \$1-grain_size_rcv 0.5
\; \$1-sample_offset_rcv 0.5 \; \$1-offset_random_rcv 0.02 \; \$1-random_pitch_rcv
0 \; \$1-random_panning_rcv 0.6 \; \$1-global_pan_rcv 0.5 \; \$1-autoplay_speed_rcv
0.25 \; \$1-autoplay_reverse_rcv 0 \; \$1-freeze_rcv 0 \; \$1-autoplay_on_off_rcv
0 \; \$1-on_off_rcv 1 \; \$1-volume_rcv 1 \; \$1-num_channels_rcv 2
\; \$1-reverse_rcv 0 \; \$1-reverse_random_rcv 0 \; \$1-grain_density_rcv
0.1 \; \$1-grainplay_chance_rcv 1 \;;
#X obj 34 510 i \$1;
#X floatatom 34 531 5 0 0 1 this\ is\ the\ identifier - - 0;
#X obj 34 482 bng 15 250 50 0 empty empty load\\\ a\\\ set\\\ of\\\ values
17 7 0 10 #fcfcfc #000000 #000000;
#X text 33 449 you can change a bunch of values at once using a message
box like this...like a really clunky preset manager:;
#X text 209 609 a few that aren't listed there:;
#X msg 220 751 \; pd dsp 1;
#X obj 220 726 loadbang;
#X text 210 635 \$1-choose_sound_rcv;
#X text 34 785 the send names for all of the GUI objects are the same
as above \, without the "_rcv" suffix.;
#X text 210 651 \$1-reset_pitch_rcv;
#X text 334 636 (bang);
#X text 333 652 (bang);
#X text 209 669 \$1-record_rcv (toggle);
#X text 208 686 \$1-play_one_grain_rcv;
#X text 341 687 (bang);
#X text 40 548 see this list for the accessible parameter names.;
#X obj 40 65 cnv 15 1 1 empty empty a\\\ pretty\\\ standard\\\ granular\\\ audio\\\ exploration\\\ system
0 0 0 12 #f1f3f3 #404040 0;
#X obj 39 88 cnv 15 1 1 empty empty yannseznec.com\\\ yann@yannseznec.com
0 0 0 12 #f1f3f3 #404040 0;
#X text 35 181 you can have multiple instances of ys.granular_main.pd
running \, so long as they each have different identifier numbers.
;
#X text 34 271 these are accessed with the identifier number followed
by the name. from within the patch (like right now) \, use \$1.;
#X text 34 372 from outside the patch \, the equivalent send argument
would be "1-sample_offset_rcv".;
#X text 35 157 thanks to Balwyn on the Pd forums for the nice waveform!
;
#X text 35 101 to use \, create a top-level patch and add the ys.granular_main.pd
patch as an object \, with an integer argument that acts as an identifier.
A second optional argument sets the sound file that is loaded on startup.
;
#X msg 256 499 0.5;
#X msg 288 500 0.25;
#X msg 328 501 0.125;
#X msg 374 501 1;
#X text 251 481 [bonus tip! octaves!];
#X obj 256 525 s \$1-grain_pitch_rcv;
#X connect 2 0 3 0;
#X connect 3 0 4 0;
#X connect 6 0 5 0;
#X connect 11 0 12 0;
#X connect 12 0 10 0;
#X connect 13 0 11 0;
#X connect 17 0 16 0;
#X connect 34 0 39 0;
#X connect 35 0 39 0;
#X connect 36 0 39 0;
#X connect 37 0 39 0;
#X coords 0 847 1 846 85 10 0;
#X restore 13 566 pd \$1-help;
#X f 15;
#X obj 368 497 s pd-\$1-help;
#X obj 230 451 bng 15 250 50 0 \$1-help empty help 17 7 0 10 #fcfcfc
#000000 #000000;
#X obj 370 457 r \$1-help;
#X obj 309 81 bng 10 250 50 0 \$1-choose_sound \$1-choose_sound_rcv
choose\\\ sound -66 5 1 10 #c7c6ff #000000 #000000;
#X obj 309 95 bng 10 250 50 0 \$1-clear \$1-clear_rcv clear\\\ array
-53 5 1 10 #c7c6ff #000000 #2f004d;
#N canvas 878 406 772 493 \$0-graph-subpatch 0;
#N canvas 910 69 450 707 \$0-graph 0;
#X scalar 1004-scope 0 0.5 1024 -1.5 999 999 900 990 452 \; -1.50022
\; -1.50404 \; -1.50381 \; -1.50652 \; -1.51598 \; -1.51386 \; -1.51527
\; -1.5116 \; -1.52041 \; -1.52099 \; -1.52186 \; -1.52732 \; -1.52199
\; -1.5399 \; -1.53807 \; -1.53548 \; -1.53572 \; -1.50462 \; -1.53424
\; -1.52412 \; -1.52927 \; -1.52482 \; -1.50661 \; -1.53028 \; -1.51961
\; -1.52492 \; -1.49681 \; -1.52114 \; -1.51382 \; -1.51896 \; -1.52449
\; -1.52216 \; -1.52341 \; -1.51541 \; -1.51221 \; -1.52533 \; -1.51867
\; -1.51535 \; -1.51685 \; -1.52299 \; -1.55083 \; -1.53032 \; -1.55442
\; -1.53322 \; -1.5411 \; -1.53225 \; -1.5136 \; -1.51483 \; -1.50738
\; -1.50894 \; -1.53117 \; -1.53678 \; -1.55825 \; -1.53808 \; -1.53998
\; -1.52083 \; -1.53388 \; -1.51883 \; -1.52473 \; -1.51446 \; -1.50616
\; -1.52381 \; -1.52832 \; -1.53654 \; -1.53558 \; -1.53355 \; -1.53714
\; -1.50722 \; -1.52155 \; -1.55424 \; -1.59981 \; -1.56093 \; -1.56292
\; -1.56135 \; -1.70632 \; -1.56081 \; -1.80597 \; -1.68259 \; -1.84176
\; -1.65182 \; -1.75838 \; -1.61258 \; -1.72038 \; -1.61482 \; -1.73956
\; -1.73784 \; -1.76586 \; -1.79484 \; -1.74038 \; -1.79007 \; -1.6546
\; -1.76539 \; -1.64633 \; -1.78045 \; -1.77849 \; -1.81472 \; -1.87579
\; -1.74787 \; -1.91598 \; -1.76995 \; -1.93799 \; -1.79102 \; -1.93716
\; -1.90454 \; -1.80995 \; -1.91637 \; -1.68202 \; -1.93311 \; -1.83015
\; -1.94081 \; -1.92243 \; -1.83476 \; -1.89631 \; -1.74648 \; -1.82279
\; -1.73319 \; -1.74343 \; -1.70755 \; -1.74624 \; -1.65384 \; -1.77781
\; -1.74343 \; -1.776 \; -1.66329 \; -1.66709 \; -1.58009 \; -1.61814
\; -1.54798 \; -1.59678 \; -1.55323 \; -1.60024 \; -1.62245 \; -1.61023
\; -1.6342 \; -1.60078 \; -1.58906 \; -1.578 \; -1.53839 \; -1.58263
\; -1.51502 \; -1.58146 \; -1.53108 \; -1.57761 \; -1.57687 \; -1.55192
\; -1.54894 \; -1.56298 \; -1.55384 \; -1.5733 \; -1.51974 \; -1.56051
\; -1.56916 \; -1.55844 \; -1.56399 \; -1.54469 \; -1.52647 \; -1.50551
\; -1.53441 \; -1.49894 \; -1.54053 \; -1.51069 \; -1.52237 \; -1.51798
\; -1.51467 \; -1.51441 \; -1.50717 \; -1.52112 \; -1.52186 \; -1.53131
\; -1.53799 \; -1.5365 \; -1.53133 \; -1.53454 \; -1.52809 \; -1.53462
\; -1.52048 \; -1.50588 \; -1.52682 \; -1.50181 \; -1.52226 \; -1.50174
\; -1.53598 \; -1.53279 \; -1.54051 \; -1.52304 \; -1.51012 \; -1.52432
\; -1.51711 \; -1.51143 \; -1.52643 \; -1.52229 \; -1.51538 \; -1.51982
\; -1.51643 \; -1.54216 \; -1.50656 \; -1.54505 \; -1.52463 \; -1.5471
\; -1.54974 \; -1.53729 \; -1.54853 \; -1.52269 \; -1.53577 \; -1.53144
\; -1.52431 \; -1.54654 \; -1.55506 \; -1.54958 \; -1.54995 \; -1.51494
\; -1.53772 \; -1.54393 \; -1.53991 \; -1.52403 \; -1.53145 \; -1.52168
\; -1.53447 \; -1.51998 \; -1.53201 \; -1.53373 \; -1.53641 \; -1.53575
\; -1.52113 \; -1.53835 \; -1.5534 \; -1.55432 \; -1.58325 \; -1.5771
\; -1.55249 \; -1.6102 \; -1.60614 \; -1.57345 \; -1.61711 \; -1.57487
\; -1.67151 \; -1.77575 \; -1.82219 \; -1.50705 \; -1.72345 \; -1.88298
\; -1.93372 \; -1.51813 \; -1.82879 \; -1.85568 \; -1.86674 \; -1.53969
\; -1.99419 \; -1.86431 \; -1.83036 \; -1.60657 \; -2.01985 \; -1.79974
\; -1.6553 \; -1.61409 \; -1.98189 \; -1.75893 \; -1.63241 \; -1.94515
\; -1.89518 \; -1.76968 \; -1.59286 \; -1.93746 \; -1.81512 \; -1.57315
\; -1.77668 \; -1.90033 \; -1.95436 \; -1.52394 \; -1.87094 \; -1.89863
\; -1.93356 \; -1.53323 \; -1.89462 \; -1.91165 \; -1.60371 \; -1.76925
\; -1.83044 \; -1.91751 \; -1.40241 \; -1.81052 \; -1.86033 \; -1.8386
\; -1.53709 \; -1.78244 \; -1.75343 \; -1.6914 \; -1.64281 \; -1.84307
\; -1.71136 \; -1.44751 \; -1.67628 \; -1.74803 \; -1.60985 \; -1.36532
\; -1.6319 \; -1.85627 \; -1.59931 \; -1.42754 \; -1.65828 \; -1.79102
\; -1.4492 \; -1.55633 \; -1.70681 \; -1.72787 \; -1.46705 \; -1.57665
\; -1.68878 \; -1.69108 \; -1.42337 \; -1.52737 \; -1.66673 \; -1.58026
\; -1.45361 \; -1.53994 \; -1.61408 \; -1.55852 \; -1.48564 \; -1.57282
\; -1.57743 \; -1.53535 \; -1.53892 \; -1.50189 \; -1.57593 \; -1.54152
\; -1.52535 \; -1.52659 \; -1.55514 \; -1.54132 \; -1.54996 \; -1.52958
\; -1.55964 \; -1.54992 \; -1.50761 \; -1.5214 \; -1.5872 \; -1.5735
\; -1.56926 \; -1.54709 \; -1.56456 \; -1.56894 \; -1.5061 \; -1.51717
\; -1.60192 \; -1.59398 \; -1.46797 \; -1.5332 \; -1.57348 \; -1.55034
\; -1.4972 \; -1.51953 \; -1.58936 \; -1.56933 \; -1.48707 \; -1.57169
\; -1.57898 \; -1.53804 \; -1.45959 \; -1.61475 \; -1.59411 \; -1.5101
\; -1.47695 \; -1.58647 \; -1.58685 \; -1.53098 \; -1.47241 \; -1.60126
\; -1.58186 \; -1.47841 \; -1.53692 \; -1.5799 \; -1.56035 \; -1.50184
\; -1.53979 \; -1.57686 \; -1.55704 \; -1.49556 \; -1.57014 \; -1.55636
\; -1.53511 \; -1.48088 \; -1.56437 \; -1.56743 \; -1.55216 \; -1.4984
\; -1.55469 \; -1.54733 \; -1.49734 \; -1.49027 \; -1.56201 \; -1.53804
\; -1.51949 \; -1.50231 \; -1.53721 \; -1.52798 \; -1.51121 \; -1.50066
\; -1.53749 \; -1.51946 \; -1.50049 \; -1.48776 \; -1.54629 \; -1.53072
\; -1.50342 \; -1.51542 \; -1.51826 \; -1.52683 \; -1.49794 \; -1.49543
\; -1.52784 \; -1.5304 \; -1.51237 \; -1.50705 \; -1.52725 \; -1.52899
\; -1.49715 \; -1.49985 \; -1.5298 \; -1.51752 \; -1.50843 \; -1.51947
\; -1.53539 \; -1.52802 \; -1.49991 \; -1.5154 \; -1.53576 \; -1.52408
\; -1.50369 \; -1.52276 \; -1.53407 \; -1.52279 \; -1.50459 \; -1.53747
\; -1.53641 \; -1.51697 \; -1.50567 \; -1.51506 \; -1.52722 \; -1.49771
\; -1.5054 \; -1.51265 \; -1.51445 \; -1.51009 \; -1.50767 \; -1.52551
\; -1.54169 \; -1.51421 \; -1.50852 \; -1.52335 \; -1.51288 \; -1.5127
\; -1.52252 \; -1.52403 \; -1.50449 \; -1.50855 \; -1.51426 \; -1.5109
\; -1.49941 \; -1.50142 \; -1.53161 \; -1.53005 \; -1.51239 \; -1.52426
\; -1.53344 \; -1.51553 \; -1.52772 \; -1.52527 \; -1.52605 \; -1.52596
\; -1.51329 \; -1.53459 \; -1.52036 \; -1.52891 \; -1.51129 \; -1.51994
\; -1.5399 \; -1.52745 \; -1.51219 \; -1.52022 \; -1.5323 \; -1.51038
\; -1.51209 \; -1.51621 \; -1.51375 \; -1.50663 \; -1.49616 \; -1.5065
\; -1.53991 \; -1.51037 \; -1.5251 \; -1.53048 \; -1.52851 \; -1.52211
\; -1.50783 \; -1.53201 \; -1.52952 \; -1.50875 \; -1.50572 \; -1.5421
\; -1.52257 \; -1.51026 \; -1.50162 \; -1.52222 \; -1.53153 \; -1.49942
\; -1.51953 \; -1.52441 \; -1.53453 \; -1.51587 \; -1.51901 \; -1.54282
\; -1.53536 \; -1.52016 \; -1.527 \; -1.52849 \; -1.52782 \; -1.50865
\; -1.52662 \; -1.53011 \; -1.52992 \; -1.51634 \; -1.51773 \; -1.52101
\; -1.52367 \; -1.50797 \; -1.50989 \; -1.51975 \; -1.53618 \; -1.51172
\; -1.52827 \; -1.54284 \; -1.53996 \; -1.50271 \; -1.53235 \; -1.53131
\; -1.50584 \; -1.50318 \; -1.52329 \; -1.51758 \; -1.51213 \; -1.4963
\; -1.51699 \; -1.52826 \; -1.51793 \; -1.50302 \; -1.51695 \; -1.51469
\; -1.50683 \; -1.49825 \; -1.51627 \; -1.52639 \; -1.51901 \; -1.51818
\; -1.53483 \; -1.52887 \; -1.51001 \; -1.51825 \; -1.52893 \; -1.52993
\; -1.5116 \; -1.5143 \; -1.5261 \; -1.51338 \; -1.52349 \; -1.51934
\; -1.50863 \; -1.51284 \; -1.50503 \; -1.50329 \; -1.51512 \; -1.5194
\; -1.50797 \; -1.50276 \; -1.50938 \; -1.59358 \; -1.51795 \; -1.56143
\; -1.76483 \; -1.76798 \; -2.01384 \; -1.99267 \; -2.09274 \; -1.87427
\; -2.10304 \; -1.78853 \; -2.01722 \; -1.82067 \; -1.83595 \; -1.74348
\; -1.72893 \; -1.84475 \; -1.67737 \; -1.86443 \; -1.67167 \; -1.82343
\; -1.60428 \; -1.81021 \; -1.85859 \; -1.90476 \; -2.02854 \; -1.90375
\; -2.1732 \; -1.99933 \; -2.17641 \; -2.06828 \; -1.99128 \; -2.03463
\; -1.7772 \; -2.07571 \; -1.98336 \; -1.76954 \; -1.9188 \; -2.05415
\; -2.03179 \; -2.06301 \; -1.87441 \; -2.03434 \; -2.02021 \; -2.00397
\; -2.04908 \; -2.08135 \; -1.97087 \; -2.07008 \; -1.87641 \; -1.96495
\; -1.82353 \; -1.7645 \; -1.57347 \; -1.60553 \; -1.61376 \; -1.57751
\; -1.60377 \; -1.65718 \; -1.66511 \; -1.59635 \; -1.59724 \; -1.57951
\; -1.65885 \; -1.53122 \; -1.65574 \; -1.58302 \; -1.59821 \; -1.56115
\; -1.52149 \; -1.57269 \; -1.55056 \; -1.52789 \; -1.51653 \; -1.56196
\; -1.56394 \; -1.56215 \; -1.52208 \; -1.53197 \; -1.53325 \; -1.53762
\; -1.50709 \; -1.53503 \; -1.54949 \; -1.53189 \; -1.52423 \; -1.5353
\; -1.56867 \; -1.58196 \; -1.5482 \; -1.57809 \; -1.54621 \; -1.55824
\; -1.52793 \; -1.55298 \; -1.55705 \; -1.52179 \; -1.50596 \; -1.57711
\; -1.53857 \; -1.55603 \; -1.51767 \; -1.54784 \; -1.53532 \; -1.52902
\; -1.52931 \; -1.54187 \; -1.54851 \; -1.54802 \; -1.5341 \; -1.56342
\; -1.54109 \; -1.51026 \; -1.52902 \; -1.53778 \; -1.53395 \; -1.53491
\; -1.5454 \; -1.55306 \; -1.53151 \; -1.5246 \; -1.54473 \; -1.53078
\; -1.53539 \; -1.51067 \; -1.51395 \; -1.52335 \; -1.5232 \; -1.521
\; -1.515 \; -1.52033 \; -1.51806 \; -1.50611 \; -1.51205 \; -1.52428
\; -1.5197 \; -1.51294 \; -1.50564 \; -1.53162 \; -1.50917 \; -1.51438
\; -1.49198 \; -1.53425 \; -1.52684 \; -1.51323 \; -1.52705 \; -1.52663
\; -1.52919 \; -1.50686 \; -1.52056 \; -1.52008 \; -1.54554 \; -1.52404
\; -1.52331 \; -1.53214 \; -1.52229 \; -1.51845 \; -1.52417 \; -1.52614
\; -1.52687 \; -1.53095 \; -1.51694 \; -1.52978 \; -1.52564 \; -1.52216
\; -1.52161 \; -1.53404 \; -1.5065 \; -1.51948 \; -1.52834 \; -1.51671
\; -1.50834 \; -1.50289 \; -1.52489 \; -1.52533 \; -1.51403 \; -1.50409
\; -1.52027 \; -1.52026 \; -1.51119 \; -1.50157 \; -1.51517 \; -1.51976
\; -1.51467 \; -1.51238 \; -1.52368 \; -1.52442 \; -1.51574 \; -1.52665
\; -1.51194 \; -1.52459 \; -1.50941 \; -1.51294 \; -1.51696 \; -1.52821
\; -1.52573 \; -1.51939 \; -1.51641 \; -1.53147 \; -1.52832 \; -1.5321
\; -1.51973 \; -1.51021 \; -1.53421 \; -1.51417 \; -1.52558 \; -1.52749
\; -1.53377 \; -1.53295 \; -1.50359 \; -1.51795 \; -1.5186 \; -1.51078
\; -1.50948 \; -1.5303 \; -1.50883 \; -1.50466 \; -1.51417 \; -1.53385
\; -1.51161 \; -1.51439 \; -1.52648 \; -1.52013 \; -1.52143 \; -1.51284
\; -1.51418 \; -1.52085 \; -1.51494 \; -1.51117 \; -1.52109 \; -1.51473
\; -1.50315 \; -1.50655 \; -1.5096 \; -1.52429 \; -1.50972 \; -1.51076
\; -1.51528 \; -1.52786 \; -1.5145 \; -1.51351 \; -1.52525 \; -1.52202
\; -1.52199 \; -1.51471 \; -1.52173 \; -1.51731 \; -1.52205 \; -1.51417
\; -1.51561 \; -1.53026 \; -1.52309 \; -1.50065 \; -1.51015 \; -1.52465
\; -1.52246 \; -1.50735 \; -1.51075 \; -1.5258 \; -1.51928 \; -1.50678
\; -1.5301 \; -1.55286 \; -1.54236 \; -1.52691 \; -1.54803 \; -1.69334
\; -1.57428 \; -1.57415 \; -1.82602 \; -1.81236 \; -1.75733 \; -1.66306
\; -1.85408 \; -2.01482 \; -1.9145 \; -1.81756 \; -1.79938 \; -2.07079
\; -1.92134 \; -1.74325 \; -1.77464 \; -1.95805 \; -2.0135 \; -1.79315
\; -1.89562 \; -2.04016 \; -2.04973 \; -1.90652 \; -1.95365 \; -1.94458
\; -1.9998 \; -1.9091 \; -1.93006 \; -1.83778 \; -2.02887 \; -1.91308
\; -1.96039 \; -1.93578 \; -2.05656 \; -1.79763 \; -2.08741 \; -2.0601
\; -2.08211 \; -1.79471 \; -2.00076 \; -2.02094 \; -2.00981 \; -1.6819
\; -1.854 \; -2.02059 \; -1.83527 \; -1.59523 \; -1.70355 \; -2.07855
\; -1.69806 \; -1.60018 \; -1.62047 \; -1.98789 \; -1.59655 \; -1.39302
\; -1.69001 \; -1.85664 \; -1.65839 \; -1.54367 \; -1.72273 \; -1.77444
\; -1.70365 \; -1.44813 \; -1.72164 \; -1.68664 \; -1.54208 \; -1.49688
\; -1.68907 \; -1.71776 \; -1.4417 \; -1.53022 \; -1.63609 \; -1.67558
\; -1.44793 \; -1.516 \; -1.62749 \; -1.62713 \; -1.42984 \; -1.53218
\; -1.59873 \; -1.63994 \; -1.45403 \; -1.5715 \; -1.62235 \; -1.58698
\; -1.47708 \; -1.54865 \; -1.58781 \; -1.56357 \; -1.44406 \; -1.56038
\; -1.61572 \; -1.55088 \; -1.50248 \; -1.56962 \; -1.62003 \; -1.55035
\; -1.50146 \; -1.56322 \; -1.63714 \; -1.49601 \; -1.49141 \; -1.57055
\; -1.63596 \; -1.50332 \; -1.50091 \; -1.5779 \; -1.58304 \; -1.50786
\; -1.49018 \; -1.59024 \; -1.60145 \; -1.49886 \; -1.53507 \; -1.56327
\; -1.57729 \; -1.4884 \; -1.48154 \; -1.58762 \; -1.57713 \; -1.47218
\; -1.5403 \; -1.57926 \; -1.57766 \; -1.49177 \; -1.54413 \; -1.57482
\; -1.54639 \; -1.48613 \; -1.52964 \; -1.58379 \; -1.54586 \; -1.48376
\; -1.54951 \; -1.55928 \; -1.53899 \; -1.46691 \; -1.5315 \; -1.57984
\; -1.52587 \; -1.47506 \; -1.55749 \; -1.5565 \; -1.52784 \; -1.472
\; -1.54274 \; -1.5696 \; -1.52148 \; -1.50625 \; -1.56747 \; -1.55349
\; -1.50417 \; -1.50255 \; -1.57469 \; -1.59705 \; -1.48882 \; -1.51655
\; -1.55847 \; -1.53443 \; -1.50772 \; -1.51758 \; -1.57897 \; -1.55856
\; -1.51554 \; -1.48807 \; -1.5667 \; -1.61294 \; -1.5674 \; -1.48019
\; -1.5 \; -1.5 \; -1.5 \; -1.5 \; -1.5 \; -1.5 \; -1.5 \; -1.5 \;
-1.5 \; -1.5 \; -1.5 \; -1.5 \; -1.5 \; -1.5 \; -1.5 \; \; -1.49838
\; -1.49892 \; -1.49244 \; -1.49228 \; -1.48831 \; -1.48673 \; -1.49268
\; -1.47619 \; -1.4935 \; -1.47025 \; -1.48497 \; -1.49219 \; -1.47946
\; -1.48621 \; -1.47079 \; -1.46288 \; -1.46875 \; -1.45958 \; -1.48268
\; -1.47941 \; -1.48509 \; -1.48339 \; -1.47721 \; -1.48611 \; -1.48198
\; -1.49715 \; -1.4738 \; -1.48549 \; -1.46391 \; -1.48028 \; -1.47665
\; -1.48032 \; -1.48865 \; -1.49026 \; -1.48664 \; -1.49083 \; -1.4746
\; -1.48056 \; -1.47386 \; -1.45668 \; -1.4686 \; -1.44399 \; -1.49238
\; -1.47269 \; -1.46785 \; -1.46252 \; -1.45561 \; -1.46728 \; -1.47428
\; -1.47233 \; -1.46453 \; -1.45138 \; -1.44948 \; -1.46616 \; -1.48632
\; -1.46008 \; -1.48655 \; -1.46628 \; -1.48381 \; -1.48441 \; -1.46869
\; -1.49936 \; -1.46004 \; -1.46037 \; -1.45438 \; -1.43902 \; -1.48664
\; -1.45015 \; -1.4327 \; -1.44214 \; -1.44204 \; -1.47956 \; -1.44615
\; -1.37172 \; -1.38626 \; -1.25199 \; -1.18471 \; -1.12565 \; -1.23509
\; -1.25705 \; -1.24552 \; -1.36307 \; -1.30951 \; -1.34133 \; -1.30621
\; -1.32415 \; -1.25965 \; -1.29733 \; -1.17879 \; -1.30927 \; -1.21292
\; -1.18758 \; -1.18925 \; -1.16439 \; -1.37061 \; -1.09298 \; -1.29319
\; -1.00804 \; -1.11219 \; -0.996136 \; -1.00034 \; -1.26162 \; -1.0353
\; -1.28553 \; -1.07193 \; -1.21239 \; -1.07817 \; -1.07968 \; -1.13911
\; -1.07419 \; -1.15903 \; -1.0993 \; -1.19126 \; -1.098 \; -1.16738
\; -1.1428 \; -1.16947 \; -1.2893 \; -1.26742 \; -1.28405 \; -1.26668
\; -1.31224 \; -1.25008 \; -1.41227 \; -1.3243 \; -1.38198 \; -1.37763
\; -1.3522 \; -1.40091 \; -1.39894 \; -1.49007 \; -1.38777 \; -1.42745
\; -1.3791 \; -1.38134 \; -1.37754 \; -1.37249 \; -1.40227 \; -1.42411
\; -1.45023 \; -1.41129 \; -1.41277 \; -1.37969 \; -1.46496 \; -1.40154
\; -1.48088 \; -1.43025 \; -1.47365 \; -1.4477 \; -1.44621 \; -1.44868
\; -1.43956 \; -1.45002 \; -1.44896 \; -1.45863 \; -1.48038 \; -1.46472
\; -1.46461 \; -1.46637 \; -1.48311 \; -1.47797 \; -1.50339 \; -1.48422
\; -1.48183 \; -1.48945 \; -1.47774 \; -1.47214 \; -1.48307 \; -1.45569
\; -1.49546 \; -1.45854 \; -1.47647 \; -1.48141 \; -1.45972 \; -1.46747
\; -1.46759 \; -1.47666 \; -1.4693 \; -1.47299 \; -1.49102 \; -1.48613
\; -1.47221 \; -1.48453 \; -1.44211 \; -1.49627 \; -1.46525 \; -1.47348
\; -1.48303 \; -1.47114 \; -1.49815 \; -1.48445 \; -1.49774 \; -1.48612
\; -1.48869 \; -1.46709 \; -1.46894 \; -1.46037 \; -1.4596 \; -1.45211
\; -1.47448 \; -1.44874 \; -1.45432 \; -1.44585 \; -1.43268 \; -1.46332
\; -1.43662 \; -1.47037 \; -1.45416 \; -1.47287 \; -1.47203 \; -1.46756
\; -1.4468 \; -1.46599 \; -1.44529 \; -1.4747 \; -1.45453 \; -1.45836
\; -1.48282 \; -1.47106 \; -1.45179 \; -1.45159 \; -1.44174 \; -1.48847
\; -1.45193 \; -1.47154 \; -1.46603 \; -1.452 \; -1.43249 \; -1.45223
\; -1.48303 \; -1.46613 \; -1.3033 \; -1.41968 \; -1.39155 \; -1.35807
\; -1.22595 \; -1.19224 \; -1.19439 \; -1.2362 \; -1.44947 \; -1.16756
\; -1.16848 \; -1.12971 \; -1.33569 \; -1.21246 \; -1.05582 \; -1.13106
\; -1.38857 \; -1.17887 \; -1.03078 \; -1.3036 \; -1.4034 \; -1.18072
\; -0.929435 \; -1.43599 \; -1.3204 \; -1.2477 \; -0.98462 \; -1.55052
\; -1.38886 \; -1.07165 \; -1.09385 \; -1.46094 \; -1.45667 \; -1.06133
\; -1.09211 \; -1.31638 \; -1.3569 \; -1.01277 \; -1.40447 \; -1.31819
\; -0.978887 \; -1.0054 \; -1.3819 \; -1.31888 \; -1.053 \; -1.22902
\; -1.30021 \; -1.40505 \; -1.08554 \; -1.37261 \; -1.32036 \; -1.10406
\; -1.06291 \; -1.49378 \; -1.37226 \; -1.15937 \; -1.20104 \; -1.4182
\; -1.44404 \; -1.16317 \; -1.32833 \; -1.54123 \; -1.37239 \; -1.25616
\; -1.34394 \; -1.59518 \; -1.26753 \; -1.3555 \; -1.43222 \; -1.45257
\; -1.35812 \; -1.28516 \; -1.55735 \; -1.46997 \; -1.30025 \; -1.31345
\; -1.52286 \; -1.42658 \; -1.3746 \; -1.37151 \; -1.53041 \; -1.3861
\; -1.39603 \; -1.4533 \; -1.5436 \; -1.44421 \; -1.42524 \; -1.47265
\; -1.53798 \; -1.43651 \; -1.43456 \; -1.43457 \; -1.5003 \; -1.43871
\; -1.43124 \; -1.46722 \; -1.49643 \; -1.47045 \; -1.43779 \; -1.4276
\; -1.46338 \; -1.46268 \; -1.45704 \; -1.44099 \; -1.44693 \; -1.49033
\; -1.4144 \; -1.39072 \; -1.47079 \; -1.47992 \; -1.42076 \; -1.42562
\; -1.4971 \; -1.47766 \; -1.42857 \; -1.39931 \; -1.51503 \; -1.47322
\; -1.40628 \; -1.43926 \; -1.52168 \; -1.454 \; -1.41312 \; -1.47664
\; -1.53882 \; -1.45115 \; -1.42597 \; -1.447 \; -1.51255 \; -1.41856
\; -1.41421 \; -1.4767 \; -1.53077 \; -1.42909 \; -1.43449 \; -1.46446
\; -1.45492 \; -1.43547 \; -1.43233 \; -1.52726 \; -1.49832 \; -1.41848
\; -1.42339 \; -1.52546 \; -1.45244 \; -1.42932 \; -1.44376 \; -1.51234
\; -1.48437 \; -1.40403 \; -1.47907 \; -1.51589 \; -1.42974 \; -1.44958
\; -1.47207 \; -1.49884 \; -1.45544 \; -1.43935 \; -1.48235 \; -1.48885
\; -1.4676 \; -1.47053 \; -1.50183 \; -1.51508 \; -1.47091 \; -1.47437
\; -1.49758 \; -1.49621 \; -1.48008 \; -1.46476 \; -1.48332 \; -1.48278
\; -1.47258 \; -1.47573 \; -1.48482 \; -1.49244 \; -1.48151 \; -1.48046
\; -1.4965 \; -1.48351 \; -1.48294 \; -1.48473 \; -1.48933 \; -1.49085
\; -1.47164 \; -1.47289 \; -1.48434 \; -1.47174 \; -1.48892 \; -1.4638
\; -1.5006 \; -1.47778 \; -1.45291 \; -1.45839 \; -1.49041 \; -1.49561
\; -1.45677 \; -1.48093 \; -1.4923 \; -1.46586 \; -1.47441 \; -1.49421
\; -1.49819 \; -1.47662 \; -1.47022 \; -1.47952 \; -1.48778 \; -1.47773
\; -1.47666 \; -1.49854 \; -1.48451 \; -1.4651 \; -1.47293 \; -1.4935
\; -1.47021 \; -1.48272 \; -1.48935 \; -1.50445 \; -1.4799 \; -1.48581
\; -1.49023 \; -1.50032 \; -1.48028 \; -1.4704 \; -1.49146 \; -1.4845
\; -1.48149 \; -1.47636 \; -1.49645 \; -1.48708 \; -1.48147 \; -1.47331
\; -1.47449 \; -1.47454 \; -1.46426 \; -1.47109 \; -1.47722 \; -1.49516
\; -1.46947 \; -1.46829 \; -1.46591 \; -1.46621 \; -1.47397 \; -1.467
\; -1.49369 \; -1.46116 \; -1.47167 \; -1.47202 \; -1.4919 \; -1.49599
\; -1.46133 \; -1.50056 \; -1.49999 \; -1.48782 \; -1.47593 \; -1.48497
\; -1.48439 \; -1.4944 \; -1.45959 \; -1.49649 \; -1.49411 \; -1.46709
\; -1.47235 \; -1.48194 \; -1.50201 \; -1.47707 \; -1.46343 \; -1.47583
\; -1.48996 \; -1.46517 \; -1.47659 \; -1.49064 \; -1.4901 \; -1.4731
\; -1.4843 \; -1.477 \; -1.46723 \; -1.47061 \; -1.46277 \; -1.50184
\; -1.46463 \; -1.46791 \; -1.45681 \; -1.46668 \; -1.4715 \; -1.44785
\; -1.48673 \; -1.47465 \; -1.49002 \; -1.4629 \; -1.48081 \; -1.49064
\; -1.47248 \; -1.47273 \; -1.48692 \; -1.49799 \; -1.47044 \; -1.47309
\; -1.47323 \; -1.4846 \; -1.46641 \; -1.47422 \; -1.46653 \; -1.49598
\; -1.48953 \; -1.46239 \; -1.47797 \; -1.49935 \; -1.48357 \; -1.46509
\; -1.48834 \; -1.49814 \; -1.47753 \; -1.47561 \; -1.49875 \; -1.50356
\; -1.47688 \; -1.47178 \; -1.48072 \; -1.49589 \; -1.45798 \; -1.47847
\; -1.47482 \; -1.48554 \; -1.46704 \; -1.4767 \; -1.48266 \; -1.47388
\; -1.486 \; -1.46581 \; -1.48397 \; -1.47957 \; -1.47049 \; -1.47216
\; -1.49683 \; -1.49693 \; -1.48322 \; -1.48577 \; -1.4908 \; -1.49799
\; -1.4811 \; -1.43632 \; -1.42471 \; -1.47531 \; -1.46706 \; -1.41535
\; -1.38344 \; -1.14253 \; -1.30471 \; -0.933182 \; -0.979996 \; -0.892417
\; -1.04669 \; -0.992628 \; -1.20419 \; -1.19372 \; -1.21329 \; -1.29506
\; -1.1573 \; -1.32736 \; -1.01282 \; -1.24739 \; -1.09328 \; -1.26541
\; -1.09059 \; -1.07985 \; -1.32343 \; -0.903435 \; -1.20068 \; -0.74668
\; -0.661438 \; -0.865272 \; -0.803626 \; -1.33755 \; -0.906793 \;
-0.927943 \; -1.16725 \; -0.894916 \; -1.25711 \; -0.946552 \; -0.868848
\; -1.29205 \; -0.807427 \; -0.916508 \; -1.08165 \; -0.860587 \; -1.0333
\; -0.844591 \; -0.861397 \; -1.23172 \; -0.871698 \; -0.885379 \;
-1.08368 \; -1.00825 \; -1.2149 \; -1.11701 \; -1.37358 \; -1.39617
\; -1.49176 \; -1.3976 \; -1.32953 \; -1.37028 \; -1.37211 \; -1.35728
\; -1.39087 \; -1.36669 \; -1.44733 \; -1.35034 \; -1.37747 \; -1.42679
\; -1.43445 \; -1.4256 \; -1.41502 \; -1.45477 \; -1.50056 \; -1.44197
\; -1.40983 \; -1.46841 \; -1.42923 \; -1.44523 \; -1.44862 \; -1.45385
\; -1.45343 \; -1.50487 \; -1.43111 \; -1.46705 \; -1.46773 \; -1.46222
\; -1.45653 \; -1.47202 \; -1.44087 \; -1.44721 \; -1.41745 \; -1.43506
\; -1.4693 \; -1.45924 \; -1.45091 \; -1.4364 \; -1.4596 \; -1.4742
\; -1.4479 \; -1.44377 \; -1.4682 \; -1.46052 \; -1.42512 \; -1.47132
\; -1.47284 \; -1.46517 \; -1.4204 \; -1.45691 \; -1.4468 \; -1.46914
\; -1.41985 \; -1.46867 \; -1.46472 \; -1.45367 \; -1.46349 \; -1.47918
\; -1.46957 \; -1.45771 \; -1.45154 \; -1.46669 \; -1.44609 \; -1.43617
\; -1.46388 \; -1.47609 \; -1.45611 \; -1.48966 \; -1.45553 \; -1.49561
\; -1.47108 \; -1.48064 \; -1.47546 \; -1.49434 \; -1.49214 \; -1.48591
\; -1.48116 \; -1.49263 \; -1.49906 \; -1.47473 \; -1.47356 \; -1.49442
\; -1.48881 \; -1.46671 \; -1.47071 \; -1.49031 \; -1.4855 \; -1.46706
\; -1.4746 \; -1.48758 \; -1.49885 \; -1.47518 \; -1.47926 \; -1.48935
\; -1.47329 \; -1.47207 \; -1.47263 \; -1.49189 \; -1.47352 \; -1.4696
\; -1.48049 \; -1.48374 \; -1.46926 \; -1.44895 \; -1.47448 \; -1.47835
\; -1.47562 \; -1.47363 \; -1.49041 \; -1.49088 \; -1.48817 \; -1.48205
\; -1.47802 \; -1.48811 \; -1.49031 \; -1.48576 \; -1.46814 \; -1.47987
\; -1.47983 \; -1.46362 \; -1.46469 \; -1.48035 \; -1.47901 \; -1.48376
\; -1.48291 \; -1.48232 \; -1.47814 \; -1.4817 \; -1.47722 \; -1.47683
\; -1.4864 \; -1.47975 \; -1.48053 \; -1.48073 \; -1.47157 \; -1.48214
\; -1.46971 \; -1.48411 \; -1.46984 \; -1.47825 \; -1.45243 \; -1.46309
\; -1.48388 \; -1.46747 \; -1.49183 \; -1.45702 \; -1.48172 \; -1.466
\; -1.47708 \; -1.48875 \; -1.47481 \; -1.49033 \; -1.48471 \; -1.49301
\; -1.48846 \; -1.48094 \; -1.47851 \; -1.48723 \; -1.48392 \; -1.47171
\; -1.47726 \; -1.47838 \; -1.49434 \; -1.45784 \; -1.49536 \; -1.49614
\; -1.47368 \; -1.46439 \; -1.48994 \; -1.50358 \; -1.47735 \; -1.48053
\; -1.48466 \; -1.49402 \; -1.47423 \; -1.47757 \; -1.49285 \; -1.49644
\; -1.47515 \; -1.4895 \; -1.4682 \; -1.47001 \; -1.46983 \; -1.46376
\; -1.49003 \; -1.47329 \; -1.48848 \; -1.47684 \; -1.46868 \; -1.46779
\; -1.47001 \; -1.47992 \; -1.47454 \; -1.48349 \; -1.46046 \; -1.47684
\; -1.49246 \; -1.47786 \; -1.47024 \; -1.4802 \; -1.48256 \; -1.47458
\; -1.47816 \; -1.48035 \; -1.46487 \; -1.45373 \; -1.49125 \; -1.47144
\; -1.46041 \; -1.51174 \; -1.26324 \; -1.25218 \; -1.58373 \; -1.1489
\; -1.15002 \; -1.31319 \; -1.32748 \; -0.949893 \; -0.850281 \; -1.0811
\; -1.31377 \; -0.914671 \; -0.751923 \; -0.889287 \; -1.49329 \; -1.27965
\; -0.741687 \; -0.781729 \; -1.492 \; -1.54855 \; -0.609952 \; -0.888685
\; -1.1943 \; -1.46079 \; -0.611679 \; -0.976064 \; -0.989033 \; -1.59908
\; -0.5 \; -0.791341 \; -1.02141 \; -1.5097 \; -0.622427 \; -0.654673
\; -0.983262 \; -1.43649 \; -0.677208 \; -0.739333 \; -1.10652 \; -1.5234
\; -0.742497 \; -0.743444 \; -1.26762 \; -1.53741 \; -0.91459 \; -0.886207
\; -1.33058 \; -1.49199 \; -1.05127 \; -0.935911 \; -1.38647 \; -1.55614
\; -1.35601 \; -0.996492 \; -1.40911 \; -1.56514 \; -1.30727 \; -1.13966
\; -1.30299 \; -1.53536 \; -1.29431 \; -1.30638 \; -1.35557 \; -1.50735
\; -1.35237 \; -1.41133 \; -1.41815 \; -1.39499 \; -1.3454 \; -1.37924
\; -1.53119 \; -1.44664 \; -1.35647 \; -1.38205 \; -1.51642 \; -1.43621
\; -1.38655 \; -1.40123 \; -1.51804 \; -1.44337 \; -1.37168 \; -1.37218
\; -1.55476 \; -1.45805 \; -1.40721 \; -1.44002 \; -1.55022 \; -1.43466
\; -1.4008 \; -1.43591 \; -1.55279 \; -1.39032 \; -1.37975 \; -1.41854
\; -1.52551 \; -1.36579 \; -1.36617 \; -1.44591 \; -1.50397 \; -1.4447
\; -1.39443 \; -1.4481 \; -1.50404 \; -1.41923 \; -1.4093 \; -1.5059
\; -1.51258 \; -1.41288 \; -1.38989 \; -1.48267 \; -1.49255 \; -1.40156
\; -1.4401 \; -1.51536 \; -1.49265 \; -1.41297 \; -1.40562 \; -1.47335
\; -1.46802 \; -1.43575 \; -1.44282 \; -1.53884 \; -1.49372 \; -1.43855
\; -1.43968 \; -1.54655 \; -1.47084 \; -1.4279 \; -1.45103 \; -1.52507
\; -1.48247 \; -1.40978 \; -1.44528 \; -1.54073 \; -1.46688 \; -1.4313
\; -1.44238 \; -1.52086 \; -1.44892 \; -1.42831 \; -1.47416 \; -1.52921
\; -1.46335 \; -1.43728 \; -1.47545 \; -1.51849 \; -1.43452 \; -1.45001
\; -1.49058 \; -1.51005 \; -1.45555 \; -1.44814 \; -1.48049 \; -1.4593
\; -1.45207 \; -1.44759 \; -1.50647 \; -1.4955 \; -1.45393 \; -1.43485
\; -1.51353 \; -1.50795 \; -1.40799 \; -1.40031 \; -1.47403 \; -1.56247
\; -1.48075 \; -1.43459 \; -1.4481 \; -1.5 \; -1.5 \; -1.5 \; -1.5
\; -1.5 \; -1.5 \; -1.5 \; -1.5 \; -1.5 \; -1.5 \; -1.5 \; -1.5 \;
-1.5 \; -1.5 \; \;;
#X coords 0 -1 1024 1 180 82 1;
#X restore 1 1 pd \$0-graph;
#X coords 0 -1 1024 1 180 82 1;
#X restore 24 45 pd \$0-graph-subpatch;
#N canvas 148 124 1226 748 nice_waveform 0;
#X obj 505 170 f \$0;
#X msg 505 118 bang;
#X obj 505 141 t b b;
#X obj 519 24 loadbang;
#X msg 664 219 \; pd-\$1-graph clear;
#X msg 638 257 traverse pd-\$1-graph \, bang;
#X obj 638 282 pointer;
#N canvas 722 164 680 479 \$0-scope-template 0;
#X obj 41 167 outlet;
#X obj 104 92 filledpolygon c1 c2 2 x y x1 y x1 y1 x y1 x y;
#X obj 40 23 struct \$0-scope float x float y float x1 float y1 float
c1 float c2 float c3 float c4 array vector-min \$0-scope-element array
vector-max \$0-scope-element float curx, f 100;
#X obj 171 247 plot -e 0 vector-min c3 1 y;
#X obj 169 271 plot -e 0 vector-max c3 1 y;
#X connect 2 0 0 0;
#X restore 107 340 pd \$0-scope-template;
#N canvas 478 253 450 300 \$0-scope-element 0;
#X obj 61 57 struct \$0-scope-element float y;
#X restore 107 361 pd \$0-scope-element;
#X obj 280 590 set \$0-scope-element y;
#X obj 280 565 - 1.5;
#X obj 505 191 t b f f;
#X text 131 424 number of plot elements = array size;
#X text 432 316 frame size and colours;
#X obj 91 712 s pd-\$0-graph;
#X msg 91 692 coords 0 -1 \$1 1 \$2 \$3 2;
#X msg 360 423 1024;
#X obj 840 335 float;
#X msg 859 237 0;
#X obj 840 303 until;
#X obj 931 336 / 1024;
#X obj 885 335 + 1;
#X obj 765 461 *;
#X msg 840 262 1024;
#X obj 318 657 set \$0-scope-element y;
#X obj 318 632 - 1.5;
#X obj 792 405 s \$0-index;
#X obj 792 381 int;
#X obj 409 539 r \$0-index;
#X obj 447 606 r \$0-index;
#X msg 361 473 1024;
#X obj 844 445 t f f f;
#X obj 447 631 element \$0-scope vector-min;
#X obj 409 562 element \$0-scope vector-max;
#X obj 361 501 setsize \$0-scope vector-min;
#X obj 360 451 setsize \$0-scope vector-max;
#X obj 765 351 t f f;
#X text 977 337 file size divided by array size;
#X obj 314 705 vsl 10 100 0 200 0 0 graph-height empty empty 0 -9 0
10 #feffc6 #ff0400 #000000 0 0;
#X obj 356 735 hsl 128 10 0 1000 0 0 graph-width empty scale-x 4 4
0 10 #feffc6 #ff0400 #000000 0 0;
#X msg 91 671 1024 \$1 \$2;
#X obj 91 652 pack;
#X obj 91 568 r graph-width;
#X obj 178 567 r graph-height;
#X obj 178 636 t b f;
#X obj 178 616 -;
#X msg 178 593 200 \$1;
#X text 314 714 scale-y, f 1;
#X obj 1291 270 samplerate~;
#X obj 1254 301 /;
#X obj 1231 254 t f b;
#X floatatom 1254 325 0 0 0 0 seconds - - 0;
#X floatatom 1254 398 0 0 0 0 display_width/seconds - - 0;
#X obj 1254 371 /;
#X obj 1254 423 / 20;
#X floatatom 1230 226 15 0 0 1 <=_wave_file_size - - 0;
#X obj 1372 340 s \$0-seconds;
#X msg 1254 349 1024 \$1;
#X obj 1257 595 f;
#X obj 1257 646 s \$0-cursor;
#X obj 1199 559 metro 50;
#X obj 1199 470 r \$0-play;
#X floatatom 1272 561 0 0 0 0 - - - 0;
#X obj 1272 531 bng 15 250 50 0 empty \$0-eof empty 17 7 0 10 #fcfcfc
#000000 #000000;
#X obj 840 209 t f b f b f;
#X obj 435 394 t b b p p p p p;
#X obj 435 334 append \$0-scope x y x1 y1 c1 c2 c3 c4 curx;
#X obj 1272 505 r \$0-repeat;
#X obj 1199 534 tgl 15 0 empty empty empty 17 7 0 10 #fcfcfc #000000
#000000 0 1;
#X obj 1199 503 t f b;
#X obj 1297 594 + 1;
#X obj 1257 620 * 1;
#X text 1235 145 Get the duration of the wave file;
#X text 1287 419 divide by 20 for a metro speed of 50ms (1000/50=20)
, f 27;
#X text 217 502 set plot elements < 0;
#X text 216 451 set plot elements > 0;
#X obj 91 731 s pd-\$0-graph-subpatch;
#X obj 1208 179 r \$1-samplelength;
#X obj 765 499 array max \$1-poly_grain-L;
#X obj 765 521 array min \$1-poly_grain-R;
#X obj 838 127 r \$1-samplelength;
#X obj 820 163 f;
#X obj 803 106 r \$1-visual;
#X obj 767 101 bng 15 250 50 0 empty empty empty 17 7 0 10 #fcfcfc
#000000 #000000;
#X msg 435 298 0 0.5 1024 -1.5 999 999 900 990 452;
#X msg 67 594 180;
#X text 92 83 this was not made by Yann! made by Balwyn on the Pure
Data forums.;
#X connect 0 0 11 0;
#X connect 1 0 2 0;
#X connect 2 0 0 0;
#X connect 3 0 1 0;
#X connect 3 0 23 0;
#X connect 5 0 6 0;
#X connect 6 0 66 9;
#X connect 10 0 9 0;
#X connect 11 0 84 0;
#X connect 11 1 5 0;
#X connect 11 2 4 0;
#X connect 15 0 14 0;
#X connect 15 0 76 0;
#X connect 16 0 35 0;
#X connect 17 0 21 0;
#X connect 17 0 36 0;
#X connect 18 0 17 1;
#X connect 19 0 17 0;
#X connect 20 0 31 0;
#X connect 21 0 17 1;
#X connect 22 0 78 0;
#X connect 22 0 79 0;
#X connect 23 0 19 0;
#X connect 25 0 24 0;
#X connect 27 0 26 0;
#X connect 28 0 33 0;
#X connect 29 0 32 0;
#X connect 30 0 34 0;
#X connect 31 0 22 1;
#X connect 31 1 78 1;
#X connect 31 2 79 1;
#X connect 32 0 24 1;
#X connect 33 0 9 1;
#X connect 36 0 22 0;
#X connect 36 1 27 0;
#X connect 40 0 15 0;
#X connect 41 0 40 0;
#X connect 42 0 41 0;
#X connect 43 0 46 0;
#X connect 44 0 41 0;
#X connect 44 1 41 1;
#X connect 45 0 44 0;
#X connect 46 0 45 0;
#X connect 48 0 49 1;
#X connect 49 0 51 0;
#X connect 50 0 49 0;
#X connect 50 1 48 0;
#X connect 51 0 57 0;
#X connect 51 0 56 0;
#X connect 52 0 54 0;
#X connect 53 0 52 0;
#X connect 54 0 71 1;
#X connect 55 0 50 0;
#X connect 57 0 53 0;
#X connect 58 0 70 0;
#X connect 58 0 71 0;
#X connect 60 0 58 0;
#X connect 61 0 69 0;
#X connect 62 0 58 1;
#X connect 63 0 62 0;
#X connect 64 0 23 0;
#X connect 64 1 18 0;
#X connect 64 2 20 0;
#X connect 64 3 1 0;
#X connect 65 0 16 0;
#X connect 65 1 30 0;
#X connect 65 2 35 1;
#X connect 65 3 34 1;
#X connect 65 4 33 1;
#X connect 65 5 32 1;
#X connect 66 0 65 0;
#X connect 67 0 63 0;
#X connect 68 0 60 0;
#X connect 69 0 68 0;
#X connect 69 1 63 0;
#X connect 70 0 58 1;
#X connect 71 0 59 0;
#X connect 77 0 55 0;
#X connect 78 0 10 0;
#X connect 79 0 25 0;
#X connect 80 0 81 1;
#X connect 81 0 64 0;
#X connect 82 0 81 0;
#X connect 83 0 81 0;
#X connect 84 0 66 0;
#X connect 85 0 41 0;
#X restore 394 395 pd nice_waveform;
#X obj 258 44 tgl 15 1 \$1-recordLoop \$1-recordLoop_rcv liveGrains
16 8 1 10 #ffc7c6 #000000 #000000 0 1;
#X obj 12 545 ys.granular_brain \$1 \$2;
#X connect 36 0 38 0;
#X connect 40 0 36 0;
#X coords 0 -1 1 1 350 500 1 0 0;
