#N struct 1146-scope float x float y float x1 float y1 float c1 float
c2 float c3 float c4 array vector-min 1146-scope-element array vector-max
1146-scope-element float curx;
#N struct 1146-scope-element float y;
#N canvas 350 141 972 691 10;
#X obj 28 179 hsl 175 15 0 1 0 0 \$1-sample_offset \$1-sample_offset_rcv
sample\\\ offset -2 -4 1 10 #fffba5 #404040 #000000 0 1;
#X obj 225 10 tgl 30 1 \$1-on_off \$1-on_off_rcv on/off 32 26 0 10
#9bc99d #000000 #000000 1 1;
#X obj 225 44 tgl 30 1 \$1-record \$1-record_rcv record 32 26 1 10
#ffc7c6 #000000 #000000 0 1;
#X obj 12 526 bng 15 250 50 0 midi-properties midi-properties_rcv midi-properties
17 7 0 10 #fcfcfc #000000 #000000;
#X obj 12 508 bng 15 250 50 0 audio-properties audio-properties_rcv
audio-properties 17 7 0 10 #fcfcfc #000000 #000000;
#X obj 258 10 bng 15 250 50 0 \$1-play_one_grain \$1-play_one_grain_rcv
play\\\ one 17 7 1 10 #9bc99d #000000 #000000;
#X text 31 760 by yann seznec // yannseznec.com;
#X obj 226 212 cnv 15 95 100 empty empty autoplay 5 12 1 14 #e0e0e0
#404040 0;
#X obj 232 287 hsl 80 15 0 1 0 1 \$1-autoplay_speed \$1-autoplay_speed_rcv
speed -2 -4 1 10 #fcfcfc #000000 #000000 1000 1;
#X obj 230 261 tgl 12 1 \$1-freeze \$1-freeze_rcv freeze 17 7 1 10
#fcfcfc #000000 #000000 0 1;
#X obj 293 216 tgl 20 1 \$1-autoplay_on_off \$1-autoplay_on_off_rcv
on/off -2 25 1 10 #9bc99d #000000 #000000 0 1;
#X obj 230 242 tgl 12 1 \$1-autoplay_reverse \$1-autoplay_reverse_rcv
reverse 17 7 1 10 #fcfcfc #000000 #000000 0 1;
#X obj 226 108 cnv 15 95 100 empty empty input 5 12 1 14 #e0e0e0 #404040
0;
#X obj 230 184 tgl 15 0 \$1-input_monitor \$1-input_monitor_rcv monitor
17 7 1 10 #fcfcfc #000000 #000000 0 1;
#X obj 230 133 vradio 15 1 1 3 \$1-stereoms \$1-stereoms_rcv empty
0 -8 0 10 #fcfcfc #000000 #000000 2;
#X obj 248 140 cnv 15 20 10 empty empty stereo 0 0 1 10 #dfdfdf #404040
0;
#X obj 247 156 cnv 15 20 10 empty empty mid/side 0 0 1 10 #dfdfdf #404040
0;
#X obj 247 170 cnv 15 20 10 empty empty mono 0 0 1 10 #dfdfdf #404040
0;
#X obj 226 316 cnv 15 95 130 empty empty output 5 12 1 14 #e0e0e0 #404040
0;
#X obj 235 402 hsl 30 10 0 1 0 1 \$1-global_pan \$1-global_pan_rcv
empty -2 -8 1 10 #fcfcfc #000000 #000000 1500 1;
#X obj 232 339 vsl 35 60 0.01 1.4 1 1 \$1-volume \$1-volume_rcv empty
-6 -9 1 10 #fcfcfc #000000 #000000 4943 1;
#X obj 287 327 vu 8 80 \$1-vu-L empty 20 10 1 24 #404040 #000000 0
0;
#X obj 299 327 vu 8 80 \$1-vu-R empty 20 10 1 24 #404040 #000000 0
0;
#X obj 25 216 cnv 15 180 250 empty empty empty 20 12 0 14 #194b19 #404040
0;
#X obj 234 425 hsl 75 15 0 1 0 1 \$1-random_panning \$1-random_panning_rcv
panning\\\ random -2 -4 1 10 #ffffff #000000 #000000 5400 1;
#X obj 42 240 hsl 128 15 0 1 0 1 \$1-offset_random \$1-offset_random_rcv
offset\\\ random -2 -4 1 10 #fffba5 #000000 #ffffff 600 1;
#X obj 42 305 hsl 128 15 0 1 0 1 \$1-grain_pitch \$1-grain_pitch_rcv
pitch -2 -4 1 10 #9bc9dd #ffffff #ffffff 3175 1;
#X obj 40 273 tgl 15 1 \$1-reverse \$1-reverse_rcv reverse 17 7 1 10
#9bc9dd #000000 #ffffff 0 1;
#X obj 94 273 tgl 15 1 \$1-reverse_random \$1-reverse_random_rcv reverse\\\ random
17 7 1 10 #9bc9dd #000000 #ffffff 0 1;
#X obj 173 305 bng 15 250 50 0 \$1-reset_pitch \$1-reset_pitch_rcv
empty 17 7 1 10 #9bc9dd #000000 #000000;
#X obj 43 336 hsl 128 15 0 1 0 1 \$1-random_pitch \$1-random_pitch_rcv
pitch\\\ random -2 -4 1 10 #9bc9dd #ffffff #ffffff 0 1;
#X obj 43 371 hsl 128 15 0.001 1 0 1 \$1-grain_size \$1-grain_size_rcv
grain\\\ size -2 -4 1 10 #eab8fe #ffffff #ffffff 1357 1;
#X obj 43 400 hsl 128 15 0.002 1 0 1 \$1-grain_density \$1-grain_density_rcv
grain\\\ density -2 -4 1 10 #eab8fe #ffffff #ffffff 399 1;
#X obj 43 429 hsl 128 15 0 1 0 1 \$1-grainplay_chance \$1-grainplay_chance_rcv
grainplay\\\ chance -2 -4 1 10 #eab8fe #ffffff #ffffff 12700 1;
#X obj 292 121 vu 8 80 \$1-input_vu-L empty 20 10 1 24 #404040 #000000
0 0;
#X obj 304 121 vu 8 80 \$1-input_vu-R empty 20 10 1 24 #404040 #000000
0 0;
#X msg 368 476 vis 1;
#N canvas 441 25 447 847 \$1-help 1;
#X obj 20 24 cnv 15 400 800 empty empty ys.granular 20 12 1 25 #f1f4f4
#404040 0;
#X text 35 222 most parameters can be accessed through send/receive
objects. to control a parameter the best option is to use the "receive"
setting for the GUI slider (or toggle or bang).;
#X obj 216 306 loadbang;
#X obj 216 327 i \$1;
#X floatatom 216 348 5 0 0 1 this\ is\ the\ identifier - - 0;
#X obj 39 347 send \$1-sample_offset_rcv;
#X obj 42 323 hsl 128 15 0 1 0 0 empty empty empty -2 -8 0 10 #fcfcfc
#000000 #000000 0 1;
#X text 33 305 try me!;
#X text 33 405 nearly all of the parameters are float values between
0-1.;
#X text 33 427 for "pitch" \, the pitch is unchanged at a value of
0.25.;
#X msg 34 564 \; \$1-grain_pitch_rcv 0.25 \; \$1-grain_size_rcv 0.5
\; \$1-sample_offset_rcv 0.5 \; \$1-offset_random_rcv 0.02 \; \$1-random_pitch_rcv
0 \; \$1-random_panning_rcv 0.6 \; \$1-global_pan_rcv 0.5 \; \$1-autoplay_speed_rcv
0.25 \; \$1-autoplay_reverse_rcv 0 \; \$1-freeze_rcv 0 \; \$1-autoplay_on_off_rcv
0 \; \$1-on_off_rcv 1 \; \$1-volume_rcv 1 \; \$1-num_channels_rcv 2
\; \$1-reverse_rcv 0 \; \$1-reverse_random_rcv 0 \; \$1-grain_density_rcv
0.1 \; \$1-grainplay_chance_rcv 1 \;;
#X obj 34 510 i \$1;
#X floatatom 34 531 5 0 0 1 this\ is\ the\ identifier - - 0;
#X obj 34 482 bng 15 250 50 0 empty empty load\\\ a\\\ set\\\ of\\\ values
17 7 0 10 #fcfcfc #000000 #000000;
#X text 33 449 you can change a bunch of values at once using a message
box like this...like a really clunky preset manager:;
#X text 209 609 a few that aren't listed there:;
#X msg 220 751 \; pd dsp 1;
#X obj 220 726 loadbang;
#X text 210 635 \$1-choose_sound_rcv;
#X text 34 785 the send names for all of the GUI objects are the same
as above \, without the "_rcv" suffix.;
#X text 210 651 \$1-reset_pitch_rcv;
#X text 334 636 (bang);
#X text 333 652 (bang);
#X text 209 669 \$1-record_rcv (toggle);
#X text 208 686 \$1-play_one_grain_rcv;
#X text 341 687 (bang);
#X text 40 548 see this list for the accessible parameter names.;
#X obj 40 65 cnv 15 1 1 empty empty a\\\ pretty\\\ standard\\\ granular\\\ audio\\\ exploration\\\ system
0 0 0 12 #f1f3f3 #404040 0;
#X obj 39 88 cnv 15 1 1 empty empty yannseznec.com\\\ yann@yannseznec.com
0 0 0 12 #f1f3f3 #404040 0;
#X text 35 181 you can have multiple instances of ys.granular_main.pd
running \, so long as they each have different identifier numbers.
;
#X text 34 271 these are accessed with the identifier number followed
by the name. from within the patch (like right now) \, use \$1.;
#X text 34 372 from outside the patch \, the equivalent send argument
would be "1-sample_offset_rcv".;
#X text 35 157 thanks to Balwyn on the Pd forums for the nice waveform!
;
#X text 35 101 to use \, create a top-level patch and add the ys.granular_main.pd
patch as an object \, with an integer argument that acts as an identifier.
A second optional argument sets the sound file that is loaded on startup.
;
#X msg 256 499 0.5;
#X msg 288 500 0.25;
#X msg 328 501 0.125;
#X text 251 481 [bonus tip! octaves!];
#X obj 256 525 s \$1-grain_pitch_rcv;
#X msg 374 501 1;
#X connect 2 0 3 0;
#X connect 3 0 4 0;
#X connect 6 0 5 0;
#X connect 11 0 12 0;
#X connect 12 0 10 0;
#X connect 13 0 11 0;
#X connect 17 0 16 0;
#X connect 34 0 38 0;
#X connect 35 0 38 0;
#X connect 36 0 38 0;
#X connect 39 0 38 0;
#X coords 0 847 1 846 85 10 0;
#X restore 13 566 pd \$1-help;
#X f 15;
#X obj 368 497 s pd-\$1-help;
#X obj 230 451 bng 15 250 50 0 \$1-help empty help 17 7 0 10 #fcfcfc
#000000 #000000;
#X obj 370 457 r \$1-help;
#X obj 309 81 bng 10 250 50 0 \$1-choose_sound \$1-choose_sound_rcv
choose\\\ sound -66 5 1 10 #c7c6ff #000000 #000000;
#X obj 309 95 bng 10 250 50 0 \$1-clear \$1-clear_rcv clear\\\ array
-53 5 1 10 #c7c6ff #000000 #2f004d;
#N canvas 878 406 772 493 \$0-graph-subpatch 0;
#N canvas 910 69 450 707 \$0-graph 0;
#X scalar 1146-scope 0 0.5 1024 -1.5 999 999 900 990 452 \; -1.50049
\; -1.50066 \; -1.50081 \; -1.5006 \; -1.49964 \; -1.49921 \; -1.50051
\; -1.50087 \; -1.5004 \; -1.49936 \; -1.50058 \; -1.50043 \; -1.49826
\; -1.4947 \; -1.49265 \; -1.49148 \; -1.50669 \; -1.51828 \; -1.53264
\; -1.52921 \; -1.50573 \; -1.53589 \; -1.58132 \; -1.57579 \; -1.47731
\; -1.49483 \; -1.53783 \; -1.53557 \; -1.49165 \; -1.49481 \; -1.5252
\; -1.52046 \; -1.47601 \; -1.50878 \; -1.52274 \; -1.51479 \; -1.4851
\; -1.51257 \; -1.5173 \; -1.51378 \; -1.49609 \; -1.49591 \; -1.49479
\; -1.51179 \; -1.52545 \; -1.53065 \; -1.52366 \; -1.50148 \; -1.50621
\; -1.51731 \; -1.51923 \; -1.51454 \; -1.50078 \; -1.49684 \; -1.50391
\; -1.50179 \; -1.48837 \; -1.4837 \; -1.49673 \; -1.50496 \; -1.49957
\; -1.49158 \; -1.50327 \; -1.51363 \; -1.51256 \; -1.51004 \; -1.51015
\; -1.5146 \; -1.51199 \; -1.50846 \; -1.50823 \; -1.49873 \; -1.49775
\; -1.50014 \; -1.5014 \; -1.49789 \; -1.49391 \; -1.49642 \; -1.50051
\; -1.49956 \; -1.51724 \; -1.51609 \; -1.51335 \; -1.5036 \; -1.50884
\; -1.51797 \; -1.51771 \; -1.50499 \; -1.49728 \; -1.50275 \; -1.51682
\; -1.52066 \; -1.52029 \; -1.51866 \; -1.50899 \; -1.51328 \; -1.51354
\; -1.51709 \; -1.54277 \; -1.54124 \; -1.52119 \; -1.5006 \; -1.51349
\; -1.51638 \; -1.50357 \; -1.4836 \; -1.4863 \; -1.50968 \; -1.52312
\; -1.52222 \; -1.49763 \; -1.48814 \; -1.48135 \; -1.49744 \; -1.52359
\; -1.55018 \; -1.55186 \; -1.5153 \; -1.45774 \; -1.47345 \; -1.52273
\; -1.585 \; -1.59786 \; -1.55408 \; -1.43078 \; -1.45528 \; -1.54353
\; -1.63371 \; -1.65352 \; -1.61572 \; -1.3822 \; -1.47145 \; -1.55929
\; -1.6382 \; -1.65064 \; -1.6205 \; -1.38195 \; -1.49498 \; -1.57681
\; -1.59833 \; -1.59606 \; -1.57146 \; -1.40165 \; -1.46957 \; -1.56594
\; -1.64883 \; -1.64934 \; -1.57915 \; -1.3715 \; -1.49839 \; -1.55048
\; -1.58884 \; -1.59504 \; -1.55608 \; -1.41982 \; -1.47876 \; -1.54424
\; -1.58449 \; -1.58579 \; -1.52922 \; -1.41279 \; -1.47575 \; -1.54719
\; -1.60586 \; -1.60691 \; -1.53512 \; -1.41384 \; -1.46084 \; -1.56277
\; -1.62208 \; -1.62239 \; -1.54586 \; -1.42083 \; -1.47143 \; -1.5816
\; -1.62757 \; -1.62543 \; -1.52328 \; -1.4005 \; -1.45657 \; -1.5789
\; -1.6346 \; -1.63301 \; -1.5241 \; -1.39952 \; -1.48288 \; -1.64208
\; -1.68388 \; -1.60183 \; -1.42102 \; -1.61283 \; -1.6039 \; -1.52063
\; -1.56137 \; -1.53757 \; -1.45939 \; -1.54099 \; -1.56102 \; -1.56178
\; -1.54766 \; -1.38003 \; -1.5961 \; -1.63485 \; -1.61605 \; -1.554
\; -1.3875 \; -1.55913 \; -1.71978 \; -1.72208 \; -1.61856 \; -1.40856
\; -1.49769 \; -1.75621 \; -1.7556 \; -1.61476 \; -1.53188 \; -1.2545
\; -1.67646 \; -1.7887 \; -1.77094 \; -1.65146 \; -1.29183 \; -1.55258
\; -1.76544 \; -1.7693 \; -1.77005 \; -1.5287 \; -1.34197 \; -1.74079
\; -1.80764 \; -1.76851 \; -1.59662 \; -1.22753 \; -1.65927 \; -1.73488
\; -1.71404 \; -1.66785 \; -1.3563 \; -1.50172 \; -1.77933 \; -1.78813
\; -1.70486 \; -1.40742 \; -1.45492 \; -1.76337 \; -1.77331 \; -1.68646
\; -1.57806 \; -1.24828 \; -1.75771 \; -1.83461 \; -1.78598 \; -1.62246
\; -1.15466 \; -1.69336 \; -1.83234 \; -1.81016 \; -1.70229 \; -1.33077
\; -1.49537 \; -1.83145 \; -1.8384 \; -1.78978 \; -1.47713 \; -1.3715
\; -1.7824 \; -1.79116 \; -1.75741 \; -1.70832 \; -1.15095 \; -1.69901
\; -1.79036 \; -1.78545 \; -1.72529 \; -1.18613 \; -1.67872 \; -1.74596
\; -1.77299 \; -1.76972 \; -1.31721 \; -1.62646 \; -1.78182 \; -1.74981
\; -1.72389 \; -1.42965 \; -1.49692 \; -1.7804 \; -1.78107 \; -1.7698
\; -1.57763 \; -1.35673 \; -1.78112 \; -1.76433 \; -1.77018 \; -1.7558
\; -1.12264 \; -1.80238 \; -1.81731 \; -1.79145 \; -1.79381 \; -1.20816
\; -1.68429 \; -1.79064 \; -1.77922 \; -1.78697 \; -1.49844 \; -1.47391
\; -1.77445 \; -1.74626 \; -1.78992 \; -1.64576 \; -1.3308 \; -1.80983
\; -1.8023 \; -1.75103 \; -1.72301 \; -1.12537 \; -1.76088 \; -1.79206
\; -1.73201 \; -1.72765 \; -1.26684 \; -1.64827 \; -1.85778 \; -1.80119
\; -1.71555 \; -1.51466 \; -1.42172 \; -1.81679 \; -1.82018 \; -1.71873
\; -1.62432 \; -1.13903 \; -1.76671 \; -1.85592 \; -1.7894 \; -1.64613
\; -1.42801 \; -1.40025 \; -1.85919 \; -1.86446 \; -1.64537 \; -1.55841
\; -1.26416 \; -1.65932 \; -1.8257 \; -1.73428 \; -1.56525 \; -1.54186
\; -1.4056 \; -1.75394 \; -1.76036 \; -1.51721 \; -1.59088 \; -1.48818
\; -1.53672 \; -1.58412 \; -1.47948 \; -1.70202 \; -1.70734 \; -1.42114
\; -1.52645 \; -1.55694 \; -1.54437 \; -1.64929 \; -1.65724 \; -1.47999
\; -1.47237 \; -1.52274 \; -1.53161 \; -1.69742 \; -1.71104 \; -1.51055
\; -1.45452 \; -1.55697 \; -1.61846 \; -1.74572 \; -1.70594 \; -1.34299
\; -1.561 \; -1.57188 \; -1.63941 \; -1.69996 \; -1.57155 \; -1.37314
\; -1.54367 \; -1.57738 \; -1.64408 \; -1.63523 \; -1.48374 \; -1.4149
\; -1.57657 \; -1.58621 \; -1.54867 \; -1.57941 \; -1.50948 \; -1.45444
\; -1.57696 \; -1.5564 \; -1.57384 \; -1.63496 \; -1.54121 \; -1.47561
\; -1.534 \; -1.46181 \; -1.61518 \; -1.63857 \; -1.55359 \; -1.50905
\; -1.49125 \; -1.44455 \; -1.61406 \; -1.67061 \; -1.66111 \; -1.50853
\; -1.36249 \; -1.6041 \; -1.83445 \; -1.75265 \; -1.28677 \; -1.63938
\; -1.71547 \; -1.64446 \; -1.48437 \; -1.41632 \; -1.58604 \; -1.63944
\; -1.63727 \; -1.56531 \; -1.33025 \; -1.54603 \; -1.69773 \; -1.71858
\; -1.64523 \; -1.33832 \; -1.50545 \; -1.68328 \; -1.72417 \; -1.72587
\; -1.53615 \; -1.34491 \; -1.71839 \; -1.77665 \; -1.76611 \; -1.62264
\; -1.20292 \; -1.61623 \; -1.80948 \; -1.81021 \; -1.73482 \; -1.26085
\; -1.51331 \; -1.71929 \; -1.80287 \; -1.76373 \; -1.37758 \; -1.43215
\; -1.72191 \; -1.81607 \; -1.79932 \; -1.53603 \; -1.3863 \; -1.73173
\; -1.76622 \; -1.76238 \; -1.65933 \; -1.21538 \; -1.70728 \; -1.80169
\; -1.80504 \; -1.71065 \; -1.20938 \; -1.52118 \; -1.76547 \; -1.84182
\; -1.7928 \; -1.3744 \; -1.40047 \; -1.77402 \; -1.85684 \; -1.85534
\; -1.58325 \; -1.24347 \; -1.67838 \; -1.81798 \; -1.8415 \; -1.76716
\; -1.17858 \; -1.54816 \; -1.80532 \; -1.85115 \; -1.75185 \; -1.31548
\; -1.43968 \; -1.77662 \; -1.86602 \; -1.80908 \; -1.41952 \; -1.36589
\; -1.73705 \; -1.80079 \; -1.75152 \; -1.52534 \; -1.33024 \; -1.5519
\; -1.68238 \; -1.70116 \; -1.62665 \; -1.44389 \; -1.36709 \; -1.62825
\; -1.77275 \; -1.75297 \; -1.48969 \; -1.31107 \; -1.60966 \; -2.00516
\; -2.00869 \; -1.62741 \; -1.17093 \; -1.91764 \; -2.04371 \; -1.95647
\; -1.41311 \; -1.33866 \; -1.69276 \; -1.93378 \; -1.91512 \; -1.37226
\; -1.43148 \; -1.70015 \; -1.82577 \; -1.79594 \; -1.23658 \; -1.51151
\; -1.67019 \; -1.81712 \; -1.82839 \; -1.29438 \; -1.58817 \; -1.72862
\; -1.81932 \; -1.73723 \; -1.35693 \; -1.55889 \; -1.8185 \; -1.83261
\; -1.44523 \; -1.51989 \; -1.55817 \; -1.72662 \; -1.73879 \; -1.33162
\; -1.5662 \; -1.59783 \; -1.72654 \; -1.69373 \; -1.52077 \; -1.6563
\; -1.6956 \; -1.70331 \; -1.36151 \; -1.63175 \; -1.70913 \; -1.75508
\; -1.70896 \; -1.24697 \; -1.64265 \; -1.70842 \; -1.77676 \; -1.68454
\; -1.44952 \; -1.66838 \; -1.85355 \; -1.88675 \; -1.38953 \; -1.56351
\; -1.71309 \; -1.87958 \; -1.87405 \; -1.1553 \; -1.54034 \; -1.70673
\; -1.89463 \; -1.83066 \; -1.40783 \; -1.59432 \; -1.70557 \; -1.79493
\; -1.44099 \; -1.53707 \; -1.62815 \; -1.7302 \; -1.73706 \; -1.34046
\; -1.62922 \; -1.67201 \; -1.67602 \; -1.59077 \; -1.48417 \; -1.70282
\; -1.78043 \; -1.76637 \; -1.24379 \; -1.60575 \; -1.7462 \; -1.85137
\; -1.82337 \; -1.26223 \; -1.66829 \; -1.81682 \; -1.86305 \; -1.44976
\; -1.49874 \; -1.67134 \; -1.83105 \; -1.88067 \; -1.2448 \; -1.59309
\; -1.73959 \; -1.82531 \; -1.65916 \; -1.54051 \; -1.58832 \; -1.76083
\; -1.78813 \; -1.37963 \; -1.62256 \; -1.65198 \; -1.76687 \; -1.6592
\; -1.65684 \; -1.70079 \; -1.69833 \; -1.72794 \; -1.28153 \; -1.65724
\; -1.68171 \; -1.79259 \; -1.69463 \; -1.57781 \; -1.63785 \; -1.78678
\; -1.85186 \; -1.23292 \; -1.6411 \; -1.64172 \; -1.82025 \; -1.78693
\; -1.59625 \; -1.6495 \; -1.72351 \; -1.79956 \; -1.34845 \; -1.69209
\; -1.60594 \; -1.79136 \; -1.79996 \; -1.57628 \; -1.66615 \; -1.6735
\; -1.78192 \; -1.44538 \; -1.7611 \; -1.70984 \; -1.76639 \; -1.79448
\; -1.4364 \; -1.79681 \; -1.63749 \; -1.79711 \; -1.63754 \; -1.75104
\; -1.79139 \; -1.8071 \; -1.865 \; -1.14257 \; -1.71835 \; -1.65841
\; -1.88672 \; -1.8465 \; -1.66403 \; -1.73162 \; -1.78912 \; -1.90337
\; -1.56345 \; -1.7163 \; -1.69695 \; -1.79742 \; -1.84543 \; -1.26502
\; -1.6847 \; -1.62704 \; -1.81454 \; -1.78268 \; -1.58691 \; -1.69157
\; -1.70723 \; -1.78002 \; -1.517 \; -1.64817 \; -1.61529 \; -1.76652
\; -1.80089 \; -1.37963 \; -1.81135 \; -1.63395 \; -1.89459 \; -1.88349
\; -1.81567 \; -1.84998 \; -1.75202 \; -1.9523 \; -1.70246 \; -1.86713
\; -1.8253 \; -1.77011 \; -1.95334 \; -1.1646 \; -1.94753 \; -1.62578
\; -1.89842 \; -1.94865 \; -1.40882 \; -1.99041 \; -1.53853 \; -1.94719
\; -1.92595 \; -1.94735 \; -1.99036 \; -1.83991 \; -1.92795 \; -1.72175
\; -2.00308 \; -1.88153 \; -1.95769 \; -1.967 \; -1.25439 \; -2.01588
\; -1.52154 \; -2.01108 \; -1.95794 \; -1.47301 \; -1.96235 \; -1.43259
\; -2.01197 \; -1.94814 \; -1.79868 \; -1.93449 \; -1.79313 \; -2.02037
\; -1.84461 \; -1.87296 \; -1.86709 \; -2.00066 \; -2.06468 \; -1.50376
\; -1.86874 \; -1.6501 \; -2.10362 \; -2.06221 \; -1.48411 \; -1.90092
\; -1.31311 \; -2.13013 \; -1.98249 \; -1.46035 \; -1.85639 \; -1.42686
\; -2.13417 \; -1.91498 \; -1.58024 \; -1.8397 \; -1.65675 \; -2.12188
\; -1.81668 \; -1.6934 \; -1.77084 \; -1.91141 \; -2.13574 \; -1.76484
\; -1.75063 \; -1.80252 \; -1.9582 \; -2.05968 \; -1.73212 \; -1.58162
\; -1.65073 \; -1.71009 \; -1.88475 \; -1.89976 \; -1.47545 \; -1.77896
\; -1.49239 \; -2.09511 \; -2.09676 \; -1.48002 \; -1.98622 \; -1.56028
\; -2.17816 \; -2.22476 \; -1.64274 \; -2.10241 \; -1.51039 \; -2.25411
\; -2.2883 \; -1.75329 \; -2.16918 \; -1.44928 \; -2.28734 \; -2.31762
\; -1.73762 \; -2.18321 \; -1.32827 \; -2.32714 \; -2.32782 \; -1.6488
\; -2.10252 \; -1.28367 \; -2.27639 \; -2.2999 \; -1.45182 \; -1.9655
\; -1.26546 \; -2.23998 \; -2.27526 \; -1.26892 \; -1.87828 \; -1.28627
\; -2.24853 \; -2.29181 \; -1.12602 \; -1.83809 \; -1.37719 \; -2.27765
\; -2.28945 \; -1.22261 \; -1.83095 \; -1.52042 \; -2.25641 \; -2.2695
\; -1.44445 \; -1.80959 \; -1.6557 \; -2.18033 \; -2.21671 \; -1.77508
\; -1.80846 \; -1.81593 \; -2.03709 \; -2.18246 \; -2.00016 \; -1.76609
\; -1.80909 \; -1.80278 \; -2.16334 \; -2.12053 \; -1.51394 \; -1.82077
\; -1.51803 \; -2.16893 \; -2.18216 \; -1.28023 \; -1.78404 \; -1.4932
\; -2.09568 \; -2.20042 \; -1.17649 \; -1.73939 \; -1.46463 \; -2.03497
\; -2.22329 \; -1.30061 \; -1.70391 \; -1.49474 \; -1.98353 \; -2.25596
\; -1.62404 \; -1.69912 \; -1.66282 \; -1.83121 \; -2.3517 \; -2.10266
\; -1.72644 \; -1.82939 \; -1.67775 \; -2.5 \; -2.32021 \; -1.74182
\; -1.91087 \; -1.53295 \; -2.49613 \; -2.44277 \; -1.46437 \; -1.98025
\; -1.37397 \; -2.44762 \; -2.48068 \; -1.14297 \; -2.00496 \; -1.51338
\; -2.40708 \; -2.46218 \; -1.20368 \; -2.00079 \; -1.85131 \; -2.24121
\; -2.42914 \; -1.71503 \; -1.99731 \; -2.02003 \; -2.02037 \; -2.42639
\; -2.04723 \; -1.85547 \; -1.99184 \; -1.65128 \; -2.42016 \; -2.32931
\; -1.5374 \; -2.00359 \; -1.28905 \; -2.45142 \; -2.44178 \; -1.18521
\; -2.00029 \; -1.45698 \; -2.44955 \; -2.45974 \; -1.21871 \; -1.95217
\; -1.81128 \; -2.34106 \; -2.4653 \; -1.65756 \; -1.8877 \; -1.90683
\; -2.08204 \; -2.49042 \; -1.98934 \; -1.69046 \; -1.87673 \; -1.75047
\; -2.44054 \; -2.25354 \; -1.51621 \; -1.81416 \; -1.52134 \; -2.39
\; -2.37731 \; -1.33164 \; -1.78408 \; -1.31219 \; -2.33954 \; -2.37074
\; -1.214 \; -1.76454 \; -1.27573 \; -2.26938 \; -2.32124 \; -1.21957
\; -1.73603 \; -1.29734 \; -2.19765 \; -2.30339 \; -1.25272 \; -1.83459
\; -1.29629 \; -2.11063 \; -2.19695 \; -1.2697 \; -1.81466 \; -1.32123
\; -2.03056 \; -2.09303 \; -1.39322 \; -1.81746 \; -1.41211 \; -1.937
\; -1.95848 \; -1.54931 \; -1.75938 \; -1.68667 \; -1.88299 \; -1.78842
\; -1.70582 \; -1.73157 \; -1.92484 \; -2.01503 \; -1.5 \; -1.5 \;
-1.5 \; -1.5 \; -1.5 \; -1.5 \; -1.5 \; -1.5 \; -1.5 \; -1.5 \; -1.5
\; -1.5 \; -1.5 \; -1.5 \; -1.5 \; -1.5 \; -1.5 \; -1.5 \; -1.5 \;
-1.5 \; -1.5 \; -1.5 \; -1.5 \; -1.5 \; -1.5 \; -1.5 \; -1.5 \; -1.5
\; -1.5 \; -1.5 \; -1.5 \; -1.5 \; -1.5 \; -1.5 \; -1.5 \; \; -1.5
\; -1.50049 \; -1.50057 \; -1.49927 \; -1.49928 \; -1.49831 \; -1.49858
\; -1.50024 \; -1.49922 \; -1.49837 \; -1.49921 \; -1.49829 \; -1.49447
\; -1.49031 \; -1.49024 \; -1.48614 \; -1.48959 \; -1.49223 \; -1.49876
\; -1.50053 \; -1.46309 \; -1.46659 \; -1.54409 \; -1.48616 \; -1.43423
\; -1.44152 \; -1.50234 \; -1.49514 \; -1.45782 \; -1.45618 \; -1.49893
\; -1.47768 \; -1.4651 \; -1.47354 \; -1.51026 \; -1.47854 \; -1.47518
\; -1.48512 \; -1.51428 \; -1.49768 \; -1.49143 \; -1.49178 \; -1.49084
\; -1.49282 \; -1.51197 \; -1.52428 \; -1.50187 \; -1.49764 \; -1.49784
\; -1.50653 \; -1.51315 \; -1.50291 \; -1.48873 \; -1.48845 \; -1.49804
\; -1.48365 \; -1.47991 \; -1.47592 \; -1.48392 \; -1.49518 \; -1.48553
\; -1.48425 \; -1.48883 \; -1.50381 \; -1.50045 \; -1.49937 \; -1.50235
\; -1.5016 \; -1.49513 \; -1.49629 \; -1.49879 \; -1.48832 \; -1.48659
\; -1.48988 \; -1.49109 \; -1.48648 \; -1.47672 \; -1.48633 \; -1.48849
\; -1.48838 \; -1.49661 \; -1.50649 \; -1.49292 \; -1.49082 \; -1.49352
\; -1.50403 \; -1.50075 \; -1.49033 \; -1.47895 \; -1.48365 \; -1.49164
\; -1.50836 \; -1.49613 \; -1.48511 \; -1.48325 \; -1.49199 \; -1.50122
\; -1.49588 \; -1.51201 \; -1.49443 \; -1.47938 \; -1.46557 \; -1.48139
\; -1.49538 \; -1.48214 \; -1.46747 \; -1.46797 \; -1.48277 \; -1.50727
\; -1.49623 \; -1.48086 \; -1.47157 \; -1.46575 \; -1.46749 \; -1.49679
\; -1.5254 \; -1.51659 \; -1.45866 \; -1.44507 \; -1.45026 \; -1.4737
\; -1.52059 \; -1.56098 \; -1.43583 \; -1.37577 \; -1.38398 \; -1.45879
\; -1.55052 \; -1.62172 \; -1.39184 \; -1.31452 \; -1.35333 \; -1.47046
\; -1.56465 \; -1.62966 \; -1.39614 \; -1.31766 \; -1.34087 \; -1.50268
\; -1.58376 \; -1.5739 \; -1.41144 \; -1.35602 \; -1.36423 \; -1.47956
\; -1.56876 \; -1.58956 \; -1.38025 \; -1.33378 \; -1.3699 \; -1.50521
\; -1.55154 \; -1.56154 \; -1.42631 \; -1.39319 \; -1.39808 \; -1.48573
\; -1.54511 \; -1.5355 \; -1.41742 \; -1.39606 \; -1.3988 \; -1.47984
\; -1.55201 \; -1.54166 \; -1.41905 \; -1.38558 \; -1.38913 \; -1.46592
\; -1.56503 \; -1.55201 \; -1.42582 \; -1.38895 \; -1.39918 \; -1.47606
\; -1.58777 \; -1.53212 \; -1.40355 \; -1.38694 \; -1.3959 \; -1.45644
\; -1.58289 \; -1.53116 \; -1.39658 \; -1.38114 \; -1.39814 \; -1.49149
\; -1.61268 \; -1.33899 \; -1.3056 \; -1.42161 \; -1.51858 \; -1.4843
\; -1.52557 \; -1.4228 \; -1.40018 \; -1.45711 \; -1.53613 \; -1.54548
\; -1.38883 \; -1.30596 \; -1.37847 \; -1.5949 \; -1.53473 \; -1.38794
\; -1.25504 \; -1.2704 \; -1.57644 \; -1.632 \; -1.41823 \; -1.15334
\; -1.15517 \; -1.52521 \; -1.61687 \; -1.52277 \; -1.2588 \; -1.15447
\; -1.26716 \; -1.68918 \; -1.66391 \; -1.31515 \; -1.0825 \; -1.1204
\; -1.576 \; -1.66849 \; -1.40353 \; -1.06479 \; -1.08323 \; -1.3475
\; -1.7559 \; -1.62101 \; -1.16479 \; -1.08213 \; -1.25394 \; -1.67039
\; -1.66199 \; -1.38277 \; -1.11071 \; -1.12742 \; -1.52622 \; -1.7067
\; -1.43122 \; -1.06187 \; -1.06869 \; -1.48759 \; -1.68728 \; -1.58004
\; -1.12933 \; -1.03959 \; -1.28107 \; -1.77319 \; -1.62331 \; -1.16607
\; -0.989457 \; -1.14997 \; -1.71195 \; -1.70159 \; -1.3599 \; -0.957098
\; -0.991017 \; -1.53558 \; -1.79276 \; -1.52793 \; -0.947985 \; -0.936025
\; -1.41332 \; -1.74119 \; -1.71416 \; -1.12116 \; -0.941584 \; -1.18041
\; -1.71238 \; -1.73453 \; -1.22027 \; -0.969745 \; -1.1504 \; -1.69272
\; -1.70666 \; -1.36373 \; -0.92214 \; -1.0165 \; -1.66921 \; -1.67325
\; -1.47489 \; -0.93973 \; -0.942442 \; -1.5331 \; -1.70484 \; -1.62316
\; -0.920267 \; -0.868102 \; -1.39499 \; -1.65177 \; -1.66878 \; -1.07919
\; -0.848957 \; -1.16955 \; -1.73192 \; -1.70902 \; -1.24888 \; -0.833528
\; -0.97686 \; -1.70411 \; -1.69219 \; -1.53943 \; -0.893272 \; -0.885408
\; -1.50949 \; -1.69294 \; -1.68048 \; -0.975514 \; -0.889748 \; -1.38207
\; -1.68272 \; -1.67968 \; -1.14949 \; -0.936359 \; -1.16446 \; -1.72766
\; -1.69394 \; -1.32084 \; -0.927489 \; -0.956614 \; -1.67473 \; -1.70018
\; -1.53837 \; -0.973988 \; -0.946994 \; -1.44999 \; -1.72516 \; -1.62908
\; -1.07104 \; -0.96258 \; -1.17666 \; -1.78741 \; -1.62598 \; -1.45511
\; -1.03757 \; -1.01209 \; -1.43554 \; -1.65538 \; -1.55236 \; -1.25845
\; -1.0917 \; -1.16114 \; -1.69402 \; -1.50493 \; -1.51232 \; -1.22138
\; -1.1522 \; -1.42042 \; -1.52878 \; -1.46248 \; -1.51905 \; -1.35305
\; -1.34187 \; -1.48764 \; -1.42345 \; -1.48128 \; -1.41389 \; -1.29616
\; -1.35896 \; -1.49574 \; -1.46438 \; -1.56408 \; -1.47775 \; -1.35097
\; -1.39321 \; -1.48475 \; -1.48222 \; -1.53476 \; -1.53821 \; -1.30855
\; -1.29584 \; -1.46043 \; -1.51824 \; -1.62566 \; -1.35876 \; -1.22878
\; -1.31782 \; -1.5472 \; -1.5328 \; -1.60518 \; -1.2938 \; -1.252
\; -1.38267 \; -1.53291 \; -1.57385 \; -1.50151 \; -1.31948 \; -1.29919
\; -1.41767 \; -1.55457 \; -1.52089 \; -1.49382 \; -1.35193 \; -1.34745
\; -1.45312 \; -1.454 \; -1.45091 \; -1.55656 \; -1.40089 \; -1.41423
\; -1.46629 \; -1.43837 \; -1.45747 \; -1.55221 \; -1.46678 \; -1.48303
\; -1.38739 \; -1.3926 \; -1.45476 \; -1.62031 \; -1.5153 \; -1.36634
\; -1.28071 \; -1.31415 \; -1.63846 \; -1.30488 \; -1.21503 \; -1.29107
\; -1.65303 \; -1.47849 \; -1.3451 \; -1.33536 \; -1.43777 \; -1.5934
\; -1.56634 \; -1.34106 \; -1.23789 \; -1.28084 \; -1.56271 \; -1.658
\; -1.33302 \; -1.14025 \; -1.14341 \; -1.51645 \; -1.68555 \; -1.57033
\; -1.09873 \; -1.0549 \; -1.36142 \; -1.72077 \; -1.65159 \; -1.18061
\; -1.06099 \; -1.19106 \; -1.63083 \; -1.73995 \; -1.2677 \; -1.05496
\; -1.13724 \; -1.53422 \; -1.73117 \; -1.42217 \; -1.05916 \; -1.0515
\; -1.45692 \; -1.72107 \; -1.58032 \; -1.05935 \; -1.01106 \; -1.40703
\; -1.71999 \; -1.66277 \; -1.13847 \; -1.01575 \; -1.24291 \; -1.72216
\; -1.71383 \; -1.22317 \; -0.991997 \; -1.05643 \; -1.54326 \; -1.77612
\; -1.43107 \; -0.98304 \; -0.965025 \; -1.43675 \; -1.78041 \; -1.6171
\; -1.00937 \; -0.973096 \; -1.28181 \; -1.68326 \; -1.76379 \; -1.20817
\; -0.996711 \; -1.091 \; -1.57925 \; -1.76542 \; -1.34707 \; -1.04451
\; -1.05236 \; -1.45072 \; -1.78075 \; -1.46813 \; -1.10281 \; -1.08037
\; -1.38919 \; -1.74954 \; -1.54555 \; -1.28972 \; -1.23565 \; -1.34707
\; -1.5584 \; -1.63478 \; -1.45313 \; -1.30963 \; -1.3021 \; -1.37728
\; -1.64374 \; -1.50841 \; -1.21839 \; -1.16959 \; -1.31148 \; -1.63024
\; -1.66192 \; -0.892248 \; -0.808695 \; -1.2137 \; -1.93435 \; -1.48069
\; -1.01468 \; -0.97264 \; -1.35692 \; -1.70546 \; -1.42943 \; -0.963655
\; -0.955759 \; -1.44602 \; -1.70142 \; -1.27667 \; -1.08488 \; -1.18529
\; -1.52236 \; -1.68742 \; -1.26611 \; -1.09004 \; -1.30578 \; -1.61436
\; -1.73187 \; -1.27726 \; -1.14804 \; -1.34987 \; -1.55687 \; -1.48851
\; -1.17911 \; -1.17167 \; -1.47419 \; -1.54334 \; -1.2654 \; -1.22757
\; -1.37074 \; -1.55603 \; -1.61567 \; -1.15511 \; -1.16436 \; -1.54688
\; -1.62622 \; -1.42754 \; -1.11556 \; -1.15412 \; -1.61041 \; -1.67399
\; -1.10782 \; -1.05096 \; -1.26487 \; -1.65878 \; -1.69791 \; -1.03633
\; -1.03368 \; -1.50197 \; -1.67501 \; -1.47303 \; -0.957863 \; -0.990983
\; -1.56792 \; -1.7189 \; -1.20953 \; -1.02141 \; -1.1706 \; -1.55513
\; -1.71416 \; -1.15966 \; -1.06153 \; -1.4296 \; -1.59405 \; -1.47659
\; -1.1813 \; -1.16287 \; -1.51561 \; -1.60364 \; -1.29778 \; -1.21394
\; -1.37127 \; -1.62085 \; -1.61274 \; -1.21648 \; -1.17153 \; -1.49517
\; -1.7213 \; -1.27432 \; -1.04838 \; -1.10254 \; -1.58752 \; -1.7129
\; -1.09482 \; -1.01104 \; -1.26984 \; -1.66422 \; -1.52788 \; -1.0509
\; -1.06047 \; -1.5024 \; -1.67921 \; -1.1728 \; -1.07609 \; -1.2885
\; -1.59072 \; -1.70798 \; -1.13966 \; -1.15478 \; -1.4941 \; -1.60067
\; -1.16849 \; -1.12469 \; -1.38612 \; -1.55066 \; -1.67079 \; -1.06432
\; -1.14123 \; -1.59746 \; -1.58384 \; -1.15181 \; -1.04809 \; -1.32637
\; -1.62423 \; -1.67981 \; -1.02877 \; -1.04297 \; -1.57634 \; -1.57877
\; -1.29498 \; -1.04727 \; -1.18207 \; -1.56197 \; -1.6254 \; -1.0993
\; -1.11455 \; -1.53389 \; -1.52316 \; -1.43643 \; -1.05427 \; -1.21385
\; -1.52992 \; -1.57504 \; -1.06297 \; -1.05919 \; -1.54314 \; -1.49842
\; -1.52018 \; -1.00537 \; -1.16625 \; -1.48694 \; -1.53223 \; -1.01066
\; -0.949556 \; -1.54193 \; -1.54927 \; -1.66216 \; -0.914256 \; -1.0144
\; -1.53808 \; -1.55943 \; -1.15582 \; -0.890443 \; -1.17814 \; -1.52361
\; -1.66233 \; -0.927128 \; -0.931374 \; -1.53688 \; -1.48816 \; -1.63818
\; -0.912964 \; -1.0882 \; -1.51434 \; -1.55325 \; -1.09886 \; -0.951564
\; -1.35705 \; -1.54309 \; -1.62777 \; -0.961442 \; -1.00713 \; -1.55204
\; -1.55761 \; -1.56403 \; -0.983849 \; -1.19186 \; -1.52263 \; -1.55072
\; -0.98481 \; -0.901268 \; -1.44001 \; -1.38126 \; -1.67246 \; -0.880768
\; -0.893149 \; -1.48328 \; -1.32663 \; -1.78219 \; -0.887743 \; -1.00704
\; -1.36213 \; -1.34554 \; -1.29404 \; -0.920016 \; -1.13377 \; -1.30529
\; -1.34593 \; -0.934588 \; -0.892802 \; -1.51957 \; -1.24773 \; -1.57121
\; -0.869264 \; -0.918426 \; -1.41865 \; -1.23943 \; -1.78916 \; -0.798055
\; -1.09298 \; -1.23606 \; -1.19152 \; -1.3387 \; -0.785309 \; -1.27574
\; -1.16446 \; -1.22947 \; -0.887577 \; -0.804037 \; -1.28365 \; -1.19135
\; -1.52321 \; -0.831578 \; -0.85421 \; -1.18209 \; -1.17516 \; -1.85642
\; -0.850807 \; -1.16234 \; -1.1601 \; -1.24138 \; -1.60362 \; -0.835566
\; -1.39547 \; -1.08007 \; -1.26818 \; -1.27193 \; -0.839067 \; -1.44009
\; -1.04725 \; -1.34066 \; -0.931659 \; -0.846788 \; -1.10989 \; -1.00039
\; -1.52411 \; -0.847328 \; -0.865371 \; -1.0142 \; -1.00045 \; -1.73883
\; -0.926884 \; -0.952621 \; -0.998811 \; -1.03142 \; -1.808 \; -0.928223
\; -1.06738 \; -1.00248 \; -1.0937 \; -1.75131 \; -1.07973 \; -1.1293
\; -1.2108 \; -1.29671 \; -1.75542 \; -1.07539 \; -1.04432 \; -1.50725
\; -1.23253 \; -1.48238 \; -0.975259 \; -0.883051 \; -1.58377 \; -1.08608
\; -1.3484 \; -0.892483 \; -0.823209 \; -1.54053 \; -0.952843 \; -1.3155
\; -0.81972 \; -0.755935 \; -1.47637 \; -0.93708 \; -1.34612 \; -0.797525
\; -0.748372 \; -1.36433 \; -0.880067 \; -1.36927 \; -0.819411 \; -0.766092
\; -1.32674 \; -0.926511 \; -1.36211 \; -0.902214 \; -0.824553 \; -1.33137
\; -0.93354 \; -1.24437 \; -1.0269 \; -0.86747 \; -1.34637 \; -1.01156
\; -1.16899 \; -1.13812 \; -0.851203 \; -1.16096 \; -1.02692 \; -1.08729
\; -1.36572 \; -0.815543 \; -1.08778 \; -1.09127 \; -1.11969 \; -1.58037
\; -0.789233 \; -1.01757 \; -1.14 \; -1.15151 \; -1.87206 \; -0.785855
\; -0.949981 \; -1.2156 \; -1.20302 \; -2.02611 \; -0.817439 \; -0.919797
\; -1.32257 \; -1.21634 \; -1.8667 \; -0.883289 \; -0.900421 \; -1.385
\; -1.16856 \; -1.58811 \; -1.01151 \; -0.88837 \; -1.37904 \; -1.14435
\; -1.3908 \; -1.20061 \; -0.89956 \; -1.13375 \; -1.16047 \; -1.2445
\; -1.39949 \; -0.895652 \; -0.951489 \; -1.13413 \; -1.16324 \; -1.75801
\; -0.798875 \; -0.848995 \; -1.16492 \; -1.13224 \; -1.89257 \; -0.668022
\; -0.658027 \; -1.26738 \; -1.0482 \; -1.73807 \; -0.648599 \; -0.547779
\; -1.34857 \; -0.977359 \; -1.59805 \; -0.7189 \; -0.584901 \; -1.40705
\; -0.932396 \; -1.2979 \; -0.923924 \; -0.581339 \; -1.25164 \; -0.872682
\; -1.02085 \; -1.35084 \; -0.588871 \; -1.03558 \; -0.919086 \; -0.921825
\; -1.8032 \; -0.63883 \; -0.821619 \; -0.99818 \; -0.887409 \; -2.11705
\; -0.646753 \; -0.676356 \; -1.1458 \; -0.916487 \; -1.74402 \; -0.709531
\; -0.634342 \; -1.32493 \; -0.892192 \; -1.38131 \; -0.818936 \; -0.606211
\; -1.24552 \; -0.92508 \; -1.04551 \; -1.3581 \; -0.586946 \; -1.04678
\; -0.969374 \; -0.939239 \; -1.75338 \; -0.605991 \; -0.813811 \;
-1.00625 \; -0.978138 \; -2.05369 \; -0.595536 \; -0.643689 \; -1.1918
\; -1.04609 \; -1.8345 \; -0.668887 \; -0.644038 \; -1.2694 \; -1.11256
\; -1.61152 \; -0.74404 \; -0.668062 \; -1.32163 \; -1.12588 \; -1.40158
\; -0.894567 \; -0.72465 \; -1.28254 \; -1.16608 \; -1.33845 \; -1.02059
\; -0.785342 \; -1.25002 \; -1.2086 \; -1.37796 \; -1.02956 \; -0.810857
\; -1.23194 \; -1.14735 \; -1.36534 \; -1.09513 \; -0.909477 \; -1.28751
\; -1.22759 \; -1.37539 \; -1.04383 \; -0.952717 \; -1.30512 \; -1.26572
\; -1.46313 \; -1.02706 \; -1.0655 \; -1.26368 \; -1.28672 \; -1.72918
\; -0.960426 \; -1.22712 \; -1.13242 \; -1.26469 \; -1.5 \; -1.5 \;
-1.5 \; -1.5 \; -1.5 \; -1.5 \; -1.5 \; -1.5 \; -1.5 \; -1.5 \; -1.5
\; -1.5 \; -1.5 \; -1.5 \; -1.5 \; -1.5 \; -1.5 \; -1.5 \; -1.5 \;
-1.5 \; -1.5 \; -1.5 \; -1.5 \; -1.5 \; -1.5 \; -1.5 \; -1.5 \; -1.5
\; -1.5 \; -1.5 \; -1.5 \; -1.5 \; -1.5 \; -1.5 \; -1.5 \; -1.5 \;
\;;
#X coords 0 -1 1024 1 180 82 1;
#X restore 1 1 pd \$0-graph;
#X coords 0 -1 1024 1 180 82 1;
#X restore 24 45 pd \$0-graph-subpatch;
#N canvas 148 124 1226 748 nice_waveform 0;
#X obj 505 170 f \$0;
#X msg 505 118 bang;
#X obj 505 141 t b b;
#X obj 519 24 loadbang;
#X msg 664 219 \; pd-\$1-graph clear;
#X msg 638 257 traverse pd-\$1-graph \, bang;
#X obj 638 282 pointer;
#N canvas 722 164 680 479 \$0-scope-template 0;
#X obj 41 167 outlet;
#X obj 104 92 filledpolygon c1 c2 2 x y x1 y x1 y1 x y1 x y;
#X obj 40 23 struct \$0-scope float x float y float x1 float y1 float
c1 float c2 float c3 float c4 array vector-min \$0-scope-element array
vector-max \$0-scope-element float curx, f 100;
#X obj 171 247 plot -e 0 vector-min c3 1 y;
#X obj 169 271 plot -e 0 vector-max c3 1 y;
#X connect 2 0 0 0;
#X restore 107 340 pd \$0-scope-template;
#N canvas 478 253 450 300 \$0-scope-element 0;
#X obj 61 57 struct \$0-scope-element float y;
#X restore 107 361 pd \$0-scope-element;
#X obj 280 590 set \$0-scope-element y;
#X obj 280 565 - 1.5;
#X obj 505 191 t b f f;
#X text 131 424 number of plot elements = array size;
#X text 432 316 frame size and colours;
#X obj 91 712 s pd-\$0-graph;
#X msg 91 692 coords 0 -1 \$1 1 \$2 \$3 2;
#X msg 360 423 1024;
#X obj 840 335 float;
#X msg 859 237 0;
#X obj 840 303 until;
#X obj 931 336 / 1024;
#X obj 885 335 + 1;
#X obj 765 461 *;
#X msg 840 262 1024;
#X obj 318 657 set \$0-scope-element y;
#X obj 318 632 - 1.5;
#X obj 792 405 s \$0-index;
#X obj 792 381 int;
#X obj 409 539 r \$0-index;
#X obj 447 606 r \$0-index;
#X msg 361 473 1024;
#X obj 844 445 t f f f;
#X obj 447 631 element \$0-scope vector-min;
#X obj 409 562 element \$0-scope vector-max;
#X obj 361 501 setsize \$0-scope vector-min;
#X obj 360 451 setsize \$0-scope vector-max;
#X obj 765 351 t f f;
#X text 977 337 file size divided by array size;
#X obj 314 705 vsl 10 100 0 200 0 0 graph-height empty empty 0 -9 0
10 #feffc6 #ff0400 #000000 0 0;
#X obj 356 735 hsl 128 10 0 1000 0 0 graph-width empty scale-x 4 4
0 10 #feffc6 #ff0400 #000000 0 0;
#X msg 91 671 1024 \$1 \$2;
#X obj 91 652 pack;
#X obj 91 568 r graph-width;
#X obj 178 567 r graph-height;
#X obj 178 636 t b f;
#X obj 178 616 -;
#X msg 178 593 200 \$1;
#X text 314 714 scale-y, f 1;
#X obj 1291 270 samplerate~;
#X obj 1254 301 /;
#X obj 1231 254 t f b;
#X floatatom 1254 325 0 0 0 0 seconds - - 0;
#X floatatom 1254 398 0 0 0 0 display_width/seconds - - 0;
#X obj 1254 371 /;
#X obj 1254 423 / 20;
#X floatatom 1230 226 15 0 0 1 <=_wave_file_size - - 0;
#X obj 1372 340 s \$0-seconds;
#X msg 1254 349 1024 \$1;
#X obj 1257 595 f;
#X obj 1257 646 s \$0-cursor;
#X obj 1199 559 metro 50;
#X obj 1199 470 r \$0-play;
#X floatatom 1272 561 0 0 0 0 - - - 0;
#X obj 1272 531 bng 15 250 50 0 empty \$0-eof empty 17 7 0 10 #fcfcfc
#000000 #000000;
#X obj 840 209 t f b f b f;
#X obj 435 394 t b b p p p p p;
#X obj 435 334 append \$0-scope x y x1 y1 c1 c2 c3 c4 curx;
#X obj 1272 505 r \$0-repeat;
#X obj 1199 534 tgl 15 0 empty empty empty 17 7 0 10 #fcfcfc #000000
#000000 0 1;
#X obj 1199 503 t f b;
#X obj 1297 594 + 1;
#X obj 1257 620 * 1;
#X text 1235 145 Get the duration of the wave file;
#X text 1287 419 divide by 20 for a metro speed of 50ms (1000/50=20)
, f 27;
#X text 217 502 set plot elements < 0;
#X text 216 451 set plot elements > 0;
#X obj 91 731 s pd-\$0-graph-subpatch;
#X obj 1208 179 r \$1-samplelength;
#X obj 765 499 array max \$1-poly_grain-L;
#X obj 765 521 array min \$1-poly_grain-R;
#X obj 838 127 r \$1-samplelength;
#X obj 820 163 f;
#X obj 803 106 r \$1-visual;
#X obj 767 101 bng 15 250 50 0 empty empty empty 17 7 0 10 #fcfcfc
#000000 #000000;
#X msg 435 298 0 0.5 1024 -1.5 999 999 900 990 452;
#X msg 67 594 180;
#X text 92 83 this was not made by Yann! made by Balwyn on the Pure
Data forums.;
#X connect 0 0 11 0;
#X connect 1 0 2 0;
#X connect 2 0 0 0;
#X connect 3 0 1 0;
#X connect 3 0 23 0;
#X connect 5 0 6 0;
#X connect 6 0 66 9;
#X connect 10 0 9 0;
#X connect 11 0 84 0;
#X connect 11 1 5 0;
#X connect 11 2 4 0;
#X connect 15 0 14 0;
#X connect 15 0 76 0;
#X connect 16 0 35 0;
#X connect 17 0 21 0;
#X connect 17 0 36 0;
#X connect 18 0 17 1;
#X connect 19 0 17 0;
#X connect 20 0 31 0;
#X connect 21 0 17 1;
#X connect 22 0 78 0;
#X connect 22 0 79 0;
#X connect 23 0 19 0;
#X connect 25 0 24 0;
#X connect 27 0 26 0;
#X connect 28 0 33 0;
#X connect 29 0 32 0;
#X connect 30 0 34 0;
#X connect 31 0 22 1;
#X connect 31 1 78 1;
#X connect 31 2 79 1;
#X connect 32 0 24 1;
#X connect 33 0 9 1;
#X connect 36 0 22 0;
#X connect 36 1 27 0;
#X connect 40 0 15 0;
#X connect 41 0 40 0;
#X connect 42 0 41 0;
#X connect 43 0 46 0;
#X connect 44 0 41 0;
#X connect 44 1 41 1;
#X connect 45 0 44 0;
#X connect 46 0 45 0;
#X connect 48 0 49 1;
#X connect 49 0 51 0;
#X connect 50 0 49 0;
#X connect 50 1 48 0;
#X connect 51 0 57 0;
#X connect 51 0 56 0;
#X connect 52 0 54 0;
#X connect 53 0 52 0;
#X connect 54 0 71 1;
#X connect 55 0 50 0;
#X connect 57 0 53 0;
#X connect 58 0 70 0;
#X connect 58 0 71 0;
#X connect 60 0 58 0;
#X connect 61 0 69 0;
#X connect 62 0 58 1;
#X connect 63 0 62 0;
#X connect 64 0 23 0;
#X connect 64 1 18 0;
#X connect 64 2 20 0;
#X connect 64 3 1 0;
#X connect 65 0 16 0;
#X connect 65 1 30 0;
#X connect 65 2 35 1;
#X connect 65 3 34 1;
#X connect 65 4 33 1;
#X connect 65 5 32 1;
#X connect 66 0 65 0;
#X connect 67 0 63 0;
#X connect 68 0 60 0;
#X connect 69 0 68 0;
#X connect 69 1 63 0;
#X connect 70 0 58 1;
#X connect 71 0 59 0;
#X connect 77 0 55 0;
#X connect 78 0 10 0;
#X connect 79 0 25 0;
#X connect 80 0 81 1;
#X connect 81 0 64 0;
#X connect 82 0 81 0;
#X connect 83 0 81 0;
#X connect 84 0 66 0;
#X connect 85 0 41 0;
#X restore 394 395 pd nice_waveform;
#X obj 258 44 tgl 15 1 \$1-recordLoop \$1-recordLoop_rcv liveGrains
16 8 1 10 #ffc7c6 #000000 #000000 0 1;
#X obj 12 545 ys.granular_brain \$1 \$2;
#X connect 36 0 38 0;
#X connect 40 0 36 0;
#X coords 0 -1 1 1 350 500 1 0 0;
