#N canvas 203 44 1032 422 12;
#X obj 85 365 catch~ recordingL;
#X obj 223 363 catch~ recordingR;
#X obj 140 407 writesf~ 2;
#X obj 187 157 bng 50 250 50 0 empty empty record 0 -11 0 25 #ff0400
#000000 #000000;
#X obj 193 238 bng 50 250 50 0 empty empty stop 0 -11 0 25 #faff00
#000000 #000000;
#X msg 76 323 start;
#X msg 193 312 stop;
#X text 292 165 <---- step 2: click record;
#X text 281 247 <--- step 3: stop the recording. once you click stop
the file should be saved;
#X text 41 14 A simple way of recording the output from ys.granular.
It should record the output of any instance of ys.granular_main that
is currently open.;
#X msg 117 81 open recording11.wav;
#X text 285 81 <--- step 1: choose a name \, and then click this to
create the file. If this file already exists it will be overwritten!
;
#X connect 0 0 2 0;
#X connect 1 0 2 1;
#X connect 3 0 5 0;
#X connect 4 0 6 0;
#X connect 5 0 2 0;
#X connect 6 0 2 0;
#X connect 10 0 2 0;
